G04*
G04 #@! TF.GenerationSoftware,Altium Limited,Altium Designer,21.3.2 (30)*
G04*
G04 Layer_Color=16711935*
%FSLAX44Y44*%
%MOMM*%
G71*
G04*
G04 #@! TF.SameCoordinates,D31877C3-2771-4543-B1C5-E2EF0DFC8C93*
G04*
G04*
G04 #@! TF.FilePolarity,Negative*
G04*
G01*
G75*
%ADD104R,2.1000X2.1000*%
%ADD105C,2.1000*%
%ADD106C,1.6740*%
%ADD107C,2.0500*%
%ADD108C,1.5240*%
%ADD109C,1.8500*%
%ADD110R,1.8500X1.8500*%
%ADD111C,1.4200*%
D104*
X923750Y-897000D02*
D03*
X336567Y-495480D02*
D03*
X478750Y-891230D02*
D03*
X345633Y-889960D02*
D03*
X56567Y-495480D02*
D03*
X204363Y-891230D02*
D03*
X64363D02*
D03*
X196567Y-495480D02*
D03*
D105*
X973750Y-897000D02*
D03*
X386567Y-495480D02*
D03*
X528750Y-891230D02*
D03*
X394362D02*
D03*
X106567Y-495480D02*
D03*
X254362Y-891230D02*
D03*
X114362D02*
D03*
X246567Y-495480D02*
D03*
D106*
X387620Y-299960D02*
D03*
X413020D02*
D03*
X438420D02*
D03*
X463820D02*
D03*
X489220D02*
D03*
X514620D02*
D03*
X540020D02*
D03*
X565420D02*
D03*
X590820D02*
D03*
X616220D02*
D03*
X641620D02*
D03*
X667020D02*
D03*
X692420D02*
D03*
X717820D02*
D03*
X743220D02*
D03*
X387620Y-147560D02*
D03*
X413020D02*
D03*
X438420D02*
D03*
X463820D02*
D03*
X489220D02*
D03*
X514620D02*
D03*
X540020D02*
D03*
X565420D02*
D03*
X590820D02*
D03*
X616220D02*
D03*
X641620D02*
D03*
X667020D02*
D03*
X692420D02*
D03*
X717820D02*
D03*
X743220D02*
D03*
X974550Y-327500D02*
D03*
X949150D02*
D03*
X923750D02*
D03*
X898350D02*
D03*
D107*
X281250Y-330300D02*
D03*
X231250D02*
D03*
X181250D02*
D03*
D108*
X347500Y-80000D02*
D03*
X706250Y-892500D02*
D03*
X152500Y-660000D02*
D03*
X102500Y-380000D02*
D03*
X997500D02*
D03*
X752500Y-80000D02*
D03*
D109*
X491750Y-776230D02*
D03*
Y-706230D02*
D03*
X538750Y-591230D02*
D03*
D110*
X491750D02*
D03*
D111*
X655000Y-800000D02*
D03*
X1033750Y-745000D02*
D03*
X1013497Y-856227D02*
D03*
X675000Y-637500D02*
D03*
X297500Y-142500D02*
D03*
X741001Y-339366D02*
D03*
X870000Y-422500D02*
D03*
X615000Y-245000D02*
D03*
X647500Y-762500D02*
D03*
X527500Y-420000D02*
D03*
X462500Y-462500D02*
D03*
X675000Y-765000D02*
D03*
X348750Y-330000D02*
D03*
X408750D02*
D03*
X378750D02*
D03*
X97500Y-262500D02*
D03*
X130000D02*
D03*
X348750Y-400000D02*
D03*
X408750D02*
D03*
X378750D02*
D03*
X328750Y-582500D02*
D03*
X273750Y-727500D02*
D03*
X186250D02*
D03*
X96250D02*
D03*
X617083Y-871129D02*
D03*
X634583D02*
D03*
Y-888629D02*
D03*
X617083D02*
D03*
Y-906129D02*
D03*
X634583D02*
D03*
X603420Y-481315D02*
D03*
X585920D02*
D03*
Y-463815D02*
D03*
X603420D02*
D03*
Y-446315D02*
D03*
X585920D02*
D03*
X918750Y-230000D02*
D03*
X1020000Y-450000D02*
D03*
X232604Y-599514D02*
D03*
X888750Y-785000D02*
D03*
X627500Y-590000D02*
D03*
X645000D02*
D03*
Y-572500D02*
D03*
X627500D02*
D03*
X1016250Y-727500D02*
D03*
X1033750D02*
D03*
X1016250Y-745000D02*
D03*
X998750Y-727500D02*
D03*
Y-745000D02*
D03*
X851250Y-810000D02*
D03*
X868750D02*
D03*
Y-827500D02*
D03*
X851250D02*
D03*
Y-845000D02*
D03*
X868750D02*
D03*
X911250Y-652500D02*
D03*
X893750D02*
D03*
Y-670000D02*
D03*
X911250D02*
D03*
X928750D02*
D03*
X963750D02*
D03*
X91250Y-167500D02*
D03*
X236250Y-135000D02*
D03*
X133750Y-142500D02*
D03*
X868750Y-920000D02*
D03*
X851250D02*
D03*
Y-902500D02*
D03*
X868750D02*
D03*
Y-885000D02*
D03*
X851250D02*
D03*
X423610Y-597176D02*
D03*
X538750Y-440000D02*
D03*
X956250Y-635000D02*
D03*
X928750Y-652500D02*
D03*
X981250Y-670000D02*
D03*
X921250Y-635000D02*
D03*
X938750D02*
D03*
X358750Y-132500D02*
D03*
X628750Y-182500D02*
D03*
X918750Y-198730D02*
D03*
M02*
