G04*
G04 #@! TF.GenerationSoftware,Altium Limited,Altium Designer,21.3.2 (30)*
G04*
G04 Layer_Color=2752767*
%FSLAX44Y44*%
%MOMM*%
G71*
G04*
G04 #@! TF.SameCoordinates,4244C718-2E5F-4D70-85F9-B0E7FB749B1B*
G04*
G04*
G04 #@! TF.FilePolarity,Positive*
G04*
G01*
G75*
%ADD123C,0.0508*%
%ADD124C,0.0677*%
D123*
X279218Y-332332D02*
Y-328268D01*
X283282D01*
Y-332332D01*
X279218D01*
X229218D02*
Y-328268D01*
X233282D01*
Y-332332D01*
X229218D01*
X179218D02*
Y-328268D01*
X183282D01*
Y-332332D01*
X179218D01*
X743220Y-149592D02*
X741188Y-145528D01*
X745252D01*
X743220Y-149592D01*
X717820D02*
X715788Y-145528D01*
X719852D01*
X717820Y-149592D01*
X692420D02*
X690388Y-145528D01*
X694452D01*
X692420Y-149592D01*
X667020D02*
X664988Y-145528D01*
X669052D01*
X667020Y-149592D01*
X641620D02*
X639588Y-145528D01*
X643652D01*
X641620Y-149592D01*
X616220D02*
X614188Y-145528D01*
X618252D01*
X616220Y-149592D01*
X590820D02*
X588788Y-145528D01*
X592852D01*
X590820Y-149592D01*
X565420D02*
X563388Y-145528D01*
X567452D01*
X565420Y-149592D01*
X540020D02*
X537988Y-145528D01*
X542052D01*
X540020Y-149592D01*
X514620D02*
X512588Y-145528D01*
X516652D01*
X514620Y-149592D01*
X489220D02*
X487188Y-145528D01*
X491252D01*
X489220Y-149592D01*
X463820D02*
X461788Y-145528D01*
X465852D01*
X463820Y-149592D01*
X438420D02*
X436388Y-145528D01*
X440452D01*
X438420Y-149592D01*
X413020D02*
X410988Y-145528D01*
X415052D01*
X413020Y-149592D01*
X387620D02*
X385588Y-145528D01*
X389652D01*
X387620Y-149592D01*
X743220Y-301992D02*
X741188Y-297928D01*
X745252D01*
X743220Y-301992D01*
X717820D02*
X715788Y-297928D01*
X719852D01*
X717820Y-301992D01*
X692420D02*
X690388Y-297928D01*
X694452D01*
X692420Y-301992D01*
X667020D02*
X664988Y-297928D01*
X669052D01*
X667020Y-301992D01*
X641620D02*
X639588Y-297928D01*
X643652D01*
X641620Y-301992D01*
X616220D02*
X614188Y-297928D01*
X618252D01*
X616220Y-301992D01*
X590820D02*
X588788Y-297928D01*
X592852D01*
X590820Y-301992D01*
X565420D02*
X563388Y-297928D01*
X567452D01*
X565420Y-301992D01*
X540020D02*
X537988Y-297928D01*
X542052D01*
X540020Y-301992D01*
X514620D02*
X512588Y-297928D01*
X516652D01*
X514620Y-301992D01*
X489220D02*
X487188Y-297928D01*
X491252D01*
X489220Y-301992D01*
X463820D02*
X461788Y-297928D01*
X465852D01*
X463820Y-301992D01*
X438420D02*
X436388Y-297928D01*
X440452D01*
X438420Y-301992D01*
X413020D02*
X410988Y-297928D01*
X415052D01*
X413020Y-301992D01*
X387620D02*
X385588Y-297928D01*
X389652D01*
X387620Y-301992D01*
X971718Y-899032D02*
Y-894968D01*
X975782D01*
Y-899032D01*
X971718D01*
X921718D02*
Y-894968D01*
X925782D01*
Y-899032D01*
X921718D01*
X334535Y-497512D02*
Y-493448D01*
X338599D01*
Y-497512D01*
X334535D01*
X384535D02*
Y-493448D01*
X388599D01*
Y-497512D01*
X384535D01*
X526718Y-893262D02*
Y-889198D01*
X530782D01*
Y-893262D01*
X526718D01*
X476718D02*
Y-889198D01*
X480782D01*
Y-893262D01*
X476718D01*
X392330D02*
Y-889198D01*
X396394D01*
Y-893262D01*
X392330D01*
X343601Y-891992D02*
Y-887928D01*
X347664D01*
Y-891992D01*
X343601D01*
X491750Y-778262D02*
X492766Y-777246D01*
X493782D01*
X492766Y-776230D01*
X493782Y-775214D01*
X492766D01*
X491750Y-774198D01*
X490734Y-775214D01*
X489718D01*
X490734Y-776230D01*
X489718Y-777246D01*
X490734D01*
X491750Y-778262D01*
Y-708262D02*
X492766Y-707246D01*
X493782D01*
X492766Y-706230D01*
X493782Y-705214D01*
X492766D01*
X491750Y-704198D01*
X490734Y-705214D01*
X489718D01*
X490734Y-706230D01*
X489718Y-707246D01*
X490734D01*
X491750Y-708262D01*
X538750Y-593262D02*
X539766Y-592246D01*
X540782D01*
X539766Y-591230D01*
X540782Y-590214D01*
X539766D01*
X538750Y-589198D01*
X537734Y-590214D01*
X536718D01*
X537734Y-591230D01*
X536718Y-592246D01*
X537734D01*
X538750Y-593262D01*
X491750D02*
X492766Y-592246D01*
X493782D01*
X492766Y-591230D01*
X493782Y-590214D01*
X492766D01*
X491750Y-589198D01*
X490734Y-590214D01*
X489718D01*
X490734Y-591230D01*
X489718Y-592246D01*
X490734D01*
X491750Y-593262D01*
X104535Y-497512D02*
Y-493448D01*
X108599D01*
Y-497512D01*
X104535D01*
X54535D02*
Y-493448D01*
X58599D01*
Y-497512D01*
X54535D01*
X202330Y-893262D02*
Y-889198D01*
X206395D01*
Y-893262D01*
X202330D01*
X252330D02*
Y-889198D01*
X256394D01*
Y-893262D01*
X252330D01*
X62330D02*
Y-889198D01*
X66395D01*
Y-893262D01*
X62330D01*
X112330D02*
Y-889198D01*
X116394D01*
Y-893262D01*
X112330D01*
X194535Y-497512D02*
Y-493448D01*
X198599D01*
Y-497512D01*
X194535D01*
X244535D02*
Y-493448D01*
X248599D01*
Y-497512D01*
X244535D01*
X974550Y-329532D02*
X972518Y-325468D01*
X976582D01*
X974550Y-329532D01*
X949150D02*
X947118Y-325468D01*
X951182D01*
X949150Y-329532D01*
X923750D02*
X921718Y-325468D01*
X925782D01*
X923750Y-329532D01*
X898350D02*
X896318Y-325468D01*
X900382D01*
X898350Y-329532D01*
X612968Y-247032D02*
X613984Y-245000D01*
X612968Y-242968D01*
X615000Y-243984D01*
X617032Y-242968D01*
X616016Y-245000D01*
X617032Y-247032D01*
X615000Y-246016D01*
X612968Y-247032D01*
X646484Y-763516D02*
Y-764532D01*
X648516D01*
Y-763516D01*
X649532D01*
Y-761484D01*
X648516D01*
Y-760468D01*
X646484D01*
Y-761484D01*
X645468D01*
Y-763516D01*
X646484D01*
X1032734Y-746016D02*
Y-747032D01*
X1034766D01*
Y-746016D01*
X1035782D01*
Y-743984D01*
X1034766D01*
Y-742968D01*
X1032734D01*
Y-743984D01*
X1031718D01*
Y-746016D01*
X1032734D01*
X525468Y-422032D02*
X526484Y-420000D01*
X525468Y-417968D01*
X527500Y-418984D01*
X529532Y-417968D01*
X528516Y-420000D01*
X529532Y-422032D01*
X527500Y-421016D01*
X525468Y-422032D01*
X461484Y-463516D02*
Y-464532D01*
X463516D01*
Y-463516D01*
X464532D01*
Y-461484D01*
X463516D01*
Y-460468D01*
X461484D01*
Y-461484D01*
X460468D01*
Y-463516D01*
X461484D01*
X696484Y-776016D02*
Y-777032D01*
X698516D01*
Y-776016D01*
X699532D01*
Y-773984D01*
X698516D01*
Y-772968D01*
X696484D01*
Y-773984D01*
X695468D01*
Y-776016D01*
X696484D01*
X347734Y-331016D02*
Y-332032D01*
X349766D01*
Y-331016D01*
X350782D01*
Y-328984D01*
X349766D01*
Y-327968D01*
X347734D01*
Y-328984D01*
X346718D01*
Y-331016D01*
X347734D01*
X407734D02*
Y-332032D01*
X409766D01*
Y-331016D01*
X410782D01*
Y-328984D01*
X409766D01*
Y-327968D01*
X407734D01*
Y-328984D01*
X406718D01*
Y-331016D01*
X407734D01*
X377734D02*
Y-332032D01*
X379766D01*
Y-331016D01*
X380782D01*
Y-328984D01*
X379766D01*
Y-327968D01*
X377734D01*
Y-328984D01*
X376718D01*
Y-331016D01*
X377734D01*
X96484Y-263516D02*
Y-264532D01*
X98516D01*
Y-263516D01*
X99532D01*
Y-261484D01*
X98516D01*
Y-260468D01*
X96484D01*
Y-261484D01*
X95468D01*
Y-263516D01*
X96484D01*
X128984D02*
Y-264532D01*
X131016D01*
Y-263516D01*
X132032D01*
Y-261484D01*
X131016D01*
Y-260468D01*
X128984D01*
Y-261484D01*
X127968D01*
Y-263516D01*
X128984D01*
X347734Y-401016D02*
Y-402032D01*
X349766D01*
Y-401016D01*
X350782D01*
Y-398984D01*
X349766D01*
Y-397968D01*
X347734D01*
Y-398984D01*
X346718D01*
Y-401016D01*
X347734D01*
X407734D02*
Y-402032D01*
X409766D01*
Y-401016D01*
X410782D01*
Y-398984D01*
X409766D01*
Y-397968D01*
X407734D01*
Y-398984D01*
X406718D01*
Y-401016D01*
X407734D01*
X377734D02*
Y-402032D01*
X379766D01*
Y-401016D01*
X380782D01*
Y-398984D01*
X379766D01*
Y-397968D01*
X377734D01*
Y-398984D01*
X376718D01*
Y-401016D01*
X377734D01*
X327734Y-583516D02*
Y-584532D01*
X329766D01*
Y-583516D01*
X330782D01*
Y-581484D01*
X329766D01*
Y-580468D01*
X327734D01*
Y-581484D01*
X326718D01*
Y-583516D01*
X327734D01*
X272734Y-728516D02*
Y-729532D01*
X274766D01*
Y-728516D01*
X275782D01*
Y-726484D01*
X274766D01*
Y-725468D01*
X272734D01*
Y-726484D01*
X271718D01*
Y-728516D01*
X272734D01*
X185234D02*
Y-729532D01*
X187266D01*
Y-728516D01*
X188282D01*
Y-726484D01*
X187266D01*
Y-725468D01*
X185234D01*
Y-726484D01*
X184218D01*
Y-728516D01*
X185234D01*
X95234D02*
Y-729532D01*
X97266D01*
Y-728516D01*
X98282D01*
Y-726484D01*
X97266D01*
Y-725468D01*
X95234D01*
Y-726484D01*
X94218D01*
Y-728516D01*
X95234D01*
X616067Y-872145D02*
Y-873161D01*
X618099D01*
Y-872145D01*
X619115D01*
Y-870113D01*
X618099D01*
Y-869097D01*
X616067D01*
Y-870113D01*
X615051D01*
Y-872145D01*
X616067D01*
X633567D02*
Y-873161D01*
X635599D01*
Y-872145D01*
X636615D01*
Y-870113D01*
X635599D01*
Y-869097D01*
X633567D01*
Y-870113D01*
X632551D01*
Y-872145D01*
X633567D01*
Y-889645D02*
Y-890661D01*
X635599D01*
Y-889645D01*
X636615D01*
Y-887613D01*
X635599D01*
Y-886597D01*
X633567D01*
Y-887613D01*
X632551D01*
Y-889645D01*
X633567D01*
X616067D02*
Y-890661D01*
X618099D01*
Y-889645D01*
X619115D01*
Y-887613D01*
X618099D01*
Y-886597D01*
X616067D01*
Y-887613D01*
X615051D01*
Y-889645D01*
X616067D01*
Y-907145D02*
Y-908161D01*
X618099D01*
Y-907145D01*
X619115D01*
Y-905113D01*
X618099D01*
Y-904097D01*
X616067D01*
Y-905113D01*
X615051D01*
Y-907145D01*
X616067D01*
X633567D02*
Y-908161D01*
X635599D01*
Y-907145D01*
X636615D01*
Y-905113D01*
X635599D01*
Y-904097D01*
X633567D01*
Y-905113D01*
X632551D01*
Y-907145D01*
X633567D01*
X602404Y-482332D02*
Y-483348D01*
X604436D01*
Y-482332D01*
X605452D01*
Y-480299D01*
X604436D01*
Y-479283D01*
X602404D01*
Y-480299D01*
X601388D01*
Y-482332D01*
X602404D01*
X584904D02*
Y-483348D01*
X586936D01*
Y-482332D01*
X587952D01*
Y-480299D01*
X586936D01*
Y-479283D01*
X584904D01*
Y-480299D01*
X583888D01*
Y-482332D01*
X584904D01*
Y-464832D02*
Y-465848D01*
X586936D01*
Y-464832D01*
X587952D01*
Y-462799D01*
X586936D01*
Y-461783D01*
X584904D01*
Y-462799D01*
X583888D01*
Y-464832D01*
X584904D01*
X602404D02*
Y-465848D01*
X604436D01*
Y-464832D01*
X605452D01*
Y-462799D01*
X604436D01*
Y-461783D01*
X602404D01*
Y-462799D01*
X601388D01*
Y-464832D01*
X602404D01*
Y-447332D02*
Y-448348D01*
X604436D01*
Y-447332D01*
X605452D01*
Y-445299D01*
X604436D01*
Y-444283D01*
X602404D01*
Y-445299D01*
X601388D01*
Y-447332D01*
X602404D01*
X584904D02*
Y-448348D01*
X586936D01*
Y-447332D01*
X587952D01*
Y-445299D01*
X586936D01*
Y-444283D01*
X584904D01*
Y-445299D01*
X583888D01*
Y-447332D01*
X584904D01*
X917734Y-231016D02*
Y-232032D01*
X919766D01*
Y-231016D01*
X920782D01*
Y-228984D01*
X919766D01*
Y-227968D01*
X917734D01*
Y-228984D01*
X916718D01*
Y-231016D01*
X917734D01*
X1022734Y-453516D02*
Y-454532D01*
X1024766D01*
Y-453516D01*
X1025782D01*
Y-451484D01*
X1024766D01*
Y-450468D01*
X1022734D01*
Y-451484D01*
X1021718D01*
Y-453516D01*
X1022734D01*
X230572Y-601546D02*
X231588Y-599514D01*
X230572Y-597482D01*
X232604Y-598498D01*
X234636Y-597482D01*
X233620Y-599514D01*
X234636Y-601546D01*
X232604Y-600530D01*
X230572Y-601546D01*
X886718Y-787032D02*
X887734Y-785000D01*
X886718Y-782968D01*
X888750Y-783984D01*
X890782Y-782968D01*
X889766Y-785000D01*
X890782Y-787032D01*
X888750Y-786016D01*
X886718Y-787032D01*
X617734Y-591016D02*
Y-592032D01*
X619766D01*
Y-591016D01*
X620782D01*
Y-588984D01*
X619766D01*
Y-587968D01*
X617734D01*
Y-588984D01*
X616718D01*
Y-591016D01*
X617734D01*
X635234D02*
Y-592032D01*
X637266D01*
Y-591016D01*
X638282D01*
Y-588984D01*
X637266D01*
Y-587968D01*
X635234D01*
Y-588984D01*
X634218D01*
Y-591016D01*
X635234D01*
Y-573516D02*
Y-574532D01*
X637266D01*
Y-573516D01*
X638282D01*
Y-571484D01*
X637266D01*
Y-570468D01*
X635234D01*
Y-571484D01*
X634218D01*
Y-573516D01*
X635234D01*
X617734D02*
Y-574532D01*
X619766D01*
Y-573516D01*
X620782D01*
Y-571484D01*
X619766D01*
Y-570468D01*
X617734D01*
Y-571484D01*
X616718D01*
Y-573516D01*
X617734D01*
X673069Y-638516D02*
Y-639532D01*
X675101D01*
Y-638516D01*
X676117D01*
Y-636484D01*
X675101D01*
Y-635468D01*
X673069D01*
Y-636484D01*
X672053D01*
Y-638516D01*
X673069D01*
X665234Y-808516D02*
Y-809532D01*
X667266D01*
Y-808516D01*
X668282D01*
Y-806484D01*
X667266D01*
Y-805468D01*
X665234D01*
Y-806484D01*
X664218D01*
Y-808516D01*
X665234D01*
X1046169Y-899062D02*
X1047185Y-897030D01*
X1046169Y-894998D01*
X1048201Y-896014D01*
X1050232Y-894998D01*
X1049217Y-897030D01*
X1050232Y-899062D01*
X1048201Y-898046D01*
X1046169Y-899062D01*
X1015234Y-728516D02*
Y-729532D01*
X1017266D01*
Y-728516D01*
X1018282D01*
Y-726484D01*
X1017266D01*
Y-725468D01*
X1015234D01*
Y-726484D01*
X1014218D01*
Y-728516D01*
X1015234D01*
X1032734D02*
Y-729532D01*
X1034766D01*
Y-728516D01*
X1035782D01*
Y-726484D01*
X1034766D01*
Y-725468D01*
X1032734D01*
Y-726484D01*
X1031718D01*
Y-728516D01*
X1032734D01*
X1015234Y-746016D02*
Y-747032D01*
X1017266D01*
Y-746016D01*
X1018282D01*
Y-743984D01*
X1017266D01*
Y-742968D01*
X1015234D01*
Y-743984D01*
X1014218D01*
Y-746016D01*
X1015234D01*
X997734Y-728516D02*
Y-729532D01*
X999766D01*
Y-728516D01*
X1000782D01*
Y-726484D01*
X999766D01*
Y-725468D01*
X997734D01*
Y-726484D01*
X996718D01*
Y-728516D01*
X997734D01*
Y-746016D02*
Y-747032D01*
X999766D01*
Y-746016D01*
X1000782D01*
Y-743984D01*
X999766D01*
Y-742968D01*
X997734D01*
Y-743984D01*
X996718D01*
Y-746016D01*
X997734D01*
X850234Y-811016D02*
Y-812032D01*
X852266D01*
Y-811016D01*
X853282D01*
Y-808984D01*
X852266D01*
Y-807968D01*
X850234D01*
Y-808984D01*
X849218D01*
Y-811016D01*
X850234D01*
X867734D02*
Y-812032D01*
X869766D01*
Y-811016D01*
X870782D01*
Y-808984D01*
X869766D01*
Y-807968D01*
X867734D01*
Y-808984D01*
X866718D01*
Y-811016D01*
X867734D01*
Y-828516D02*
Y-829532D01*
X869766D01*
Y-828516D01*
X870782D01*
Y-826484D01*
X869766D01*
Y-825468D01*
X867734D01*
Y-826484D01*
X866718D01*
Y-828516D01*
X867734D01*
X850234D02*
Y-829532D01*
X852266D01*
Y-828516D01*
X853282D01*
Y-826484D01*
X852266D01*
Y-825468D01*
X850234D01*
Y-826484D01*
X849218D01*
Y-828516D01*
X850234D01*
Y-846016D02*
Y-847032D01*
X852266D01*
Y-846016D01*
X853282D01*
Y-843984D01*
X852266D01*
Y-842968D01*
X850234D01*
Y-843984D01*
X849218D01*
Y-846016D01*
X850234D01*
X867734D02*
Y-847032D01*
X869766D01*
Y-846016D01*
X870782D01*
Y-843984D01*
X869766D01*
Y-842968D01*
X867734D01*
Y-843984D01*
X866718D01*
Y-846016D01*
X867734D01*
X910234Y-653516D02*
Y-654532D01*
X912266D01*
Y-653516D01*
X913282D01*
Y-651484D01*
X912266D01*
Y-650468D01*
X910234D01*
Y-651484D01*
X909218D01*
Y-653516D01*
X910234D01*
X892734D02*
Y-654532D01*
X894766D01*
Y-653516D01*
X895782D01*
Y-651484D01*
X894766D01*
Y-650468D01*
X892734D01*
Y-651484D01*
X891718D01*
Y-653516D01*
X892734D01*
Y-671016D02*
Y-672032D01*
X894766D01*
Y-671016D01*
X895782D01*
Y-668984D01*
X894766D01*
Y-667968D01*
X892734D01*
Y-668984D01*
X891718D01*
Y-671016D01*
X892734D01*
X910234D02*
Y-672032D01*
X912266D01*
Y-671016D01*
X913282D01*
Y-668984D01*
X912266D01*
Y-667968D01*
X910234D01*
Y-668984D01*
X909218D01*
Y-671016D01*
X910234D01*
X927734D02*
Y-672032D01*
X929766D01*
Y-671016D01*
X930782D01*
Y-668984D01*
X929766D01*
Y-667968D01*
X927734D01*
Y-668984D01*
X926718D01*
Y-671016D01*
X927734D01*
X962734D02*
Y-672032D01*
X964766D01*
Y-671016D01*
X965782D01*
Y-668984D01*
X964766D01*
Y-667968D01*
X962734D01*
Y-668984D01*
X961718D01*
Y-671016D01*
X962734D01*
X89218Y-169532D02*
X90234Y-167500D01*
X89218Y-165468D01*
X91250Y-166484D01*
X93282Y-165468D01*
X92266Y-167500D01*
X93282Y-169532D01*
X91250Y-168516D01*
X89218Y-169532D01*
X234218Y-137032D02*
X235234Y-135000D01*
X234218Y-132968D01*
X236250Y-133984D01*
X238282Y-132968D01*
X237266Y-135000D01*
X238282Y-137032D01*
X236250Y-136016D01*
X234218Y-137032D01*
X131718Y-144532D02*
X132734Y-142500D01*
X131718Y-140468D01*
X133750Y-141484D01*
X135782Y-140468D01*
X134766Y-142500D01*
X135782Y-144532D01*
X133750Y-143516D01*
X131718Y-144532D01*
X867734Y-921016D02*
Y-922032D01*
X869766D01*
Y-921016D01*
X870782D01*
Y-918984D01*
X869766D01*
Y-917968D01*
X867734D01*
Y-918984D01*
X866718D01*
Y-921016D01*
X867734D01*
X850234D02*
Y-922032D01*
X852266D01*
Y-921016D01*
X853282D01*
Y-918984D01*
X852266D01*
Y-917968D01*
X850234D01*
Y-918984D01*
X849218D01*
Y-921016D01*
X850234D01*
Y-903516D02*
Y-904532D01*
X852266D01*
Y-903516D01*
X853282D01*
Y-901484D01*
X852266D01*
Y-900468D01*
X850234D01*
Y-901484D01*
X849218D01*
Y-903516D01*
X850234D01*
X867734D02*
Y-904532D01*
X869766D01*
Y-903516D01*
X870782D01*
Y-901484D01*
X869766D01*
Y-900468D01*
X867734D01*
Y-901484D01*
X866718D01*
Y-903516D01*
X867734D01*
Y-886016D02*
Y-887032D01*
X869766D01*
Y-886016D01*
X870782D01*
Y-883984D01*
X869766D01*
Y-882968D01*
X867734D01*
Y-883984D01*
X866718D01*
Y-886016D01*
X867734D01*
X850234D02*
Y-887032D01*
X852266D01*
Y-886016D01*
X853282D01*
Y-883984D01*
X852266D01*
Y-882968D01*
X850234D01*
Y-883984D01*
X849218D01*
Y-886016D01*
X850234D01*
X867734Y-413516D02*
Y-414532D01*
X869766D01*
Y-413516D01*
X870782D01*
Y-411484D01*
X869766D01*
Y-410468D01*
X867734D01*
Y-411484D01*
X866718D01*
Y-413516D01*
X867734D01*
X421578Y-599208D02*
X422594Y-597176D01*
X421578Y-595144D01*
X423610Y-596160D01*
X425643Y-595144D01*
X424627Y-597176D01*
X425643Y-599208D01*
X423610Y-598192D01*
X421578Y-599208D01*
X537734Y-441016D02*
Y-442032D01*
X539766D01*
Y-441016D01*
X540782D01*
Y-438984D01*
X539766D01*
Y-437968D01*
X537734D01*
Y-438984D01*
X536718D01*
Y-441016D01*
X537734D01*
X955234Y-636016D02*
Y-637032D01*
X957266D01*
Y-636016D01*
X958282D01*
Y-633984D01*
X957266D01*
Y-632968D01*
X955234D01*
Y-633984D01*
X954218D01*
Y-636016D01*
X955234D01*
X927734Y-653516D02*
Y-654532D01*
X929766D01*
Y-653516D01*
X930782D01*
Y-651484D01*
X929766D01*
Y-650468D01*
X927734D01*
Y-651484D01*
X926718D01*
Y-653516D01*
X927734D01*
X980234Y-671016D02*
Y-672032D01*
X982266D01*
Y-671016D01*
X983282D01*
Y-668984D01*
X982266D01*
Y-667968D01*
X980234D01*
Y-668984D01*
X979218D01*
Y-671016D01*
X980234D01*
X920234Y-636016D02*
Y-637032D01*
X922266D01*
Y-636016D01*
X923282D01*
Y-633984D01*
X922266D01*
Y-632968D01*
X920234D01*
Y-633984D01*
X919218D01*
Y-636016D01*
X920234D01*
X937734D02*
Y-637032D01*
X939766D01*
Y-636016D01*
X940782D01*
Y-633984D01*
X939766D01*
Y-632968D01*
X937734D01*
Y-633984D01*
X936718D01*
Y-636016D01*
X937734D01*
X296718Y-134532D02*
X297734Y-132500D01*
X296718Y-130468D01*
X298750Y-131484D01*
X300782Y-130468D01*
X299766Y-132500D01*
X300782Y-134532D01*
X298750Y-133516D01*
X296718Y-134532D01*
X356718D02*
X357734Y-132500D01*
X356718Y-130468D01*
X358750Y-131484D01*
X360782Y-130468D01*
X359766Y-132500D01*
X360782Y-134532D01*
X358750Y-133516D01*
X356718Y-134532D01*
X626718Y-184532D02*
X627734Y-182500D01*
X626718Y-180468D01*
X628750Y-181484D01*
X630782Y-180468D01*
X629766Y-182500D01*
X630782Y-184532D01*
X628750Y-183516D01*
X626718Y-184532D01*
X916718Y-200762D02*
X917734Y-198730D01*
X916718Y-196698D01*
X918750Y-197714D01*
X920782Y-196698D01*
X919766Y-198730D01*
X920782Y-200762D01*
X918750Y-199746D01*
X916718Y-200762D01*
D124*
X349532Y-80000D02*
G03*
X349532Y-80000I-2032J0D01*
G01*
X708282Y-892500D02*
G03*
X708282Y-892500I-2032J0D01*
G01*
X154532Y-660000D02*
G03*
X154532Y-660000I-2032J0D01*
G01*
X104532Y-380000D02*
G03*
X104532Y-380000I-2032J0D01*
G01*
X999532D02*
G03*
X999532Y-380000I-2032J0D01*
G01*
X754532Y-80000D02*
G03*
X754532Y-80000I-2032J0D01*
G01*
M02*
