G04*
G04 #@! TF.GenerationSoftware,Altium Limited,Altium Designer,21.3.2 (30)*
G04*
G04 Layer_Physical_Order=2*
G04 Layer_Color=16711680*
%FSLAX44Y44*%
%MOMM*%
G71*
G04*
G04 #@! TF.SameCoordinates,3299A5E9-4645-4EFA-A6B2-4C4301D35EF0*
G04*
G04*
G04 #@! TF.FilePolarity,Positive*
G04*
G01*
G75*
%ADD11C,0.2000*%
%ADD106C,1.5240*%
%ADD114C,1.9000*%
%ADD115C,1.9500*%
%ADD116R,1.9500X1.9500*%
%ADD117C,1.7000*%
%ADD118R,1.7000X1.7000*%
%ADD119C,1.2700*%
G36*
X838712Y-10000D02*
X913750Y-84963D01*
X913750Y-102500D01*
X1015005Y-102500D01*
X1090000Y-177505D01*
Y-932500D01*
X8750D01*
X8750Y-178750D01*
X85000Y-102500D01*
X186250D01*
Y-85000D01*
X261250Y-10000D01*
X838712Y-10000D01*
D02*
G37*
%LPC*%
G36*
X754215Y-66976D02*
X750785D01*
X747473Y-67863D01*
X744503Y-69578D01*
X742078Y-72003D01*
X740363Y-74973D01*
X739476Y-78285D01*
Y-81715D01*
X740363Y-85027D01*
X742078Y-87997D01*
X744503Y-90422D01*
X747473Y-92136D01*
X750785Y-93024D01*
X754215D01*
X757527Y-92136D01*
X760497Y-90422D01*
X762922Y-87997D01*
X764636Y-85027D01*
X765524Y-81715D01*
Y-78285D01*
X764636Y-74973D01*
X762922Y-72003D01*
X760497Y-69578D01*
X757527Y-67863D01*
X754215Y-66976D01*
D02*
G37*
G36*
X349215D02*
X345785D01*
X342473Y-67863D01*
X339503Y-69578D01*
X337078Y-72003D01*
X335364Y-74973D01*
X334476Y-78285D01*
Y-81715D01*
X335364Y-85027D01*
X337078Y-87997D01*
X339503Y-90422D01*
X342473Y-92136D01*
X345785Y-93024D01*
X349215D01*
X352527Y-92136D01*
X355497Y-90422D01*
X357922Y-87997D01*
X359636Y-85027D01*
X360524Y-81715D01*
Y-78285D01*
X359636Y-74973D01*
X357922Y-72003D01*
X355497Y-69578D01*
X352527Y-67863D01*
X349215Y-66976D01*
D02*
G37*
G36*
X668358Y-137400D02*
X668290D01*
Y-146290D01*
X677180D01*
Y-146222D01*
X676488Y-143638D01*
X675150Y-141322D01*
X673258Y-139430D01*
X670942Y-138092D01*
X668358Y-137400D01*
D02*
G37*
G36*
X665750D02*
X665682D01*
X663098Y-138092D01*
X660782Y-139430D01*
X658890Y-141322D01*
X657552Y-143638D01*
X656860Y-146222D01*
Y-146290D01*
X665750D01*
Y-137400D01*
D02*
G37*
G36*
X744424Y-138416D02*
X742016D01*
X739691Y-139039D01*
X737606Y-140243D01*
X735903Y-141945D01*
X734699Y-144031D01*
X734076Y-146356D01*
Y-148764D01*
X734699Y-151089D01*
X735903Y-153174D01*
X737606Y-154877D01*
X739691Y-156081D01*
X742016Y-156704D01*
X744424D01*
X746749Y-156081D01*
X748835Y-154877D01*
X750537Y-153174D01*
X751741Y-151089D01*
X752364Y-148764D01*
Y-146356D01*
X751741Y-144031D01*
X750537Y-141945D01*
X748835Y-140243D01*
X746749Y-139039D01*
X744424Y-138416D01*
D02*
G37*
G36*
X719024D02*
X716616D01*
X714291Y-139039D01*
X712206Y-140243D01*
X710503Y-141945D01*
X709299Y-144031D01*
X708676Y-146356D01*
Y-148764D01*
X709299Y-151089D01*
X710503Y-153174D01*
X712206Y-154877D01*
X714291Y-156081D01*
X716616Y-156704D01*
X719024D01*
X721349Y-156081D01*
X723435Y-154877D01*
X725137Y-153174D01*
X726341Y-151089D01*
X726964Y-148764D01*
Y-146356D01*
X726341Y-144031D01*
X725137Y-141945D01*
X723435Y-140243D01*
X721349Y-139039D01*
X719024Y-138416D01*
D02*
G37*
G36*
X693624D02*
X691216D01*
X688891Y-139039D01*
X686805Y-140243D01*
X685103Y-141945D01*
X683899Y-144031D01*
X683276Y-146356D01*
Y-148764D01*
X683899Y-151089D01*
X685103Y-153174D01*
X686805Y-154877D01*
X688891Y-156081D01*
X691216Y-156704D01*
X693624D01*
X695949Y-156081D01*
X698035Y-154877D01*
X699737Y-153174D01*
X700941Y-151089D01*
X701564Y-148764D01*
Y-146356D01*
X700941Y-144031D01*
X699737Y-141945D01*
X698035Y-140243D01*
X695949Y-139039D01*
X693624Y-138416D01*
D02*
G37*
G36*
X617424D02*
X615016D01*
X612691Y-139039D01*
X610606Y-140243D01*
X608903Y-141945D01*
X607699Y-144031D01*
X607076Y-146356D01*
Y-148764D01*
X607699Y-151089D01*
X608903Y-153174D01*
X610606Y-154877D01*
X612691Y-156081D01*
X615016Y-156704D01*
X617424D01*
X619749Y-156081D01*
X621835Y-154877D01*
X623537Y-153174D01*
X624741Y-151089D01*
X625364Y-148764D01*
Y-146356D01*
X624741Y-144031D01*
X623537Y-141945D01*
X621835Y-140243D01*
X619749Y-139039D01*
X617424Y-138416D01*
D02*
G37*
G36*
X592024D02*
X589616D01*
X587291Y-139039D01*
X585205Y-140243D01*
X583503Y-141945D01*
X582299Y-144031D01*
X581676Y-146356D01*
Y-148764D01*
X582299Y-151089D01*
X583503Y-153174D01*
X585205Y-154877D01*
X587291Y-156081D01*
X589616Y-156704D01*
X592024D01*
X594350Y-156081D01*
X596435Y-154877D01*
X598137Y-153174D01*
X599341Y-151089D01*
X599964Y-148764D01*
Y-146356D01*
X599341Y-144031D01*
X598137Y-141945D01*
X596435Y-140243D01*
X594350Y-139039D01*
X592024Y-138416D01*
D02*
G37*
G36*
X487550Y-49927D02*
X280878D01*
X279893Y-50122D01*
X279058Y-50680D01*
X189812Y-139927D01*
X141212D01*
X141087Y-139461D01*
X140051Y-137665D01*
X138585Y-136199D01*
X136789Y-135163D01*
X134787Y-134626D01*
X132713D01*
X130711Y-135163D01*
X128915Y-136199D01*
X127449Y-137665D01*
X126413Y-139461D01*
X125876Y-141463D01*
Y-143537D01*
X126413Y-145539D01*
X127449Y-147335D01*
X128915Y-148801D01*
X130711Y-149837D01*
X132713Y-150374D01*
X134787D01*
X136789Y-149837D01*
X138585Y-148801D01*
X140051Y-147335D01*
X141087Y-145539D01*
X141212Y-145073D01*
X190878D01*
X191863Y-144878D01*
X192698Y-144320D01*
X281944Y-55073D01*
X486484D01*
X562847Y-131436D01*
Y-138783D01*
X561891Y-139039D01*
X559805Y-140243D01*
X558103Y-141945D01*
X556899Y-144031D01*
X556276Y-146356D01*
Y-148764D01*
X556899Y-151089D01*
X558103Y-153174D01*
X559805Y-154877D01*
X561891Y-156081D01*
X564216Y-156704D01*
X566624D01*
X568950Y-156081D01*
X571035Y-154877D01*
X572737Y-153174D01*
X573941Y-151089D01*
X574564Y-148764D01*
Y-146356D01*
X573941Y-144031D01*
X572737Y-141945D01*
X571035Y-140243D01*
X568950Y-139039D01*
X567994Y-138783D01*
Y-130370D01*
X567798Y-129386D01*
X567240Y-128551D01*
X489369Y-50680D01*
X488534Y-50122D01*
X487550Y-49927D01*
D02*
G37*
G36*
X464901Y-57427D02*
X327698D01*
X326713Y-57622D01*
X325878Y-58180D01*
X251632Y-132427D01*
X243712D01*
X243587Y-131961D01*
X242551Y-130165D01*
X241085Y-128699D01*
X239289Y-127663D01*
X237287Y-127126D01*
X235213D01*
X233211Y-127663D01*
X231415Y-128699D01*
X229949Y-130165D01*
X228913Y-131961D01*
X228376Y-133963D01*
Y-136037D01*
X228913Y-138039D01*
X229949Y-139835D01*
X231415Y-141301D01*
X233211Y-142337D01*
X235213Y-142874D01*
X237287D01*
X239289Y-142337D01*
X241085Y-141301D01*
X242551Y-139835D01*
X243587Y-138039D01*
X243712Y-137573D01*
X252698D01*
X253683Y-137378D01*
X254517Y-136820D01*
X328764Y-62573D01*
X463835D01*
X537447Y-136185D01*
Y-138783D01*
X536491Y-139039D01*
X534406Y-140243D01*
X532703Y-141945D01*
X531499Y-144031D01*
X530876Y-146356D01*
Y-148764D01*
X531499Y-151089D01*
X532703Y-153174D01*
X534406Y-154877D01*
X536491Y-156081D01*
X538816Y-156704D01*
X541224D01*
X543549Y-156081D01*
X545635Y-154877D01*
X547337Y-153174D01*
X548541Y-151089D01*
X549164Y-148764D01*
Y-146356D01*
X548541Y-144031D01*
X547337Y-141945D01*
X545635Y-140243D01*
X543549Y-139039D01*
X542593Y-138783D01*
Y-135119D01*
X542398Y-134134D01*
X541840Y-133299D01*
X466721Y-58180D01*
X465886Y-57622D01*
X464901Y-57427D01*
D02*
G37*
G36*
X515824Y-138416D02*
X513416D01*
X511091Y-139039D01*
X509006Y-140243D01*
X507303Y-141945D01*
X506099Y-144031D01*
X505476Y-146356D01*
Y-148764D01*
X506099Y-151089D01*
X507303Y-153174D01*
X509006Y-154877D01*
X511091Y-156081D01*
X513416Y-156704D01*
X515824D01*
X518149Y-156081D01*
X520235Y-154877D01*
X521937Y-153174D01*
X523141Y-151089D01*
X523764Y-148764D01*
Y-146356D01*
X523141Y-144031D01*
X521937Y-141945D01*
X520235Y-140243D01*
X518149Y-139039D01*
X515824Y-138416D01*
D02*
G37*
G36*
X473752Y-112427D02*
X301381D01*
X300396Y-112622D01*
X299561Y-113180D01*
X247815Y-164926D01*
X98712D01*
X98587Y-164461D01*
X97551Y-162665D01*
X96085Y-161199D01*
X94289Y-160163D01*
X92287Y-159626D01*
X90213D01*
X88211Y-160163D01*
X86415Y-161199D01*
X84949Y-162665D01*
X83913Y-164461D01*
X83376Y-166463D01*
Y-168537D01*
X83913Y-170539D01*
X84949Y-172335D01*
X86415Y-173801D01*
X88211Y-174837D01*
X90213Y-175374D01*
X92287D01*
X94289Y-174837D01*
X96085Y-173801D01*
X97551Y-172335D01*
X98587Y-170539D01*
X98712Y-170073D01*
X248881D01*
X249865Y-169878D01*
X250700Y-169320D01*
X289929Y-130091D01*
X291068Y-130748D01*
X290876Y-131463D01*
Y-133537D01*
X291413Y-135539D01*
X292449Y-137335D01*
X293915Y-138801D01*
X295711Y-139837D01*
X297713Y-140374D01*
X299787D01*
X301789Y-139837D01*
X303585Y-138801D01*
X305051Y-137335D01*
X306087Y-135539D01*
X306212Y-135073D01*
X315254D01*
X316239Y-134878D01*
X317074Y-134320D01*
X326210Y-125183D01*
X353302D01*
X353661Y-126453D01*
X352449Y-127665D01*
X351413Y-129461D01*
X350876Y-131463D01*
Y-133537D01*
X351413Y-135539D01*
X352449Y-137335D01*
X353915Y-138801D01*
X355711Y-139837D01*
X357713Y-140374D01*
X359787D01*
X361789Y-139837D01*
X363585Y-138801D01*
X365051Y-137335D01*
X366087Y-135539D01*
X366624Y-133537D01*
Y-131796D01*
X429957D01*
X435747Y-137586D01*
X435593Y-138851D01*
X434891Y-139039D01*
X432805Y-140243D01*
X431103Y-141945D01*
X429899Y-144031D01*
X429276Y-146356D01*
Y-148764D01*
X429899Y-151089D01*
X431103Y-153174D01*
X432805Y-154877D01*
X434891Y-156081D01*
X437216Y-156704D01*
X439624D01*
X441950Y-156081D01*
X444035Y-154877D01*
X445737Y-153174D01*
X446941Y-151089D01*
X447564Y-148764D01*
Y-146356D01*
X446941Y-144031D01*
X445737Y-141945D01*
X444035Y-140243D01*
X441950Y-139039D01*
X440993Y-138783D01*
Y-136620D01*
X440798Y-135635D01*
X440240Y-134800D01*
X432843Y-127403D01*
X432008Y-126845D01*
X431023Y-126649D01*
X365103D01*
X364873Y-126453D01*
X365033Y-125716D01*
X365430Y-125183D01*
X451374D01*
X461247Y-135056D01*
Y-138783D01*
X460291Y-139039D01*
X458205Y-140243D01*
X456503Y-141945D01*
X455299Y-144031D01*
X454676Y-146356D01*
Y-148764D01*
X455299Y-151089D01*
X456503Y-153174D01*
X458205Y-154877D01*
X460291Y-156081D01*
X462616Y-156704D01*
X465024D01*
X467350Y-156081D01*
X469435Y-154877D01*
X471137Y-153174D01*
X472341Y-151089D01*
X472964Y-148764D01*
Y-146356D01*
X472341Y-144031D01*
X471137Y-141945D01*
X469435Y-140243D01*
X467350Y-139039D01*
X466394Y-138783D01*
Y-133990D01*
X466198Y-133006D01*
X465640Y-132171D01*
X454259Y-120790D01*
X453424Y-120232D01*
X452440Y-120036D01*
X325144D01*
X324160Y-120232D01*
X323325Y-120790D01*
X314188Y-129927D01*
X306212D01*
X306087Y-129461D01*
X305051Y-127665D01*
X303585Y-126199D01*
X301789Y-125163D01*
X299787Y-124626D01*
X297713D01*
X296998Y-124818D01*
X296341Y-123679D01*
X302446Y-117573D01*
X472686D01*
X486647Y-131534D01*
Y-138783D01*
X485691Y-139039D01*
X483605Y-140243D01*
X481903Y-141945D01*
X480699Y-144031D01*
X480076Y-146356D01*
Y-148764D01*
X480699Y-151089D01*
X481903Y-153174D01*
X483605Y-154877D01*
X485691Y-156081D01*
X488016Y-156704D01*
X490424D01*
X492749Y-156081D01*
X494835Y-154877D01*
X496537Y-153174D01*
X497741Y-151089D01*
X498364Y-148764D01*
Y-146356D01*
X497741Y-144031D01*
X496537Y-141945D01*
X494835Y-140243D01*
X492749Y-139039D01*
X491794Y-138783D01*
Y-130469D01*
X491598Y-129484D01*
X491040Y-128649D01*
X475571Y-113180D01*
X474736Y-112622D01*
X473752Y-112427D01*
D02*
G37*
G36*
X414224Y-138416D02*
X411816D01*
X409491Y-139039D01*
X407406Y-140243D01*
X405703Y-141945D01*
X404499Y-144031D01*
X403876Y-146356D01*
Y-148764D01*
X404499Y-151089D01*
X405703Y-153174D01*
X407406Y-154877D01*
X409491Y-156081D01*
X411816Y-156704D01*
X414224D01*
X416549Y-156081D01*
X418635Y-154877D01*
X420337Y-153174D01*
X421541Y-151089D01*
X422164Y-148764D01*
Y-146356D01*
X421541Y-144031D01*
X420337Y-141945D01*
X418635Y-140243D01*
X416549Y-139039D01*
X414224Y-138416D01*
D02*
G37*
G36*
X677180Y-148830D02*
X668290D01*
Y-157720D01*
X668358D01*
X670942Y-157028D01*
X673258Y-155690D01*
X675150Y-153798D01*
X676488Y-151482D01*
X677180Y-148898D01*
Y-148830D01*
D02*
G37*
G36*
X665750D02*
X656860D01*
Y-148898D01*
X657552Y-151482D01*
X658890Y-153798D01*
X660782Y-155690D01*
X663098Y-157028D01*
X665682Y-157720D01*
X665750D01*
Y-148830D01*
D02*
G37*
G36*
X388824Y-138416D02*
X386416D01*
X384091Y-139039D01*
X382006Y-140243D01*
X380303Y-141945D01*
X379099Y-144031D01*
X378476Y-146356D01*
Y-148764D01*
X379099Y-151089D01*
X380303Y-153174D01*
X382006Y-154877D01*
X384091Y-156081D01*
X385047Y-156337D01*
Y-161914D01*
X385243Y-162899D01*
X385800Y-163734D01*
X406386Y-184320D01*
X407221Y-184878D01*
X408206Y-185073D01*
X621288D01*
X621413Y-185539D01*
X622449Y-187335D01*
X623915Y-188801D01*
X625711Y-189837D01*
X627713Y-190374D01*
X629787D01*
X631789Y-189837D01*
X633585Y-188801D01*
X635051Y-187335D01*
X636087Y-185539D01*
X636624Y-183537D01*
Y-181463D01*
X636087Y-179461D01*
X635051Y-177665D01*
X633585Y-176199D01*
X631789Y-175163D01*
X629787Y-174626D01*
X627713D01*
X625711Y-175163D01*
X623915Y-176199D01*
X622449Y-177665D01*
X621413Y-179461D01*
X621288Y-179926D01*
X409272D01*
X390193Y-160848D01*
Y-156337D01*
X391149Y-156081D01*
X393235Y-154877D01*
X394937Y-153174D01*
X396141Y-151089D01*
X396764Y-148764D01*
Y-146356D01*
X396141Y-144031D01*
X394937Y-141945D01*
X393235Y-140243D01*
X391149Y-139039D01*
X388824Y-138416D01*
D02*
G37*
G36*
X642824D02*
X640416D01*
X638091Y-139039D01*
X636006Y-140243D01*
X634303Y-141945D01*
X633099Y-144031D01*
X632476Y-146356D01*
Y-148764D01*
X633099Y-151089D01*
X634303Y-153174D01*
X636006Y-154877D01*
X638091Y-156081D01*
X639047Y-156337D01*
Y-159066D01*
X639243Y-160051D01*
X639800Y-160886D01*
X643234Y-164320D01*
X644069Y-164878D01*
X645053Y-165074D01*
X898118D01*
X916177Y-183132D01*
Y-191268D01*
X915711Y-191393D01*
X913915Y-192429D01*
X912449Y-193895D01*
X911413Y-195691D01*
X910876Y-197693D01*
Y-199767D01*
X911413Y-201769D01*
X912449Y-203565D01*
X913915Y-205031D01*
X915711Y-206067D01*
X917713Y-206604D01*
X919787D01*
X921789Y-206067D01*
X923585Y-205031D01*
X925051Y-203565D01*
X926087Y-201769D01*
X926624Y-199767D01*
Y-197693D01*
X926087Y-195691D01*
X925051Y-193895D01*
X923585Y-192429D01*
X921789Y-191393D01*
X921323Y-191268D01*
Y-182066D01*
X921128Y-181081D01*
X920570Y-180246D01*
X901004Y-160680D01*
X900169Y-160122D01*
X899184Y-159927D01*
X646120D01*
X644193Y-158000D01*
Y-156337D01*
X645150Y-156081D01*
X647235Y-154877D01*
X648937Y-153174D01*
X650141Y-151089D01*
X650764Y-148764D01*
Y-146356D01*
X650141Y-144031D01*
X648937Y-141945D01*
X647235Y-140243D01*
X645150Y-139039D01*
X642824Y-138416D01*
D02*
G37*
G36*
X719158Y-289800D02*
X719090D01*
Y-298690D01*
X727980D01*
Y-298622D01*
X727288Y-296038D01*
X725950Y-293722D01*
X724058Y-291830D01*
X721742Y-290492D01*
X719158Y-289800D01*
D02*
G37*
G36*
X716550D02*
X716482D01*
X713898Y-290492D01*
X711582Y-291830D01*
X709690Y-293722D01*
X708352Y-296038D01*
X707660Y-298622D01*
Y-298690D01*
X716550D01*
Y-289800D01*
D02*
G37*
G36*
X744424Y-290816D02*
X742016D01*
X739691Y-291439D01*
X737606Y-292643D01*
X735903Y-294345D01*
X734699Y-296430D01*
X734076Y-298756D01*
Y-301164D01*
X734699Y-303489D01*
X735903Y-305574D01*
X737606Y-307277D01*
X739691Y-308481D01*
X742016Y-309104D01*
X744424D01*
X746749Y-308481D01*
X748835Y-307277D01*
X750537Y-305574D01*
X751741Y-303489D01*
X752364Y-301164D01*
Y-298756D01*
X751741Y-296430D01*
X750537Y-294345D01*
X748835Y-292643D01*
X746749Y-291439D01*
X744424Y-290816D01*
D02*
G37*
G36*
X693624D02*
X691216D01*
X688891Y-291439D01*
X686805Y-292643D01*
X685103Y-294345D01*
X683899Y-296430D01*
X683276Y-298756D01*
Y-301164D01*
X683899Y-303489D01*
X685103Y-305574D01*
X686805Y-307277D01*
X688891Y-308481D01*
X691216Y-309104D01*
X693624D01*
X695949Y-308481D01*
X698035Y-307277D01*
X699737Y-305574D01*
X700941Y-303489D01*
X701564Y-301164D01*
Y-298756D01*
X700941Y-296430D01*
X699737Y-294345D01*
X698035Y-292643D01*
X695949Y-291439D01*
X693624Y-290816D01*
D02*
G37*
G36*
X668224D02*
X665816D01*
X663491Y-291439D01*
X661405Y-292643D01*
X659703Y-294345D01*
X658499Y-296430D01*
X657876Y-298756D01*
Y-301164D01*
X658499Y-303489D01*
X659703Y-305574D01*
X661405Y-307277D01*
X663491Y-308481D01*
X665816Y-309104D01*
X668224D01*
X670549Y-308481D01*
X672635Y-307277D01*
X674337Y-305574D01*
X675541Y-303489D01*
X676164Y-301164D01*
Y-298756D01*
X675541Y-296430D01*
X674337Y-294345D01*
X672635Y-292643D01*
X670549Y-291439D01*
X668224Y-290816D01*
D02*
G37*
G36*
X642824D02*
X640416D01*
X638091Y-291439D01*
X636006Y-292643D01*
X634303Y-294345D01*
X633099Y-296430D01*
X632476Y-298756D01*
Y-301164D01*
X633099Y-303489D01*
X634303Y-305574D01*
X636006Y-307277D01*
X638091Y-308481D01*
X640416Y-309104D01*
X642824D01*
X645150Y-308481D01*
X647235Y-307277D01*
X648937Y-305574D01*
X650141Y-303489D01*
X650764Y-301164D01*
Y-298756D01*
X650141Y-296430D01*
X648937Y-294345D01*
X647235Y-292643D01*
X645150Y-291439D01*
X642824Y-290816D01*
D02*
G37*
G36*
X617424D02*
X615016D01*
X612691Y-291439D01*
X610606Y-292643D01*
X608903Y-294345D01*
X607699Y-296430D01*
X607076Y-298756D01*
Y-301164D01*
X607699Y-303489D01*
X608903Y-305574D01*
X610606Y-307277D01*
X612691Y-308481D01*
X615016Y-309104D01*
X617424D01*
X619749Y-308481D01*
X621835Y-307277D01*
X623537Y-305574D01*
X624741Y-303489D01*
X625364Y-301164D01*
Y-298756D01*
X624741Y-296430D01*
X623537Y-294345D01*
X621835Y-292643D01*
X619749Y-291439D01*
X617424Y-290816D01*
D02*
G37*
G36*
X541224D02*
X538816D01*
X536491Y-291439D01*
X534406Y-292643D01*
X532703Y-294345D01*
X531499Y-296430D01*
X530876Y-298756D01*
Y-301164D01*
X531499Y-303489D01*
X532703Y-305574D01*
X534406Y-307277D01*
X536491Y-308481D01*
X538816Y-309104D01*
X541224D01*
X543549Y-308481D01*
X545635Y-307277D01*
X547337Y-305574D01*
X548541Y-303489D01*
X549164Y-301164D01*
Y-298756D01*
X548541Y-296430D01*
X547337Y-294345D01*
X545635Y-292643D01*
X543549Y-291439D01*
X541224Y-290816D01*
D02*
G37*
G36*
X515824D02*
X513416D01*
X511091Y-291439D01*
X509006Y-292643D01*
X507303Y-294345D01*
X506099Y-296430D01*
X505476Y-298756D01*
Y-301164D01*
X506099Y-303489D01*
X507303Y-305574D01*
X509006Y-307277D01*
X511091Y-308481D01*
X513416Y-309104D01*
X515824D01*
X518149Y-308481D01*
X520235Y-307277D01*
X521937Y-305574D01*
X523141Y-303489D01*
X523764Y-301164D01*
Y-298756D01*
X523141Y-296430D01*
X521937Y-294345D01*
X520235Y-292643D01*
X518149Y-291439D01*
X515824Y-290816D01*
D02*
G37*
G36*
X490424D02*
X488016D01*
X485691Y-291439D01*
X483605Y-292643D01*
X481903Y-294345D01*
X480699Y-296430D01*
X480076Y-298756D01*
Y-301164D01*
X480699Y-303489D01*
X481903Y-305574D01*
X483605Y-307277D01*
X485691Y-308481D01*
X488016Y-309104D01*
X490424D01*
X492749Y-308481D01*
X494835Y-307277D01*
X496537Y-305574D01*
X497741Y-303489D01*
X498364Y-301164D01*
Y-298756D01*
X497741Y-296430D01*
X496537Y-294345D01*
X494835Y-292643D01*
X492749Y-291439D01*
X490424Y-290816D01*
D02*
G37*
G36*
X465024D02*
X462616D01*
X460291Y-291439D01*
X458205Y-292643D01*
X456503Y-294345D01*
X455299Y-296430D01*
X454676Y-298756D01*
Y-301164D01*
X455299Y-303489D01*
X456503Y-305574D01*
X458205Y-307277D01*
X460291Y-308481D01*
X462616Y-309104D01*
X465024D01*
X467350Y-308481D01*
X469435Y-307277D01*
X471137Y-305574D01*
X472341Y-303489D01*
X472964Y-301164D01*
Y-298756D01*
X472341Y-296430D01*
X471137Y-294345D01*
X469435Y-292643D01*
X467350Y-291439D01*
X465024Y-290816D01*
D02*
G37*
G36*
X439624D02*
X437216D01*
X434891Y-291439D01*
X432805Y-292643D01*
X431103Y-294345D01*
X429899Y-296430D01*
X429276Y-298756D01*
Y-301164D01*
X429899Y-303489D01*
X431103Y-305574D01*
X432805Y-307277D01*
X434891Y-308481D01*
X437216Y-309104D01*
X439624D01*
X441950Y-308481D01*
X444035Y-307277D01*
X445737Y-305574D01*
X446941Y-303489D01*
X447564Y-301164D01*
Y-298756D01*
X446941Y-296430D01*
X445737Y-294345D01*
X444035Y-292643D01*
X441950Y-291439D01*
X439624Y-290816D01*
D02*
G37*
G36*
X414224D02*
X411816D01*
X409491Y-291439D01*
X407406Y-292643D01*
X405703Y-294345D01*
X404499Y-296430D01*
X403876Y-298756D01*
Y-301164D01*
X404499Y-303489D01*
X405703Y-305574D01*
X407406Y-307277D01*
X409491Y-308481D01*
X411816Y-309104D01*
X414224D01*
X416549Y-308481D01*
X418635Y-307277D01*
X420337Y-305574D01*
X421541Y-303489D01*
X422164Y-301164D01*
Y-298756D01*
X421541Y-296430D01*
X420337Y-294345D01*
X418635Y-292643D01*
X416549Y-291439D01*
X414224Y-290816D01*
D02*
G37*
G36*
X388824D02*
X386416D01*
X384091Y-291439D01*
X382006Y-292643D01*
X380303Y-294345D01*
X379099Y-296430D01*
X378476Y-298756D01*
Y-301164D01*
X379099Y-303489D01*
X380303Y-305574D01*
X382006Y-307277D01*
X384091Y-308481D01*
X386416Y-309104D01*
X388824D01*
X391149Y-308481D01*
X393235Y-307277D01*
X394937Y-305574D01*
X396141Y-303489D01*
X396764Y-301164D01*
Y-298756D01*
X396141Y-296430D01*
X394937Y-294345D01*
X393235Y-292643D01*
X391149Y-291439D01*
X388824Y-290816D01*
D02*
G37*
G36*
X727980Y-301230D02*
X719090D01*
Y-310120D01*
X719158D01*
X721742Y-309428D01*
X724058Y-308090D01*
X725950Y-306198D01*
X727288Y-303882D01*
X727980Y-301298D01*
Y-301230D01*
D02*
G37*
G36*
X716550D02*
X707660D01*
Y-301298D01*
X708352Y-303882D01*
X709690Y-306198D01*
X711582Y-308090D01*
X713898Y-309428D01*
X716482Y-310120D01*
X716550D01*
Y-301230D01*
D02*
G37*
G36*
X950488Y-317340D02*
X950420D01*
Y-326230D01*
X959310D01*
Y-326162D01*
X958618Y-323578D01*
X957280Y-321262D01*
X955388Y-319370D01*
X953072Y-318032D01*
X950488Y-317340D01*
D02*
G37*
G36*
X947880D02*
X947812D01*
X945228Y-318032D01*
X942912Y-319370D01*
X941020Y-321262D01*
X939682Y-323578D01*
X938990Y-326162D01*
Y-326230D01*
X947880D01*
Y-317340D01*
D02*
G37*
G36*
X232835Y-318260D02*
X232520D01*
Y-329030D01*
X243290D01*
Y-328715D01*
X242470Y-325653D01*
X240884Y-322907D01*
X238643Y-320666D01*
X235897Y-319081D01*
X232835Y-318260D01*
D02*
G37*
G36*
X229980D02*
X229665D01*
X226603Y-319081D01*
X223857Y-320666D01*
X221616Y-322907D01*
X220030Y-325653D01*
X219210Y-328715D01*
Y-329030D01*
X229980D01*
Y-318260D01*
D02*
G37*
G36*
X975754Y-318356D02*
X973346D01*
X971021Y-318979D01*
X968935Y-320183D01*
X967233Y-321885D01*
X966029Y-323970D01*
X965406Y-326296D01*
Y-328704D01*
X966029Y-331030D01*
X967233Y-333115D01*
X968935Y-334817D01*
X971021Y-336021D01*
X973346Y-336644D01*
X975754D01*
X978080Y-336021D01*
X980164Y-334817D01*
X981867Y-333115D01*
X983071Y-331030D01*
X983694Y-328704D01*
Y-326296D01*
X983071Y-323970D01*
X981867Y-321885D01*
X980164Y-320183D01*
X978080Y-318979D01*
X975754Y-318356D01*
D02*
G37*
G36*
X616037Y-237126D02*
X613963D01*
X611961Y-237663D01*
X610165Y-238699D01*
X608699Y-240165D01*
X607663Y-241961D01*
X607126Y-243963D01*
Y-246037D01*
X607663Y-248039D01*
X608699Y-249835D01*
X610165Y-251301D01*
X611961Y-252337D01*
X613963Y-252874D01*
X616037D01*
X618039Y-252337D01*
X619835Y-251301D01*
X621301Y-249835D01*
X622337Y-248039D01*
X622462Y-247573D01*
X881434D01*
X921177Y-287316D01*
Y-318723D01*
X920220Y-318979D01*
X918136Y-320183D01*
X916433Y-321885D01*
X915229Y-323970D01*
X914606Y-326296D01*
Y-328704D01*
X915229Y-331030D01*
X916433Y-333115D01*
X918136Y-334817D01*
X920220Y-336021D01*
X922546Y-336644D01*
X924954D01*
X927280Y-336021D01*
X929364Y-334817D01*
X931067Y-333115D01*
X932271Y-331030D01*
X932894Y-328704D01*
Y-326296D01*
X932271Y-323970D01*
X931067Y-321885D01*
X929364Y-320183D01*
X927280Y-318979D01*
X926323Y-318723D01*
Y-286250D01*
X926128Y-285265D01*
X925570Y-284430D01*
X884320Y-243180D01*
X883485Y-242622D01*
X882500Y-242426D01*
X622462D01*
X622337Y-241961D01*
X621301Y-240165D01*
X619835Y-238699D01*
X618039Y-237663D01*
X616037Y-237126D01*
D02*
G37*
G36*
X899554Y-318356D02*
X897146D01*
X894820Y-318979D01*
X892736Y-320183D01*
X891033Y-321885D01*
X889829Y-323970D01*
X889206Y-326296D01*
Y-328704D01*
X889829Y-331030D01*
X891033Y-333115D01*
X892736Y-334817D01*
X894820Y-336021D01*
X897146Y-336644D01*
X899554D01*
X901880Y-336021D01*
X903964Y-334817D01*
X905667Y-333115D01*
X906871Y-331030D01*
X907494Y-328704D01*
Y-326296D01*
X906871Y-323970D01*
X905667Y-321885D01*
X903964Y-320183D01*
X901880Y-318979D01*
X899554Y-318356D01*
D02*
G37*
G36*
X959310Y-328770D02*
X950420D01*
Y-337660D01*
X950488D01*
X953072Y-336968D01*
X955388Y-335630D01*
X957280Y-333738D01*
X958618Y-331422D01*
X959310Y-328838D01*
Y-328770D01*
D02*
G37*
G36*
X947880D02*
X938990D01*
Y-328838D01*
X939682Y-331422D01*
X941020Y-333738D01*
X942912Y-335630D01*
X945228Y-336968D01*
X947812Y-337660D01*
X947880D01*
Y-328770D01*
D02*
G37*
G36*
X243290Y-331570D02*
X232520D01*
Y-342340D01*
X232835D01*
X235897Y-341519D01*
X238643Y-339934D01*
X240884Y-337693D01*
X242470Y-334947D01*
X243290Y-331885D01*
Y-331570D01*
D02*
G37*
G36*
X229980D02*
X219210D01*
Y-331885D01*
X220030Y-334947D01*
X221616Y-337693D01*
X223857Y-339934D01*
X226603Y-341519D01*
X229665Y-342340D01*
X229980D01*
Y-331570D01*
D02*
G37*
G36*
X200950Y-247427D02*
X120000D01*
X119015Y-247622D01*
X118180Y-248180D01*
X108284Y-258077D01*
X104038D01*
X103801Y-257665D01*
X102335Y-256199D01*
X100539Y-255163D01*
X98537Y-254626D01*
X96463D01*
X94461Y-255163D01*
X92665Y-256199D01*
X91199Y-257665D01*
X90163Y-259461D01*
X89626Y-261463D01*
Y-263537D01*
X90163Y-265539D01*
X91199Y-267335D01*
X92665Y-268801D01*
X94461Y-269837D01*
X96463Y-270374D01*
X98537D01*
X100539Y-269837D01*
X102335Y-268801D01*
X103801Y-267335D01*
X104837Y-265539D01*
X105374Y-263537D01*
Y-263223D01*
X109350D01*
X110335Y-263028D01*
X111170Y-262470D01*
X121066Y-252574D01*
X199884D01*
X271848Y-324537D01*
X270977Y-326045D01*
X270226Y-328849D01*
Y-331751D01*
X270977Y-334555D01*
X272429Y-337069D01*
X274481Y-339121D01*
X276995Y-340573D01*
X279799Y-341324D01*
X282701D01*
X285505Y-340573D01*
X288019Y-339121D01*
X290071Y-337069D01*
X291523Y-334555D01*
X291973Y-332873D01*
X333997D01*
X342834Y-341710D01*
X343669Y-342267D01*
X344653Y-342463D01*
X540110D01*
X541095Y-342267D01*
X541930Y-341710D01*
X567240Y-316400D01*
X567798Y-315565D01*
X567994Y-314580D01*
Y-308737D01*
X568950Y-308481D01*
X571035Y-307277D01*
X572737Y-305574D01*
X573941Y-303489D01*
X574564Y-301164D01*
Y-298756D01*
X573941Y-296430D01*
X572737Y-294345D01*
X571035Y-292643D01*
X568950Y-291439D01*
X566624Y-290816D01*
X564216D01*
X561891Y-291439D01*
X559805Y-292643D01*
X558103Y-294345D01*
X556899Y-296430D01*
X556276Y-298756D01*
Y-301164D01*
X556899Y-303489D01*
X558103Y-305574D01*
X559805Y-307277D01*
X561891Y-308481D01*
X562847Y-308737D01*
Y-313514D01*
X539044Y-337317D01*
X345719D01*
X336883Y-328480D01*
X336048Y-327922D01*
X335063Y-327727D01*
X291973D01*
X291523Y-326045D01*
X290071Y-323531D01*
X288019Y-321479D01*
X285505Y-320027D01*
X282701Y-319276D01*
X279799D01*
X276995Y-320027D01*
X275487Y-320898D01*
X202770Y-248180D01*
X201935Y-247622D01*
X200950Y-247427D01*
D02*
G37*
G36*
X131037Y-254626D02*
X128963D01*
X126961Y-255163D01*
X125165Y-256199D01*
X123699Y-257665D01*
X122663Y-259461D01*
X122126Y-261463D01*
Y-263537D01*
X122663Y-265539D01*
X123699Y-267335D01*
X125165Y-268801D01*
X126961Y-269837D01*
X127427Y-269962D01*
Y-280000D01*
X127622Y-280985D01*
X128180Y-281820D01*
X143180Y-296820D01*
X144015Y-297378D01*
X145000Y-297573D01*
X168934D01*
X178677Y-307316D01*
Y-319577D01*
X176995Y-320027D01*
X174481Y-321479D01*
X172429Y-323531D01*
X170977Y-326045D01*
X170226Y-328849D01*
Y-331751D01*
X170977Y-334555D01*
X172429Y-337069D01*
X174481Y-339121D01*
X176995Y-340573D01*
X178677Y-341023D01*
Y-343750D01*
X178872Y-344735D01*
X179430Y-345570D01*
X185680Y-351820D01*
X186515Y-352378D01*
X187500Y-352574D01*
X552500D01*
X553485Y-352378D01*
X554320Y-351820D01*
X592640Y-313500D01*
X593198Y-312665D01*
X593394Y-311680D01*
Y-308737D01*
X594350Y-308481D01*
X596435Y-307277D01*
X598137Y-305574D01*
X599341Y-303489D01*
X599964Y-301164D01*
Y-298756D01*
X599341Y-296430D01*
X598137Y-294345D01*
X596435Y-292643D01*
X594350Y-291439D01*
X592024Y-290816D01*
X589616D01*
X587291Y-291439D01*
X585205Y-292643D01*
X583503Y-294345D01*
X582299Y-296430D01*
X581676Y-298756D01*
Y-301164D01*
X582299Y-303489D01*
X583503Y-305574D01*
X585205Y-307277D01*
X587291Y-308481D01*
X588247Y-308737D01*
Y-310614D01*
X551434Y-347427D01*
X188566D01*
X183824Y-342684D01*
Y-341023D01*
X185505Y-340573D01*
X188019Y-339121D01*
X190071Y-337069D01*
X191523Y-334555D01*
X192274Y-331751D01*
Y-328849D01*
X191523Y-326045D01*
X190071Y-323531D01*
X188019Y-321479D01*
X185505Y-320027D01*
X183824Y-319577D01*
Y-306250D01*
X183628Y-305265D01*
X183070Y-304430D01*
X171820Y-293180D01*
X170985Y-292622D01*
X170000Y-292426D01*
X146066D01*
X132573Y-278934D01*
Y-269962D01*
X133039Y-269837D01*
X134835Y-268801D01*
X136301Y-267335D01*
X137337Y-265539D01*
X137874Y-263537D01*
Y-261463D01*
X137337Y-259461D01*
X136301Y-257665D01*
X134835Y-256199D01*
X133039Y-255163D01*
X131037Y-254626D01*
D02*
G37*
G36*
X999215Y-366976D02*
X995785D01*
X992473Y-367864D01*
X989503Y-369578D01*
X987078Y-372003D01*
X985364Y-374973D01*
X984476Y-378285D01*
Y-381715D01*
X985364Y-385027D01*
X987078Y-387997D01*
X989503Y-390422D01*
X992473Y-392136D01*
X995785Y-393024D01*
X999215D01*
X1002527Y-392136D01*
X1005497Y-390422D01*
X1007922Y-387997D01*
X1009637Y-385027D01*
X1010524Y-381715D01*
Y-378285D01*
X1009637Y-374973D01*
X1007922Y-372003D01*
X1005497Y-369578D01*
X1002527Y-367864D01*
X999215Y-366976D01*
D02*
G37*
G36*
X104215D02*
X100785D01*
X97473Y-367864D01*
X94503Y-369578D01*
X92078Y-372003D01*
X90364Y-374973D01*
X89476Y-378285D01*
Y-381715D01*
X90364Y-385027D01*
X92078Y-387997D01*
X94503Y-390422D01*
X97473Y-392136D01*
X100785Y-393024D01*
X104215D01*
X107527Y-392136D01*
X110497Y-390422D01*
X112922Y-387997D01*
X114636Y-385027D01*
X115524Y-381715D01*
Y-378285D01*
X114636Y-374973D01*
X112922Y-372003D01*
X110497Y-369578D01*
X107527Y-367864D01*
X104215Y-366976D01*
D02*
G37*
G36*
X349787Y-392126D02*
X347713D01*
X345711Y-392663D01*
X343915Y-393699D01*
X342449Y-395165D01*
X341413Y-396961D01*
X341288Y-397426D01*
X177500D01*
X176515Y-397622D01*
X175680Y-398180D01*
X104747Y-469113D01*
X104189Y-469948D01*
X103993Y-470933D01*
Y-484498D01*
X102215Y-484975D01*
X99644Y-486459D01*
X97545Y-488558D01*
X96061Y-491129D01*
X95293Y-493996D01*
Y-496964D01*
X96061Y-499832D01*
X97545Y-502403D01*
X99644Y-504502D01*
X102215Y-505986D01*
X105083Y-506754D01*
X108051D01*
X110918Y-505986D01*
X113489Y-504502D01*
X115588Y-502403D01*
X117072Y-499832D01*
X117841Y-496964D01*
Y-493996D01*
X117072Y-491129D01*
X115588Y-488558D01*
X113489Y-486459D01*
X110918Y-484975D01*
X109140Y-484498D01*
Y-471999D01*
X178566Y-402573D01*
X341288D01*
X341413Y-403039D01*
X342449Y-404835D01*
X343915Y-406301D01*
X345711Y-407337D01*
X347713Y-407874D01*
X349787D01*
X351789Y-407337D01*
X353585Y-406301D01*
X355051Y-404835D01*
X356087Y-403039D01*
X356624Y-401037D01*
Y-398963D01*
X356087Y-396961D01*
X355051Y-395165D01*
X353585Y-393699D01*
X351789Y-392663D01*
X349787Y-392126D01*
D02*
G37*
G36*
X409787D02*
X407713D01*
X405711Y-392663D01*
X403915Y-393699D01*
X402449Y-395165D01*
X401413Y-396961D01*
X400876Y-398963D01*
Y-401037D01*
X401413Y-403039D01*
X402449Y-404835D01*
X403915Y-406301D01*
X405711Y-407337D01*
X406176Y-407462D01*
Y-412684D01*
X384747Y-434114D01*
X384189Y-434948D01*
X383993Y-435933D01*
Y-484498D01*
X382215Y-484975D01*
X379645Y-486459D01*
X377545Y-488558D01*
X376061Y-491129D01*
X375293Y-493996D01*
Y-496964D01*
X376061Y-499832D01*
X377545Y-502403D01*
X379645Y-504502D01*
X382215Y-505986D01*
X385083Y-506754D01*
X388051D01*
X390918Y-505986D01*
X393489Y-504502D01*
X395588Y-502403D01*
X397072Y-499832D01*
X397841Y-496964D01*
Y-493996D01*
X397072Y-491129D01*
X395588Y-488558D01*
X393489Y-486459D01*
X390918Y-484975D01*
X389140Y-484498D01*
Y-436999D01*
X410570Y-415570D01*
X411128Y-414735D01*
X411323Y-413750D01*
Y-407462D01*
X411789Y-407337D01*
X413585Y-406301D01*
X415051Y-404835D01*
X416087Y-403039D01*
X416624Y-401037D01*
Y-398963D01*
X416087Y-396961D01*
X415051Y-395165D01*
X413585Y-393699D01*
X411789Y-392663D01*
X409787Y-392126D01*
D02*
G37*
G36*
X347841Y-484206D02*
X325293D01*
Y-506754D01*
X347841D01*
Y-484206D01*
D02*
G37*
G36*
X379787Y-392126D02*
X377713D01*
X375711Y-392663D01*
X373915Y-393699D01*
X372449Y-395165D01*
X371413Y-396961D01*
X370876Y-398963D01*
Y-401037D01*
X371413Y-403039D01*
X372449Y-404835D01*
X373915Y-406301D01*
X375711Y-407337D01*
X376176Y-407462D01*
Y-415184D01*
X346844Y-444516D01*
X277910D01*
X276926Y-444712D01*
X276091Y-445270D01*
X244747Y-476613D01*
X244189Y-477448D01*
X243993Y-478433D01*
Y-484498D01*
X242215Y-484975D01*
X239645Y-486459D01*
X237545Y-488558D01*
X236061Y-491129D01*
X235293Y-493996D01*
Y-496964D01*
X236061Y-499832D01*
X237545Y-502403D01*
X239645Y-504502D01*
X242215Y-505986D01*
X245083Y-506754D01*
X248051D01*
X250918Y-505986D01*
X253489Y-504502D01*
X255588Y-502403D01*
X257073Y-499832D01*
X257841Y-496964D01*
Y-493996D01*
X257073Y-491129D01*
X255588Y-488558D01*
X253489Y-486459D01*
X250918Y-484975D01*
X249140Y-484498D01*
Y-479499D01*
X278976Y-449663D01*
X347910D01*
X348895Y-449467D01*
X349730Y-448909D01*
X380570Y-418070D01*
X381128Y-417235D01*
X381323Y-416250D01*
Y-407462D01*
X381789Y-407337D01*
X383585Y-406301D01*
X385051Y-404835D01*
X386087Y-403039D01*
X386624Y-401037D01*
Y-398963D01*
X386087Y-396961D01*
X385051Y-395165D01*
X383585Y-393699D01*
X381789Y-392663D01*
X379787Y-392126D01*
D02*
G37*
G36*
X207841Y-484206D02*
X185293D01*
Y-506754D01*
X207841D01*
Y-484206D01*
D02*
G37*
G36*
X67841D02*
X45293D01*
Y-506754D01*
X67841D01*
Y-484206D01*
D02*
G37*
G36*
X540070Y-581206D02*
X537430D01*
X534881Y-581889D01*
X532595Y-583209D01*
X530729Y-585075D01*
X529409Y-587361D01*
X528726Y-589910D01*
Y-592550D01*
X529409Y-595099D01*
X530729Y-597385D01*
X532595Y-599251D01*
X534881Y-600571D01*
X537430Y-601254D01*
X540070D01*
X542619Y-600571D01*
X544905Y-599251D01*
X546771Y-597385D01*
X548091Y-595099D01*
X548774Y-592550D01*
Y-589910D01*
X548091Y-587361D01*
X546771Y-585075D01*
X544905Y-583209D01*
X542619Y-581889D01*
X540070Y-581206D01*
D02*
G37*
G36*
X501774D02*
X481726D01*
Y-601254D01*
X501774D01*
Y-581206D01*
D02*
G37*
G36*
X528537Y-412126D02*
X526463D01*
X524461Y-412663D01*
X522665Y-413699D01*
X521199Y-415165D01*
X520163Y-416961D01*
X519626Y-418963D01*
Y-421037D01*
X520163Y-423039D01*
X521199Y-424835D01*
X522665Y-426301D01*
X524461Y-427337D01*
X524927Y-427462D01*
Y-431434D01*
X421791Y-534570D01*
X421233Y-535405D01*
X421037Y-536390D01*
Y-589714D01*
X420571Y-589838D01*
X418776Y-590875D01*
X417310Y-592341D01*
X416273Y-594137D01*
X415737Y-596139D01*
Y-598213D01*
X416273Y-600215D01*
X417310Y-602011D01*
X418776Y-603477D01*
X420571Y-604513D01*
X422574Y-605050D01*
X424647D01*
X426650Y-604513D01*
X428445Y-603477D01*
X429911Y-602011D01*
X430948Y-600215D01*
X431484Y-598213D01*
Y-596139D01*
X430948Y-594137D01*
X429911Y-592341D01*
X428445Y-590875D01*
X426650Y-589838D01*
X426184Y-589714D01*
Y-537455D01*
X529320Y-434320D01*
X529878Y-433485D01*
X530074Y-432500D01*
Y-427462D01*
X530539Y-427337D01*
X532335Y-426301D01*
X533801Y-424835D01*
X534837Y-423039D01*
X535374Y-421037D01*
Y-418963D01*
X534837Y-416961D01*
X533801Y-415165D01*
X532335Y-413699D01*
X530539Y-412663D01*
X528537Y-412126D01*
D02*
G37*
G36*
X539787Y-432126D02*
X537713D01*
X535711Y-432663D01*
X533915Y-433699D01*
X532449Y-435165D01*
X531413Y-436961D01*
X530876Y-438963D01*
Y-441037D01*
X531413Y-443039D01*
X532449Y-444835D01*
X533915Y-446301D01*
X535711Y-447337D01*
X536177Y-447462D01*
Y-499012D01*
X428082Y-607106D01*
X338270D01*
X328857Y-597694D01*
X328023Y-597136D01*
X327038Y-596940D01*
X240066D01*
X239941Y-596475D01*
X238905Y-594679D01*
X237439Y-593213D01*
X235643Y-592176D01*
X233641Y-591640D01*
X231567D01*
X229565Y-592176D01*
X227769Y-593213D01*
X226303Y-594679D01*
X225267Y-596475D01*
X224730Y-598477D01*
Y-600550D01*
X225267Y-602553D01*
X226303Y-604349D01*
X227769Y-605815D01*
X229565Y-606851D01*
X231567Y-607388D01*
X233641D01*
X235643Y-606851D01*
X237439Y-605815D01*
X238905Y-604349D01*
X239941Y-602553D01*
X240066Y-602087D01*
X325972D01*
X335384Y-611499D01*
X336219Y-612057D01*
X337204Y-612253D01*
X429148D01*
X430133Y-612057D01*
X430968Y-611499D01*
X540570Y-501897D01*
X541128Y-501063D01*
X541324Y-500078D01*
Y-447462D01*
X541789Y-447337D01*
X543585Y-446301D01*
X545051Y-444835D01*
X546087Y-443039D01*
X546624Y-441037D01*
Y-438963D01*
X546087Y-436961D01*
X545051Y-435165D01*
X543585Y-433699D01*
X541789Y-432663D01*
X539787Y-432126D01*
D02*
G37*
G36*
X154215Y-646976D02*
X150785D01*
X147473Y-647864D01*
X144503Y-649578D01*
X142078Y-652003D01*
X140364Y-654973D01*
X139476Y-658285D01*
Y-661715D01*
X140364Y-665027D01*
X142078Y-667997D01*
X144503Y-670422D01*
X147473Y-672137D01*
X150785Y-673024D01*
X154215D01*
X157527Y-672137D01*
X160497Y-670422D01*
X162922Y-667997D01*
X164636Y-665027D01*
X165524Y-661715D01*
Y-658285D01*
X164636Y-654973D01*
X162922Y-652003D01*
X160497Y-649578D01*
X157527Y-647864D01*
X154215Y-646976D01*
D02*
G37*
G36*
X496750Y-696369D02*
Y-701230D01*
X501611D01*
X500584Y-699451D01*
X498529Y-697396D01*
X496750Y-696369D01*
D02*
G37*
G36*
X486750D02*
X484971Y-697396D01*
X482916Y-699451D01*
X481889Y-701230D01*
X486750D01*
Y-696369D01*
D02*
G37*
G36*
X501611Y-711230D02*
X496750D01*
Y-716091D01*
X498529Y-715064D01*
X500584Y-713009D01*
X501611Y-711230D01*
D02*
G37*
G36*
X486750D02*
X481889D01*
X482916Y-713009D01*
X484971Y-715064D01*
X486750Y-716091D01*
Y-711230D01*
D02*
G37*
G36*
X675122Y-629626D02*
X673049D01*
X671046Y-630163D01*
X669251Y-631199D01*
X667785Y-632665D01*
X666748Y-634461D01*
X666211Y-636463D01*
Y-638537D01*
X666748Y-640539D01*
X667785Y-642335D01*
X669251Y-643801D01*
X671046Y-644837D01*
X671177Y-644872D01*
Y-750184D01*
X661434Y-759927D01*
X654962D01*
X654837Y-759461D01*
X653801Y-757665D01*
X652335Y-756199D01*
X650539Y-755163D01*
X648537Y-754626D01*
X646463D01*
X644461Y-755163D01*
X642665Y-756199D01*
X641199Y-757665D01*
X640163Y-759461D01*
X639626Y-761463D01*
Y-763537D01*
X640163Y-765539D01*
X641199Y-767335D01*
X642665Y-768801D01*
X644461Y-769837D01*
X646463Y-770374D01*
X648537D01*
X650539Y-769837D01*
X652335Y-768801D01*
X653801Y-767335D01*
X654837Y-765539D01*
X654962Y-765073D01*
X662500D01*
X663485Y-764878D01*
X664320Y-764320D01*
X675570Y-753070D01*
X676128Y-752235D01*
X676323Y-751250D01*
Y-645052D01*
X677125Y-644837D01*
X678920Y-643801D01*
X680386Y-642335D01*
X681423Y-640539D01*
X681959Y-638537D01*
Y-636463D01*
X681423Y-634461D01*
X680386Y-632665D01*
X678920Y-631199D01*
X677125Y-630163D01*
X675122Y-629626D01*
D02*
G37*
G36*
X493070Y-766206D02*
X490430D01*
X487881Y-766889D01*
X485595Y-768209D01*
X483729Y-770075D01*
X482409Y-772361D01*
X481726Y-774910D01*
Y-777550D01*
X482409Y-780099D01*
X483729Y-782385D01*
X485595Y-784251D01*
X487881Y-785571D01*
X490430Y-786254D01*
X493070D01*
X495619Y-785571D01*
X497905Y-784251D01*
X499771Y-782385D01*
X501091Y-780099D01*
X501774Y-777550D01*
Y-774910D01*
X501091Y-772361D01*
X499771Y-770075D01*
X497905Y-768209D01*
X495619Y-766889D01*
X493070Y-766206D01*
D02*
G37*
G36*
X356907Y-878686D02*
X334358D01*
Y-901234D01*
X356907D01*
Y-878686D01*
D02*
G37*
G36*
X530234Y-879956D02*
X527266D01*
X524398Y-880724D01*
X521828Y-882208D01*
X519729Y-884308D01*
X518244Y-886878D01*
X517476Y-889746D01*
Y-892714D01*
X518244Y-895582D01*
X519729Y-898152D01*
X521828Y-900251D01*
X524398Y-901736D01*
X527266Y-902504D01*
X530234D01*
X533102Y-901736D01*
X535672Y-900251D01*
X537771Y-898152D01*
X539256Y-895582D01*
X540024Y-892714D01*
Y-889746D01*
X539256Y-886878D01*
X537771Y-884308D01*
X535672Y-882208D01*
X533102Y-880724D01*
X530234Y-879956D01*
D02*
G37*
G36*
X490024D02*
X467476D01*
Y-902504D01*
X490024D01*
Y-879956D01*
D02*
G37*
G36*
X395847D02*
X392878D01*
X390011Y-880724D01*
X387440Y-882208D01*
X385341Y-884308D01*
X383857Y-886878D01*
X383088Y-889746D01*
Y-892714D01*
X383857Y-895582D01*
X385341Y-898152D01*
X387440Y-900251D01*
X390011Y-901736D01*
X392878Y-902504D01*
X395847D01*
X398714Y-901736D01*
X401285Y-900251D01*
X403384Y-898152D01*
X404868Y-895582D01*
X405636Y-892714D01*
Y-889746D01*
X404868Y-886878D01*
X403384Y-884308D01*
X401285Y-882208D01*
X398714Y-880724D01*
X395847Y-879956D01*
D02*
G37*
G36*
X255847D02*
X252878D01*
X250011Y-880724D01*
X247440Y-882208D01*
X245341Y-884308D01*
X243857Y-886878D01*
X243088Y-889746D01*
Y-892714D01*
X243857Y-895582D01*
X245341Y-898152D01*
X247440Y-900251D01*
X250011Y-901736D01*
X252878Y-902504D01*
X255847D01*
X258714Y-901736D01*
X261285Y-900251D01*
X263384Y-898152D01*
X264868Y-895582D01*
X265636Y-892714D01*
Y-889746D01*
X264868Y-886878D01*
X263384Y-884308D01*
X261285Y-882208D01*
X258714Y-880724D01*
X255847Y-879956D01*
D02*
G37*
G36*
X215637D02*
X193088D01*
Y-902504D01*
X215637D01*
Y-879956D01*
D02*
G37*
G36*
X115847D02*
X112878D01*
X110011Y-880724D01*
X107440Y-882208D01*
X105341Y-884308D01*
X103857Y-886878D01*
X103088Y-889746D01*
Y-892714D01*
X103857Y-895582D01*
X105341Y-898152D01*
X107440Y-900251D01*
X110011Y-901736D01*
X112878Y-902504D01*
X115847D01*
X118714Y-901736D01*
X121285Y-900251D01*
X123384Y-898152D01*
X124868Y-895582D01*
X125636Y-892714D01*
Y-889746D01*
X124868Y-886878D01*
X123384Y-884308D01*
X121285Y-882208D01*
X118714Y-880724D01*
X115847Y-879956D01*
D02*
G37*
G36*
X75637D02*
X53088D01*
Y-902504D01*
X75637D01*
Y-879956D01*
D02*
G37*
G36*
X1058828Y-702427D02*
X987500D01*
X986515Y-702622D01*
X985680Y-703180D01*
X906434Y-782427D01*
X896212D01*
X896087Y-781961D01*
X895051Y-780165D01*
X893585Y-778699D01*
X891789Y-777663D01*
X889787Y-777126D01*
X887713D01*
X885711Y-777663D01*
X883915Y-778699D01*
X882449Y-780165D01*
X881413Y-781961D01*
X880876Y-783963D01*
Y-786037D01*
X881413Y-788039D01*
X882449Y-789835D01*
X883915Y-791301D01*
X885711Y-792337D01*
X887713Y-792874D01*
X889787D01*
X891789Y-792337D01*
X893585Y-791301D01*
X895051Y-789835D01*
X896087Y-788039D01*
X896212Y-787573D01*
X907500D01*
X908485Y-787378D01*
X909320Y-786820D01*
X983330Y-712809D01*
X984600Y-713335D01*
Y-749317D01*
X938067Y-795850D01*
X841250D01*
X840084Y-796334D01*
X839600Y-797500D01*
Y-807427D01*
X683566D01*
X681820Y-805680D01*
X680985Y-805122D01*
X680000Y-804927D01*
X673712D01*
X673587Y-804461D01*
X672551Y-802665D01*
X671085Y-801199D01*
X669289Y-800163D01*
X667287Y-799626D01*
X665213D01*
X663211Y-800163D01*
X661415Y-801199D01*
X659949Y-802665D01*
X658913Y-804461D01*
X658376Y-806463D01*
Y-808537D01*
X658913Y-810539D01*
X659949Y-812335D01*
X661415Y-813801D01*
X663211Y-814837D01*
X665213Y-815374D01*
X667287D01*
X669289Y-814837D01*
X671085Y-813801D01*
X672551Y-812335D01*
X673587Y-810539D01*
X673712Y-810073D01*
X678934D01*
X680680Y-811820D01*
X681515Y-812378D01*
X682500Y-812573D01*
X839600D01*
Y-860000D01*
X840084Y-861166D01*
X841250Y-861650D01*
X961250D01*
X962416Y-861166D01*
X1047416Y-776166D01*
X1047900Y-775000D01*
Y-712500D01*
X1047416Y-711334D01*
X1046250Y-710850D01*
X987085D01*
X986559Y-709580D01*
X988566Y-707573D01*
X1057427D01*
Y-863934D01*
X1046381Y-874980D01*
X1045823Y-875815D01*
X1045627Y-876799D01*
Y-889568D01*
X1045161Y-889693D01*
X1043366Y-890730D01*
X1041900Y-892196D01*
X1040863Y-893991D01*
X1040327Y-895994D01*
Y-898067D01*
X1040863Y-900070D01*
X1041900Y-901865D01*
X1043366Y-903331D01*
X1045161Y-904368D01*
X1047164Y-904904D01*
X1049237D01*
X1051240Y-904368D01*
X1053035Y-903331D01*
X1054501Y-901865D01*
X1055538Y-900070D01*
X1056075Y-898067D01*
Y-895994D01*
X1055538Y-893991D01*
X1054501Y-892196D01*
X1053035Y-890730D01*
X1051240Y-889693D01*
X1050774Y-889568D01*
Y-877866D01*
X1061820Y-866820D01*
X1062378Y-865985D01*
X1062573Y-865000D01*
Y-706172D01*
X1062378Y-705187D01*
X1061820Y-704352D01*
X1060648Y-703180D01*
X1059813Y-702622D01*
X1058828Y-702427D01*
D02*
G37*
G36*
X707965Y-879476D02*
X704535D01*
X701223Y-880363D01*
X698253Y-882078D01*
X695828Y-884503D01*
X694113Y-887473D01*
X693226Y-890785D01*
Y-894215D01*
X694113Y-897527D01*
X695828Y-900497D01*
X698253Y-902922D01*
X701223Y-904636D01*
X704535Y-905524D01*
X707965D01*
X711277Y-904636D01*
X714247Y-902922D01*
X716672Y-900497D01*
X718386Y-897527D01*
X719274Y-894215D01*
Y-890785D01*
X718386Y-887473D01*
X716672Y-884503D01*
X714247Y-882078D01*
X711277Y-880363D01*
X707965Y-879476D01*
D02*
G37*
G36*
X975234Y-885726D02*
X972266D01*
X969398Y-886495D01*
X966828Y-887979D01*
X964728Y-890078D01*
X963244Y-892649D01*
X962476Y-895516D01*
Y-898484D01*
X963244Y-901352D01*
X964728Y-903923D01*
X966828Y-906022D01*
X969398Y-907506D01*
X972266Y-908274D01*
X975234D01*
X978102Y-907506D01*
X980672Y-906022D01*
X982771Y-903923D01*
X984256Y-901352D01*
X985024Y-898484D01*
Y-895516D01*
X984256Y-892649D01*
X982771Y-890078D01*
X980672Y-887979D01*
X978102Y-886495D01*
X975234Y-885726D01*
D02*
G37*
G36*
X935024D02*
X912476D01*
Y-908274D01*
X935024D01*
Y-885726D01*
D02*
G37*
G36*
X615000Y-425850D02*
X561250D01*
X560084Y-426334D01*
X559600Y-427500D01*
Y-920000D01*
X560084Y-921166D01*
X561250Y-921650D01*
X652500D01*
X653666Y-921166D01*
X654150Y-920000D01*
Y-857500D01*
X653666Y-856334D01*
X652500Y-855850D01*
X630683Y-855850D01*
X617064Y-842232D01*
X617064Y-842232D01*
X616650Y-841817D01*
X616650Y-596927D01*
X616564Y-596721D01*
X616593Y-596500D01*
X616331Y-596158D01*
X616166Y-595761D01*
X615961Y-595675D01*
X615825Y-595498D01*
X614928Y-594981D01*
X613769Y-593822D01*
X612950Y-592402D01*
X612526Y-590819D01*
Y-589180D01*
X612950Y-587598D01*
X613769Y-586178D01*
X614928Y-585019D01*
X615825Y-584501D01*
X615961Y-584325D01*
X616166Y-584239D01*
X616331Y-583842D01*
X616593Y-583500D01*
X616564Y-583279D01*
X616650Y-583073D01*
Y-579427D01*
X616564Y-579221D01*
X616593Y-579000D01*
X616331Y-578658D01*
X616166Y-578261D01*
X615961Y-578175D01*
X615825Y-577998D01*
X614928Y-577481D01*
X613769Y-576322D01*
X612950Y-574903D01*
X612526Y-573320D01*
Y-571680D01*
X612950Y-570098D01*
X613769Y-568678D01*
X614928Y-567519D01*
X615825Y-567001D01*
X615961Y-566825D01*
X616166Y-566739D01*
X616331Y-566342D01*
X616593Y-566000D01*
X616564Y-565779D01*
X616650Y-565573D01*
Y-427500D01*
X616166Y-426334D01*
X615000Y-425850D01*
D02*
G37*
%LPD*%
G36*
X1046250Y-775000D02*
X961250Y-860000D01*
X841250D01*
Y-812573D01*
X851250D01*
X852235Y-812378D01*
X853070Y-811820D01*
X853628Y-810985D01*
X853823Y-810000D01*
X853628Y-809015D01*
X853070Y-808180D01*
X852235Y-807622D01*
X851250Y-807427D01*
X841250D01*
Y-797500D01*
X938750D01*
X986250Y-750000D01*
Y-712500D01*
X1046250D01*
Y-775000D01*
D02*
G37*
G36*
X615000Y-565573D02*
X613915Y-566199D01*
X612449Y-567665D01*
X611413Y-569461D01*
X610876Y-571463D01*
Y-573537D01*
X611413Y-575539D01*
X612449Y-577335D01*
X613915Y-578801D01*
X615000Y-579427D01*
Y-583073D01*
X613915Y-583699D01*
X612449Y-585165D01*
X611413Y-586961D01*
X610876Y-588963D01*
Y-591037D01*
X611413Y-593039D01*
X612449Y-594835D01*
X613915Y-596301D01*
X615000Y-596927D01*
X615000Y-842500D01*
X615000Y-842500D01*
X615898Y-843398D01*
X630000Y-857500D01*
X652500Y-857500D01*
Y-920000D01*
X561250D01*
Y-427500D01*
X615000D01*
Y-565573D01*
D02*
G37*
D11*
X680000Y-807500D02*
X682500Y-810000D01*
X851250D01*
X666250Y-807500D02*
X680000D01*
X647500Y-762500D02*
X662500D01*
X673750Y-751250D01*
Y-637835D01*
X423610Y-536390D02*
X527500Y-432500D01*
Y-420000D01*
X423610Y-597176D02*
Y-536390D01*
X386567Y-435933D02*
X408750Y-413750D01*
X386567Y-495480D02*
Y-435933D01*
X408750Y-413750D02*
Y-400000D01*
X347910Y-447090D02*
X378750Y-416250D01*
Y-400000D01*
X277910Y-447090D02*
X347910D01*
X298750Y-132500D02*
X315254D01*
X325144Y-122610D02*
X452440D01*
X315254Y-132500D02*
X325144Y-122610D01*
X170000Y-295000D02*
X181250Y-306250D01*
Y-330300D02*
Y-306250D01*
X145000Y-295000D02*
X170000D01*
X130000Y-280000D02*
X145000Y-295000D01*
X130000Y-280000D02*
Y-262500D01*
X181250Y-343750D02*
Y-330300D01*
X187500Y-350000D02*
X552500D01*
X181250Y-343750D02*
X187500Y-350000D01*
X1060000Y-865000D02*
Y-706172D01*
X1048201Y-876799D02*
X1060000Y-865000D01*
X1048201Y-897030D02*
Y-876799D01*
X987500Y-705000D02*
X1058828D01*
X1060000Y-706172D01*
X888750Y-785000D02*
X907500D01*
X987500Y-705000D01*
X344653Y-339890D02*
X540110D01*
X565420Y-314580D02*
Y-299960D01*
X540110Y-339890D02*
X565420Y-314580D01*
X552500Y-350000D02*
X590820Y-311680D01*
Y-299960D01*
X246567Y-495480D02*
Y-478433D01*
X277910Y-447090D01*
X177500Y-400000D02*
X348750D01*
X106567Y-470933D02*
X177500Y-400000D01*
X106567Y-495480D02*
Y-470933D01*
X882500Y-245000D02*
X923750Y-286250D01*
X615000Y-245000D02*
X882500D01*
X337204Y-609680D02*
X429148D01*
X538750Y-500078D02*
Y-440000D01*
X429148Y-609680D02*
X538750Y-500078D01*
X327038Y-599514D02*
X337204Y-609680D01*
X923750Y-327500D02*
Y-286250D01*
X431023Y-129223D02*
X438420Y-136620D01*
X364923Y-129223D02*
X431023D01*
X361645Y-132500D02*
X364923Y-129223D01*
X358750Y-132500D02*
X361645D01*
X301381Y-115000D02*
X473752D01*
X489220Y-130469D01*
X248881Y-167500D02*
X301381Y-115000D01*
X281250Y-330300D02*
X335063D01*
X200950Y-250000D02*
X281250Y-330300D01*
X335063D02*
X344653Y-339890D01*
X252698Y-135000D02*
X327698Y-60000D01*
X464901D02*
X540020Y-135119D01*
X327698Y-60000D02*
X464901D01*
X190878Y-142500D02*
X280878Y-52500D01*
X487550D02*
X565420Y-130370D01*
X280878Y-52500D02*
X487550D01*
X120000Y-250000D02*
X200950D01*
X109350Y-260650D02*
X120000Y-250000D01*
X99350Y-260650D02*
X109350D01*
X97500Y-262500D02*
X99350Y-260650D01*
X641620Y-159066D02*
X645053Y-162500D01*
X899184D02*
X918750Y-182066D01*
X645053Y-162500D02*
X899184D01*
X918750Y-198730D02*
Y-182066D01*
X232604Y-599514D02*
X327038D01*
X673750Y-637835D02*
X674085Y-637500D01*
X91250Y-167500D02*
X248881D01*
X236250Y-135000D02*
X252698D01*
X133750Y-142500D02*
X190878D01*
X565420Y-147560D02*
Y-130370D01*
X540020Y-147560D02*
Y-135119D01*
X489220Y-147560D02*
Y-130469D01*
X452440Y-122610D02*
X463820Y-133990D01*
X438420Y-147560D02*
Y-136620D01*
X463820Y-147560D02*
Y-133990D01*
X641620Y-159066D02*
Y-147560D01*
X387620Y-161914D02*
Y-147560D01*
X408206Y-182500D02*
X628750D01*
X387620Y-161914D02*
X408206Y-182500D01*
D106*
X347500Y-80000D02*
D03*
X743220Y-147560D02*
D03*
X717820D02*
D03*
X692420D02*
D03*
X667020D02*
D03*
X641620D02*
D03*
X616220D02*
D03*
X590820D02*
D03*
X565420D02*
D03*
X540020D02*
D03*
X514620D02*
D03*
X489220D02*
D03*
X463820D02*
D03*
X438420D02*
D03*
X413020D02*
D03*
X387620D02*
D03*
X743220Y-299960D02*
D03*
X717820D02*
D03*
X692420D02*
D03*
X667020D02*
D03*
X641620D02*
D03*
X616220D02*
D03*
X590820D02*
D03*
X565420D02*
D03*
X540020D02*
D03*
X514620D02*
D03*
X489220D02*
D03*
X463820D02*
D03*
X438420D02*
D03*
X413020D02*
D03*
X387620D02*
D03*
X706250Y-892500D02*
D03*
X152500Y-660000D02*
D03*
X974550Y-327500D02*
D03*
X949150D02*
D03*
X923750D02*
D03*
X898350D02*
D03*
X102500Y-380000D02*
D03*
X997500D02*
D03*
X752500Y-80000D02*
D03*
D114*
X281250Y-330300D02*
D03*
X231250D02*
D03*
X181250D02*
D03*
D115*
X973750Y-897000D02*
D03*
X386567Y-495480D02*
D03*
X528750Y-891230D02*
D03*
X394362D02*
D03*
X106567Y-495480D02*
D03*
X254362Y-891230D02*
D03*
X114362D02*
D03*
X246567Y-495480D02*
D03*
D116*
X923750Y-897000D02*
D03*
X336567Y-495480D02*
D03*
X478750Y-891230D02*
D03*
X345633Y-889960D02*
D03*
X56567Y-495480D02*
D03*
X204363Y-891230D02*
D03*
X64363D02*
D03*
X196567Y-495480D02*
D03*
D117*
X491750Y-776230D02*
D03*
Y-706230D02*
D03*
X538750Y-591230D02*
D03*
D118*
X491750D02*
D03*
D119*
X615000Y-245000D02*
D03*
X647500Y-762500D02*
D03*
X1033750Y-745000D02*
D03*
X527500Y-420000D02*
D03*
X462500Y-462500D02*
D03*
X697500Y-775000D02*
D03*
X348750Y-330000D02*
D03*
X408750D02*
D03*
X378750D02*
D03*
X97500Y-262500D02*
D03*
X130000D02*
D03*
X348750Y-400000D02*
D03*
X408750D02*
D03*
X378750D02*
D03*
X328750Y-582500D02*
D03*
X273750Y-727500D02*
D03*
X186250D02*
D03*
X96250D02*
D03*
X617083Y-871129D02*
D03*
X634583D02*
D03*
Y-888629D02*
D03*
X617083D02*
D03*
Y-906129D02*
D03*
X634583D02*
D03*
X603420Y-481315D02*
D03*
X585920D02*
D03*
Y-463815D02*
D03*
X603420D02*
D03*
Y-446315D02*
D03*
X585920D02*
D03*
X918750Y-230000D02*
D03*
X1023750Y-452500D02*
D03*
X232604Y-599514D02*
D03*
X888750Y-785000D02*
D03*
X618750Y-590000D02*
D03*
X636250D02*
D03*
Y-572500D02*
D03*
X618750D02*
D03*
X674085Y-637500D02*
D03*
X666250Y-807500D02*
D03*
X1048201Y-897030D02*
D03*
X1016250Y-727500D02*
D03*
X1033750D02*
D03*
X1016250Y-745000D02*
D03*
X998750Y-727500D02*
D03*
Y-745000D02*
D03*
X851250Y-810000D02*
D03*
X868750D02*
D03*
Y-827500D02*
D03*
X851250D02*
D03*
Y-845000D02*
D03*
X868750D02*
D03*
X911250Y-652500D02*
D03*
X893750D02*
D03*
Y-670000D02*
D03*
X911250D02*
D03*
X928750D02*
D03*
X963750D02*
D03*
X91250Y-167500D02*
D03*
X236250Y-135000D02*
D03*
X133750Y-142500D02*
D03*
X868750Y-920000D02*
D03*
X851250D02*
D03*
Y-902500D02*
D03*
X868750D02*
D03*
Y-885000D02*
D03*
X851250D02*
D03*
X868750Y-412500D02*
D03*
X423610Y-597176D02*
D03*
X538750Y-440000D02*
D03*
X956250Y-635000D02*
D03*
X928750Y-652500D02*
D03*
X981250Y-670000D02*
D03*
X921250Y-635000D02*
D03*
X938750D02*
D03*
X298750Y-132500D02*
D03*
X358750D02*
D03*
X628750Y-182500D02*
D03*
X918750Y-198730D02*
D03*
M02*
