G04*
G04 #@! TF.GenerationSoftware,Altium Limited,Altium Designer,21.3.2 (30)*
G04*
G04 Layer_Color=0*
%FSLAX44Y44*%
%MOMM*%
G71*
G04*
G04 #@! TF.SameCoordinates,3299A5E9-4645-4EFA-A6B2-4C4301D35EF0*
G04*
G04*
G04 #@! TF.FilePolarity,Positive*
G04*
G01*
G75*
%ADD120C,0.1000*%
D120*
X1027500Y-792500D02*
Y-782500D01*
X1022500Y-787500D02*
X1032500D01*
X403750Y-365000D02*
X413750D01*
X408750Y-370000D02*
Y-360000D01*
X373750Y-365000D02*
X383750D01*
X378750Y-370000D02*
Y-360000D01*
X343750Y-365000D02*
X353750D01*
X348750Y-370000D02*
Y-360000D01*
X499090Y-472169D02*
Y-462169D01*
X494090Y-467169D02*
X504090D01*
X518750Y-546230D02*
Y-536230D01*
X513750Y-541230D02*
X523750D01*
X533750Y-471230D02*
X543750D01*
X538750Y-476230D02*
Y-466230D01*
X798750Y-722500D02*
Y-712500D01*
X793750Y-717500D02*
X803750D01*
X1065503Y-660846D02*
Y-650846D01*
X1060503Y-655846D02*
X1070503D01*
X403750Y-702500D02*
X413750D01*
X408750Y-707500D02*
Y-697500D01*
X391229Y-602444D02*
Y-592444D01*
X386229Y-597444D02*
X396229D01*
X92500Y-295000D02*
X102500D01*
X97500Y-300000D02*
Y-290000D01*
X286000Y-767500D02*
Y-757500D01*
X281000Y-762500D02*
X291000D01*
X199578Y-767500D02*
Y-757500D01*
X194578Y-762500D02*
X204578D01*
X109495Y-767500D02*
Y-757500D01*
X104495Y-762500D02*
X114495D01*
X125000Y-295000D02*
X135000D01*
X130000Y-300000D02*
Y-290000D01*
X658750Y-366230D02*
Y-356230D01*
X653750Y-361230D02*
X663750D01*
X510250Y-682730D02*
X520250D01*
X515250Y-687730D02*
Y-677730D01*
X1023750Y-902500D02*
X1033750D01*
X1028750Y-907500D02*
Y-897500D01*
X693750Y-698250D02*
X703750D01*
X698750Y-703250D02*
Y-693250D01*
X667648Y-698986D02*
X677648D01*
X672648Y-703986D02*
Y-693986D01*
X668398Y-741095D02*
X678398D01*
X673398Y-746095D02*
Y-736095D01*
X605599Y-718492D02*
Y-708492D01*
X600599Y-713492D02*
X610599D01*
X1023750Y-532500D02*
Y-522500D01*
X1018750Y-527500D02*
X1028750D01*
X1023429Y-683825D02*
Y-673825D01*
X1018429Y-678825D02*
X1028429D01*
X1054026Y-577233D02*
Y-567233D01*
X1049026Y-572233D02*
X1059026D01*
X803750Y-547500D02*
Y-537500D01*
X798750Y-542500D02*
X808750D01*
X621250Y-890000D02*
X631250D01*
X626250Y-895000D02*
Y-885000D01*
X937400Y-465000D02*
X947400D01*
X942400Y-470000D02*
Y-460000D01*
X1072679Y-907459D02*
Y-897459D01*
X1067679Y-902459D02*
X1077679D01*
M02*
