G04*
G04 #@! TF.GenerationSoftware,Altium Limited,Altium Designer,21.3.2 (30)*
G04*
G04 Layer_Color=8421504*
%FSLAX44Y44*%
%MOMM*%
G71*
G04*
G04 #@! TF.SameCoordinates,3299A5E9-4645-4EFA-A6B2-4C4301D35EF0*
G04*
G04*
G04 #@! TF.FilePolarity,Positive*
G04*
G01*
G75*
%ADD17R,1.6582X1.1055*%
%ADD18R,1.4000X1.5000*%
%ADD19R,1.5000X1.0000*%
%ADD20C,2.0000*%
%ADD21R,1.2000X0.6500*%
%ADD22R,1.0000X2.5000*%
%ADD23R,6.8500X7.5000*%
%ADD24R,2.3500X2.2000*%
%ADD25R,0.6268X1.6587*%
G04:AMPARAMS|DCode=26|XSize=1.6587mm|YSize=0.6268mm|CornerRadius=0.3134mm|HoleSize=0mm|Usage=FLASHONLY|Rotation=270.000|XOffset=0mm|YOffset=0mm|HoleType=Round|Shape=RoundedRectangle|*
%AMROUNDEDRECTD26*
21,1,1.6587,0.0000,0,0,270.0*
21,1,1.0319,0.6268,0,0,270.0*
1,1,0.6268,0.0000,-0.5159*
1,1,0.6268,0.0000,0.5159*
1,1,0.6268,0.0000,0.5159*
1,1,0.6268,0.0000,-0.5159*
%
%ADD26ROUNDEDRECTD26*%
%ADD27R,2.5000X1.7000*%
%ADD28R,1.7000X1.0500*%
%ADD29R,1.8000X1.2500*%
%ADD30R,1.8000X1.0500*%
%ADD31R,4.5000X4.0000*%
%ADD32O,0.6000X1.9000*%
G04:AMPARAMS|DCode=33|XSize=0.45mm|YSize=1.35mm|CornerRadius=0.0495mm|HoleSize=0mm|Usage=FLASHONLY|Rotation=0.000|XOffset=0mm|YOffset=0mm|HoleType=Round|Shape=RoundedRectangle|*
%AMROUNDEDRECTD33*
21,1,0.4500,1.2510,0,0,0.0*
21,1,0.3510,1.3500,0,0,0.0*
1,1,0.0990,0.1755,-0.6255*
1,1,0.0990,-0.1755,-0.6255*
1,1,0.0990,-0.1755,0.6255*
1,1,0.0990,0.1755,0.6255*
%
%ADD33ROUNDEDRECTD33*%
%ADD34R,1.3500X1.1000*%
%ADD35R,2.1000X1.4000*%
%ADD36R,2.4000X4.2300*%
%ADD37C,7.2000*%
%ADD38R,1.3000X1.5000*%
%ADD39R,1.0000X1.5000*%
%ADD40R,0.8000X0.9000*%
%ADD41R,1.0500X1.7000*%
%ADD42R,1.4500X1.8500*%
%ADD43R,1.9000X1.5000*%
%ADD44R,0.9000X1.5500*%
%ADD45R,1.5500X0.9000*%
%ADD46R,1.7000X1.1500*%
%ADD47R,1.2500X1.8000*%
%ADD48R,4.2000X2.1000*%
%ADD49R,1.3500X0.9500*%
%ADD50R,1.8200X1.1600*%
%ADD51R,0.5562X1.8062*%
%ADD52R,2.0000X6.0000*%
%ADD53R,1.1000X1.3500*%
%ADD54R,0.9500X1.7000*%
%ADD55R,1.7800X3.1500*%
%ADD56R,1.6000X3.5000*%
%ADD57R,12.2000X9.7500*%
%ADD58R,2.0000X5.3000*%
%ADD59R,2.5000X3.5000*%
%ADD60R,1.7582X1.1561*%
G36*
X463750Y-657700D02*
X448750D01*
Y-722700D01*
X368750D01*
Y-657700D01*
X353750D01*
Y-617500D01*
X463750D01*
Y-657700D01*
D02*
G37*
D17*
X1027500Y-800264D02*
D03*
Y-774736D02*
D03*
D18*
X711144Y-360219D02*
D03*
X741144D02*
D03*
D19*
X408750Y-349000D02*
D03*
Y-381000D02*
D03*
X378750Y-349000D02*
D03*
Y-381000D02*
D03*
X348750Y-349000D02*
D03*
Y-381000D02*
D03*
X97500Y-311000D02*
D03*
Y-279000D02*
D03*
X130000Y-311000D02*
D03*
Y-279000D02*
D03*
X1028750Y-918500D02*
D03*
Y-886500D02*
D03*
D20*
X848750Y-422500D02*
D03*
X1063750Y-842500D02*
D03*
X743750Y-805000D02*
D03*
X1031250Y-842500D02*
D03*
X1046250Y-450000D02*
D03*
X1073750D02*
D03*
X818750Y-422500D02*
D03*
D21*
X1075770Y-796763D02*
D03*
Y-787263D02*
D03*
Y-777763D02*
D03*
X1049770D02*
D03*
Y-787263D02*
D03*
Y-796763D02*
D03*
X675060Y-581846D02*
D03*
Y-594546D02*
D03*
Y-607246D02*
D03*
Y-619946D02*
D03*
X731250Y-620962D02*
D03*
Y-607500D02*
D03*
Y-594292D02*
D03*
Y-580830D02*
D03*
D22*
X907220Y-793881D02*
D03*
X952820D02*
D03*
D23*
X930020Y-728881D02*
D03*
D24*
X936887Y-553688D02*
D03*
Y-612188D02*
D03*
D25*
X508240Y-457402D02*
D03*
D26*
X489940D02*
D03*
X499090Y-476936D02*
D03*
D27*
X498750Y-541230D02*
D03*
X538750D02*
D03*
D28*
X467483Y-565446D02*
D03*
Y-539946D02*
D03*
X598750Y-641000D02*
D03*
Y-612500D02*
D03*
D29*
X467483Y-487575D02*
D03*
Y-515075D02*
D03*
X898297Y-558483D02*
D03*
Y-585983D02*
D03*
D30*
X538750Y-483980D02*
D03*
Y-458480D02*
D03*
X672648Y-686236D02*
D03*
Y-711736D02*
D03*
D31*
X798750Y-772500D02*
D03*
Y-662500D02*
D03*
D32*
X1036429Y-603427D02*
D03*
X1023729D02*
D03*
X1011029D02*
D03*
X998329D02*
D03*
X1036429Y-650426D02*
D03*
X1023729D02*
D03*
X1011029D02*
D03*
X998329D02*
D03*
D33*
X628684Y-783430D02*
D03*
Y-738931D02*
D03*
X622184D02*
D03*
X615684D02*
D03*
X609184D02*
D03*
X622184Y-783430D02*
D03*
X615684D02*
D03*
X609184D02*
D03*
D34*
X651639Y-790323D02*
D03*
Y-823323D02*
D03*
D35*
X1065503Y-633846D02*
D03*
Y-677846D02*
D03*
D36*
X383350Y-766350D02*
D03*
X434150D02*
D03*
D37*
X408750Y-666027D02*
D03*
D38*
X232750Y-645200D02*
D03*
Y-619800D02*
D03*
X324750D02*
D03*
Y-645200D02*
D03*
D39*
X407229Y-597444D02*
D03*
X375229D02*
D03*
X642750Y-361230D02*
D03*
X674750D02*
D03*
D40*
X295500Y-752500D02*
D03*
X276500D02*
D03*
X286000Y-772500D02*
D03*
X209078Y-752500D02*
D03*
X190078D02*
D03*
X199578Y-772500D02*
D03*
X118995Y-752500D02*
D03*
X99995D02*
D03*
X109495Y-772500D02*
D03*
D41*
X298750Y-702500D02*
D03*
X273250D02*
D03*
X212328D02*
D03*
X186828D02*
D03*
X122245D02*
D03*
X96745D02*
D03*
D42*
X893750Y-200000D02*
D03*
X863750D02*
D03*
D43*
X946292Y-229821D02*
D03*
Y-199821D02*
D03*
D44*
X596594Y-823984D02*
D03*
X623094D02*
D03*
D45*
X624748Y-639253D02*
D03*
Y-612753D02*
D03*
X974988Y-613640D02*
D03*
Y-587140D02*
D03*
D46*
X698750Y-682500D02*
D03*
Y-714000D02*
D03*
D47*
X623451Y-690326D02*
D03*
X592951D02*
D03*
D48*
X632250Y-507500D02*
D03*
X706250D02*
D03*
D49*
X673398Y-748595D02*
D03*
Y-733595D02*
D03*
D50*
X643750Y-687750D02*
D03*
Y-717250D02*
D03*
D51*
X589349Y-713492D02*
D03*
X621849D02*
D03*
D52*
X1002250Y-527500D02*
D03*
X1045250D02*
D03*
D53*
X1006929Y-678825D02*
D03*
X1039929D02*
D03*
D54*
X1068026Y-572233D02*
D03*
X1040026D02*
D03*
D55*
X916250Y-465000D02*
D03*
X968550D02*
D03*
D56*
X829150Y-609500D02*
D03*
X778350D02*
D03*
D57*
X803750Y-506750D02*
D03*
D58*
X659250Y-890000D02*
D03*
X593250D02*
D03*
D59*
X790000Y-892500D02*
D03*
Y-827500D02*
D03*
D60*
X1072679Y-888198D02*
D03*
Y-916720D02*
D03*
M02*
