G04*
G04 #@! TF.GenerationSoftware,Altium Limited,Altium Designer,21.3.2 (30)*
G04*
G04 Layer_Color=16711935*
%FSLAX44Y44*%
%MOMM*%
G71*
G04*
G04 #@! TF.SameCoordinates,D31877C3-2771-4543-B1C5-E2EF0DFC8C93*
G04*
G04*
G04 #@! TF.FilePolarity,Positive*
G04*
G01*
G75*
%ADD10C,0.2540*%
%ADD11C,0.2000*%
%ADD15C,0.1270*%
%ADD120C,0.1000*%
%ADD121R,4.6000X1.0222*%
D10*
X618250Y-456500D02*
X720250D01*
X618250Y-558500D02*
Y-456500D01*
Y-558500D02*
X720250D01*
Y-456500D01*
D11*
X484590Y-460527D02*
X513590D01*
X484590Y-473528D02*
Y-460527D01*
Y-473528D02*
X513590D01*
Y-460527D01*
X690250Y-714250D02*
Y-682250D01*
X707250D01*
Y-714250D02*
Y-682250D01*
X690250Y-714250D02*
X707250D01*
X1019371Y-774865D02*
X1035371D01*
X1019371Y-806865D02*
Y-774865D01*
Y-806865D02*
X1035371D01*
Y-774865D01*
X1039497Y-855977D02*
Y-823977D01*
X1022497Y-855977D02*
X1039497D01*
X1022497D02*
Y-823977D01*
X1039497D01*
X1062000Y-824000D02*
X1078000D01*
X1062000Y-856000D02*
Y-824000D01*
Y-856000D02*
X1078000D01*
Y-824000D01*
X400250Y-381000D02*
X417250D01*
Y-349000D01*
X400250D02*
X417250D01*
X400250Y-381000D02*
Y-349000D01*
X370250Y-381000D02*
X387250D01*
Y-349000D01*
X370250D02*
X387250D01*
X370250Y-381000D02*
Y-349000D01*
X340250Y-381000D02*
X357250D01*
Y-349000D01*
X340250D02*
X357250D01*
X340250Y-381000D02*
Y-349000D01*
X541750Y-555830D02*
Y-526630D01*
X495750D02*
X541750D01*
X495750Y-555830D02*
Y-526630D01*
Y-555830D02*
X541750D01*
X530000Y-454730D02*
X547500D01*
X530000Y-487730D02*
Y-454730D01*
Y-487730D02*
X547500D01*
Y-454730D01*
X733750Y-782500D02*
Y-652500D01*
X863750D01*
Y-782500D02*
Y-652500D01*
X733750Y-782500D02*
X863750D01*
X674817Y-792057D02*
Y-776057D01*
X642818D02*
X674817D01*
X642818Y-792057D02*
Y-776057D01*
Y-792057D02*
X674817D01*
X1078503Y-675346D02*
Y-636346D01*
X1052503Y-675346D02*
X1078503D01*
X1052503D02*
Y-636346D01*
X1078503D01*
X356350Y-639650D02*
X461150D01*
Y-731450D02*
Y-639650D01*
X356350Y-731450D02*
X461150D01*
X356350D02*
Y-639650D01*
X375229Y-605944D02*
Y-588944D01*
Y-605944D02*
X407229D01*
Y-588944D01*
X375229D02*
X407229D01*
X89000Y-279000D02*
X106000D01*
X89000Y-311000D02*
Y-279000D01*
Y-311000D02*
X106000D01*
Y-279000D01*
X301000Y-769500D02*
Y-755500D01*
X271000Y-769500D02*
X301000D01*
X271000D02*
Y-755500D01*
X301000D01*
X214578Y-769500D02*
Y-755500D01*
X184578Y-769500D02*
X214578D01*
X184578D02*
Y-755500D01*
X214578D01*
X124495Y-769500D02*
Y-755500D01*
X94495Y-769500D02*
X124495D01*
X94495D02*
Y-755500D01*
X124495D01*
X121500Y-279000D02*
X138500D01*
X121500Y-311000D02*
Y-279000D01*
Y-311000D02*
X138500D01*
Y-279000D01*
X674750Y-369730D02*
Y-352730D01*
X642750D02*
X674750D01*
X642750Y-369730D02*
Y-352730D01*
Y-369730D02*
X674750D01*
X479250Y-580230D02*
X551250D01*
X479250Y-785230D02*
Y-580230D01*
Y-785230D02*
X551250D01*
Y-580230D01*
X663898Y-715486D02*
X681398D01*
Y-682486D01*
X663898D02*
X681398D01*
X663898Y-715486D02*
Y-682486D01*
X666148Y-730095D02*
X680648D01*
X666148Y-752095D02*
Y-730095D01*
Y-752095D02*
X680648D01*
Y-730095D01*
X621599Y-721491D02*
Y-705491D01*
X589599D02*
X621599D01*
X589599Y-721491D02*
Y-705491D01*
Y-721491D02*
X621599D01*
X1054750Y-558500D02*
Y-496500D01*
X992750D02*
X1054750D01*
X992750Y-558500D02*
Y-496500D01*
Y-558500D02*
X1054750D01*
X1040750Y-689000D02*
Y-671000D01*
X1006750D02*
X1040750D01*
X1006750Y-689000D02*
Y-671000D01*
Y-689000D02*
X1040750D01*
X1033497Y-589501D02*
Y-571501D01*
Y-589501D02*
X1067497D01*
Y-571501D01*
X1033497D02*
X1067497D01*
X751000Y-571600D02*
Y-478100D01*
Y-571600D02*
X856500D01*
Y-478100D01*
X751000D02*
X856500D01*
X586350Y-917200D02*
X666150D01*
X586350D02*
Y-862800D01*
X666150D01*
Y-917200D02*
Y-862800D01*
X918750Y-447950D02*
X966050D01*
Y-482050D02*
Y-447950D01*
X918750Y-482050D02*
X966050D01*
X918750D02*
Y-447950D01*
D15*
X634750Y-719500D02*
Y-685500D01*
X652750Y-719500D02*
Y-685500D01*
X634750Y-719500D02*
X652750D01*
X634750Y-685500D02*
X652750D01*
D120*
X978250Y-894001D02*
G03*
X969250Y-894001I-4500J0D01*
G01*
X928250Y-894001D02*
G03*
X919250Y-894001I-4500J0D01*
G01*
X1038379Y-615927D02*
G03*
X1038379Y-615927I-5000J0D01*
G01*
X391067Y-492481D02*
G03*
X382067Y-492481I-4500J0D01*
G01*
X341067Y-492481D02*
G03*
X332067Y-492481I-4500J0D01*
G01*
X483250Y-888231D02*
G03*
X474250Y-888231I-4500J0D01*
G01*
X533250Y-888231D02*
G03*
X524250Y-888231I-4500J0D01*
G01*
X348862Y-888231D02*
G03*
X339862Y-888231I-4500J0D01*
G01*
X398862Y-888231D02*
G03*
X389862Y-888231I-4500J0D01*
G01*
X61067Y-492481D02*
G03*
X52067Y-492481I-4500J0D01*
G01*
X111067Y-492481D02*
G03*
X102067Y-492481I-4500J0D01*
G01*
X258862Y-888231D02*
G03*
X249862Y-888231I-4500J0D01*
G01*
X208862Y-888231D02*
G03*
X199862Y-888231I-4500J0D01*
G01*
X118862Y-888231D02*
G03*
X109862Y-888231I-4500J0D01*
G01*
X68862Y-888231D02*
G03*
X59862Y-888231I-4500J0D01*
G01*
X251067Y-492481D02*
G03*
X242067Y-492481I-4500J0D01*
G01*
X201067Y-492481D02*
G03*
X192067Y-492481I-4500J0D01*
G01*
X830000Y-860000D02*
G03*
X830000Y-860000I-40000J0D01*
G01*
X998752Y-930001D02*
Y-873001D01*
Y-864501D02*
Y-855001D01*
Y-873001D02*
X1004752Y-873501D01*
X998752Y-864501D02*
X1004752Y-864001D01*
Y-873501D02*
Y-864001D01*
X898751Y-906001D02*
Y-855001D01*
X998752D01*
X898751Y-930001D02*
Y-913001D01*
X892751Y-913751D02*
X898751Y-913001D01*
X892751Y-905251D02*
X898751Y-906001D01*
X892751Y-913751D02*
Y-905251D01*
X898751Y-930001D02*
X998752Y-930001D01*
X967250Y-930001D02*
X969200Y-893998D01*
X978300D02*
X980250Y-930001D01*
X928300Y-893998D02*
X930250Y-930001D01*
X917250D02*
X919200Y-893998D01*
X710144Y-351719D02*
X742144D01*
X710144Y-368719D02*
X742144D01*
X710144D02*
Y-351719D01*
X742144Y-368719D02*
Y-351719D01*
X1054250Y-802500D02*
Y-772500D01*
X1068250Y-802500D02*
Y-772500D01*
X1054250D02*
X1068250D01*
X1054250Y-802500D02*
X1068250D01*
X714020Y-351460D02*
X746020D01*
X714020Y-368460D02*
X746020D01*
X714020D02*
Y-351460D01*
X746020Y-368460D02*
Y-351460D01*
X896520Y-772881D02*
X963520D01*
X896520Y-710681D02*
X963520D01*
X896520Y-772881D02*
Y-710681D01*
X963520Y-772881D02*
Y-710681D01*
X458483Y-569196D02*
X476483D01*
X458483Y-536196D02*
X476483D01*
X458483Y-569196D02*
Y-536196D01*
X476483Y-569196D02*
Y-536196D01*
Y-517825D02*
Y-484825D01*
X458483Y-517825D02*
Y-484825D01*
X476483D01*
X458483Y-517825D02*
X476483D01*
X672560Y-575146D02*
X734060D01*
X672560Y-626646D02*
Y-575146D01*
Y-626646D02*
X734060D01*
Y-575146D01*
X992379Y-606926D02*
X1042379D01*
X992379Y-646926D02*
X1042379D01*
Y-606926D01*
X992379Y-646926D02*
Y-606926D01*
X603434Y-776681D02*
Y-745680D01*
X634434Y-776681D02*
Y-745680D01*
X603434Y-776681D02*
X634434D01*
X603434Y-745680D02*
X634434D01*
X411569Y-528481D02*
Y-471481D01*
Y-462981D02*
Y-453481D01*
Y-471481D02*
X417569Y-471981D01*
X411569Y-462981D02*
X417569Y-462481D01*
Y-471981D02*
Y-462481D01*
X311568Y-504481D02*
Y-453481D01*
X411569D01*
X311568Y-528481D02*
Y-511481D01*
X305568Y-512231D02*
X311568Y-511481D01*
X305568Y-503731D02*
X311568Y-504481D01*
X305568Y-512231D02*
Y-503731D01*
X311568Y-528481D02*
X411569Y-528481D01*
X380067Y-528481D02*
X382017Y-492478D01*
X391117D02*
X393067Y-528481D01*
X341117Y-492478D02*
X343067Y-528481D01*
X330067D02*
X332017Y-492478D01*
X246250Y-655500D02*
Y-609500D01*
X311250D01*
X246250Y-655500D02*
X311250D01*
Y-609500D01*
X472250Y-924230D02*
X474200Y-888228D01*
X483300D02*
X485250Y-924230D01*
X533300Y-888228D02*
X535250Y-924231D01*
X522250D02*
X524200Y-888228D01*
X453751Y-924230D02*
X553752Y-924231D01*
X447751Y-907980D02*
Y-899481D01*
X453751Y-900230D01*
X447751Y-907980D02*
X453751Y-907231D01*
Y-924230D02*
Y-907231D01*
Y-849231D02*
X553752D01*
X453751Y-900230D02*
Y-849231D01*
X559752Y-867731D02*
Y-858231D01*
X553752Y-858731D02*
X559752Y-858231D01*
X553752Y-867231D02*
X559752Y-867731D01*
X553752Y-858731D02*
Y-849231D01*
Y-924231D02*
Y-867231D01*
X337862Y-924230D02*
X339812Y-888228D01*
X348913D02*
X350862Y-924230D01*
X398913Y-888228D02*
X400862Y-924231D01*
X387862D02*
X389812Y-888228D01*
X319364Y-924230D02*
X419364Y-924231D01*
X313364Y-907980D02*
Y-899481D01*
X319364Y-900230D01*
X313364Y-907980D02*
X319364Y-907231D01*
Y-924230D02*
Y-907231D01*
Y-849231D02*
X419364D01*
X319364Y-900230D02*
Y-849231D01*
X425364Y-867731D02*
Y-858231D01*
X419364Y-858731D02*
X425364Y-858231D01*
X419364Y-867231D02*
X425364Y-867731D01*
X419364Y-858731D02*
Y-849231D01*
Y-924231D02*
Y-867231D01*
X302500Y-711500D02*
Y-693500D01*
X269500Y-711500D02*
Y-693500D01*
Y-711500D02*
X302500D01*
X269500Y-693500D02*
X302500D01*
X216078Y-711500D02*
Y-693500D01*
X183078Y-711500D02*
Y-693500D01*
Y-711500D02*
X216078D01*
X183078Y-693500D02*
X216078D01*
X125995Y-711500D02*
Y-693500D01*
X92995Y-711500D02*
Y-693500D01*
Y-711500D02*
X125995D01*
X92995Y-693500D02*
X125995D01*
X907297Y-588733D02*
Y-555733D01*
X889297Y-588733D02*
Y-555733D01*
X907297D01*
X889297Y-588733D02*
X907297D01*
X862000Y-208750D02*
X895500D01*
X862000Y-191250D02*
X895500D01*
Y-208750D02*
Y-191250D01*
X862000Y-208750D02*
Y-191250D01*
X937292Y-231821D02*
Y-197821D01*
X955292Y-231821D02*
Y-197821D01*
X937292Y-231821D02*
X955292D01*
X937292Y-197821D02*
X955292D01*
X50067Y-528481D02*
X52017Y-492478D01*
X61117D02*
X63067Y-528481D01*
X111117Y-492478D02*
X113067Y-528481D01*
X100067D02*
X102017Y-492478D01*
X31568Y-528481D02*
X131569Y-528481D01*
X25568Y-512231D02*
Y-503731D01*
X31568Y-504481D01*
X25568Y-512231D02*
X31568Y-511481D01*
Y-528481D02*
Y-511481D01*
Y-453481D02*
X131569D01*
X31568Y-504481D02*
Y-453481D01*
X137569Y-471981D02*
Y-462481D01*
X131569Y-462981D02*
X137569Y-462481D01*
X131569Y-471481D02*
X137569Y-471981D01*
X131569Y-462981D02*
Y-453481D01*
Y-528481D02*
Y-471481D01*
X279364Y-924231D02*
Y-867231D01*
Y-858731D02*
Y-849231D01*
Y-867231D02*
X285364Y-867731D01*
X279364Y-858731D02*
X285364Y-858231D01*
Y-867731D02*
Y-858231D01*
X179364Y-900230D02*
Y-849231D01*
X279364D01*
X179364Y-924230D02*
Y-907231D01*
X173364Y-907980D02*
X179364Y-907231D01*
X173364Y-899481D02*
X179364Y-900230D01*
X173364Y-907980D02*
Y-899481D01*
X179364Y-924230D02*
X279364Y-924231D01*
X247862Y-924231D02*
X249812Y-888228D01*
X258913D02*
X260862Y-924231D01*
X208913Y-888228D02*
X210862Y-924230D01*
X197862D02*
X199812Y-888228D01*
X139364Y-924231D02*
Y-867231D01*
Y-858731D02*
Y-849231D01*
Y-867231D02*
X145364Y-867731D01*
X139364Y-858731D02*
X145364Y-858231D01*
Y-867731D02*
Y-858231D01*
X39364Y-900230D02*
Y-849231D01*
X139364D01*
X39364Y-924230D02*
Y-907231D01*
X33364Y-907980D02*
X39364Y-907231D01*
X33364Y-899481D02*
X39364Y-900230D01*
X33364Y-907980D02*
Y-899481D01*
X39364Y-924230D02*
X139364Y-924231D01*
X107862Y-924231D02*
X109812Y-888228D01*
X118913D02*
X120862Y-924231D01*
X68913Y-888228D02*
X70862Y-924230D01*
X57862D02*
X59812Y-888228D01*
X271569Y-528481D02*
Y-471481D01*
Y-462981D02*
Y-453481D01*
Y-471481D02*
X277569Y-471981D01*
X271569Y-462981D02*
X277569Y-462481D01*
Y-471981D02*
Y-462481D01*
X171568Y-504481D02*
Y-453481D01*
X271569D01*
X171568Y-528481D02*
Y-511481D01*
X165568Y-512231D02*
X171568Y-511481D01*
X165568Y-503731D02*
X171568Y-504481D01*
X165568Y-512231D02*
Y-503731D01*
X171568Y-528481D02*
X271569Y-528481D01*
X240067Y-528481D02*
X242017Y-492478D01*
X251117D02*
X253067Y-528481D01*
X201117Y-492478D02*
X203067Y-528481D01*
X190067D02*
X192017Y-492478D01*
X593594Y-832234D02*
Y-815734D01*
X626094Y-832234D02*
Y-815734D01*
X593594D02*
X626094D01*
X593594Y-832234D02*
X626094D01*
X616498Y-642253D02*
X632998D01*
X616498Y-609753D02*
X632998D01*
X616498Y-642253D02*
Y-609753D01*
X632998Y-642253D02*
Y-609753D01*
X621786Y-698872D02*
Y-681872D01*
X589786Y-698872D02*
Y-681872D01*
Y-698872D02*
X621786D01*
X589786Y-681872D02*
X621786D01*
X590250Y-642750D02*
X607250D01*
X590250Y-610750D02*
X607250D01*
X590250Y-642750D02*
Y-610750D01*
X607250Y-642750D02*
Y-610750D01*
X913887Y-620938D02*
Y-544938D01*
X959887Y-620938D02*
Y-544938D01*
X913887Y-620938D02*
X959887D01*
X913887Y-544938D02*
X959887D01*
X966738Y-616640D02*
X983238D01*
X966738Y-584140D02*
X983238D01*
X966738Y-616640D02*
Y-584140D01*
X983238Y-616640D02*
Y-584140D01*
D121*
X936887Y-550049D02*
D03*
M02*
