M48
;Layer_Color=9474304
;FILE_FORMAT=2:5
INCH,LZ
;TYPE=PLATED
T1F00S00C0.02799
T2F00S00C0.02800
T3F00S00C0.04000
T4F00S00C0.04331
T5F00S00C0.05118
;TYPE=NON_PLATED
T6F00S00C0.09055
%
T01
X0037894Y-0286417
X0073327
X0107776
X0129429Y-0229331
X0243602Y-0232283
X0250492
Y-0225394
X0243602
X0265388Y-0250984
X0254921Y-0300197
X0274606Y-0305118
X0262303Y-0317913
X0249836Y-0342964
Y-0349854
X0242946
Y-0342964
Y-0356744
X0249836
X0335138Y-0355315
Y-0348425
X0342028
Y-0355315
Y-0362205
X0335138
Y-0332677
Y-0325787
Y-0318898
X0342028
Y-0325787
Y-0332677
X035187Y-0263779
Y-025689
X035876
X036565
Y-0263779
X035876
X0362697Y-025
X0369587
X0376476
X0379429Y-0263779
X0386319
X0393209Y-0286417
X0400098
X0406988
Y-0293307
X0400098
X0393209
X0403051Y-017815
X0342028Y-0162402
X0361713Y-0090551
X0237567Y-0175715
Y-0182605
Y-0189494
X0230677
Y-0182605
Y-0175715
X0212106Y-0173228
X0182087Y-0182087
X0160925Y-015748
Y-0129921
X0149114
X0137303
Y-015748
X0149114
X0051181Y-0103347
X0038386
T02
X0091576Y-0236029
X0166776Y-0235109
X0349902Y-0309055
X0412677Y-0353162
X0361713Y-007824
X0247539Y-007185
X0242126Y-0096457
X0207677Y-0165354
X0035925Y-0065945
X0052658Y-0056102
X0093012Y-005315
X0117618Y-0052165
X014124
T03
X0353681Y-0128937
X0363681
X0373681
X0383681
X0292606Y-0118095
X0282606
X0272606
X0262606
X0252606
X0242606
X0232606
X0222606
X0212606
X0202606
X0192606
X0182606
X0172606
X0162606
X0152606
Y-0058095
X0162606
X0172606
X0182606
X0192606
X0202606
X0212606
X0222606
X0232606
X0242606
X0252606
X0262606
X0272606
X0282606
X0292606
T04
X0193602Y-0305602
Y-0278043
Y-0232768
X0212106
T05
X002534Y-0350878
X0045025
X0080458
X0100143
X0136076Y-0350378
X0155261Y-0350878
X0188484
X0208169
X0363681Y-035315
X0383366
X0152192Y-0195071
X0132507
X0097074
X0077389
X0041956
X002227
X0071358Y-0130039
X0091043
X0110728
T06
X0060039Y-0259842
X0278051Y-0351378
X0392717Y-0149606
X0040354
X0136811Y-0031496
X029626
M30
