G04*
G04 #@! TF.GenerationSoftware,Altium Limited,Altium Designer,21.3.2 (30)*
G04*
G04 Layer_Color=128*
%FSLAX44Y44*%
%MOMM*%
G71*
G04*
G04 #@! TF.SameCoordinates,3299A5E9-4645-4EFA-A6B2-4C4301D35EF0*
G04*
G04*
G04 #@! TF.FilePolarity,Positive*
G04*
G01*
G75*
%ADD123C,0.0508*%
D123*
X274750Y-330300D02*
X287750D01*
X281250Y-336800D02*
Y-323800D01*
X224750Y-330300D02*
X237750D01*
X231250Y-336800D02*
Y-323800D01*
X174750Y-330300D02*
X187750D01*
X181250Y-336800D02*
Y-323800D01*
X336000Y-80000D02*
X359000D01*
X347500Y-91500D02*
Y-68500D01*
X738140Y-147560D02*
X748300D01*
X743220Y-152640D02*
Y-142480D01*
X712740Y-147560D02*
X722900D01*
X717820Y-152640D02*
Y-142480D01*
X687340Y-147560D02*
X697500D01*
X692420Y-152640D02*
Y-142480D01*
X661940Y-147560D02*
X672100D01*
X667020Y-152640D02*
Y-142480D01*
X636540Y-147560D02*
X646700D01*
X641620Y-152640D02*
Y-142480D01*
X611140Y-147560D02*
X621300D01*
X616220Y-152640D02*
Y-142480D01*
X585740Y-147560D02*
X595900D01*
X590820Y-152640D02*
Y-142480D01*
X560340Y-147560D02*
X570500D01*
X565420Y-152640D02*
Y-142480D01*
X534940Y-147560D02*
X545100D01*
X540020Y-152640D02*
Y-142480D01*
X509540Y-147560D02*
X519700D01*
X514620Y-152640D02*
Y-142480D01*
X484140Y-147560D02*
X494300D01*
X489220Y-152640D02*
Y-142480D01*
X458740Y-147560D02*
X468900D01*
X463820Y-152640D02*
Y-142480D01*
X433340Y-147560D02*
X443500D01*
X438420Y-152640D02*
Y-142480D01*
X407940Y-147560D02*
X418100D01*
X413020Y-152640D02*
Y-142480D01*
X382540Y-147560D02*
X392700D01*
X387620Y-152640D02*
Y-142480D01*
X738140Y-299960D02*
X748300D01*
X743220Y-305040D02*
Y-294880D01*
X712740Y-299960D02*
X722900D01*
X717820Y-305040D02*
Y-294880D01*
X687340Y-299960D02*
X697500D01*
X692420Y-305040D02*
Y-294880D01*
X661940Y-299960D02*
X672100D01*
X667020Y-305040D02*
Y-294880D01*
X636540Y-299960D02*
X646700D01*
X641620Y-305040D02*
Y-294880D01*
X611140Y-299960D02*
X621300D01*
X616220Y-305040D02*
Y-294880D01*
X585740Y-299960D02*
X595900D01*
X590820Y-305040D02*
Y-294880D01*
X560340Y-299960D02*
X570500D01*
X565420Y-305040D02*
Y-294880D01*
X534940Y-299960D02*
X545100D01*
X540020Y-305040D02*
Y-294880D01*
X509540Y-299960D02*
X519700D01*
X514620Y-305040D02*
Y-294880D01*
X484140Y-299960D02*
X494300D01*
X489220Y-305040D02*
Y-294880D01*
X458740Y-299960D02*
X468900D01*
X463820Y-305040D02*
Y-294880D01*
X433340Y-299960D02*
X443500D01*
X438420Y-305040D02*
Y-294880D01*
X407940Y-299960D02*
X418100D01*
X413020Y-305040D02*
Y-294880D01*
X382540Y-299960D02*
X392700D01*
X387620Y-305040D02*
Y-294880D01*
X967250Y-897000D02*
X980250D01*
X973750Y-903500D02*
Y-890500D01*
X917250Y-897000D02*
X930250D01*
X923750Y-903500D02*
Y-890500D01*
X694750Y-892500D02*
X717750D01*
X706250Y-904000D02*
Y-881000D01*
X141000Y-660000D02*
X164000D01*
X152500Y-671500D02*
Y-648500D01*
X330067Y-495480D02*
X343067D01*
X336567Y-501980D02*
Y-488980D01*
X380067Y-495480D02*
X393067D01*
X386567Y-501980D02*
Y-488980D01*
X522250Y-891230D02*
X535250D01*
X528750Y-897730D02*
Y-884730D01*
X472250Y-891230D02*
X485250D01*
X478750Y-897730D02*
Y-884730D01*
X387862Y-891230D02*
X400862D01*
X394362Y-897730D02*
Y-884730D01*
X339132Y-889960D02*
X352132D01*
X345633Y-896460D02*
Y-883460D01*
X486250Y-776230D02*
X497250D01*
X491750Y-781730D02*
Y-770730D01*
X486250Y-706230D02*
X497250D01*
X491750Y-711730D02*
Y-700730D01*
X533250Y-591230D02*
X544250D01*
X538750Y-596730D02*
Y-585730D01*
X486250Y-591230D02*
X497250D01*
X491750Y-596730D02*
Y-585730D01*
X100067Y-495480D02*
X113067D01*
X106567Y-501980D02*
Y-488980D01*
X50067Y-495480D02*
X63067D01*
X56567Y-501980D02*
Y-488980D01*
X197862Y-891230D02*
X210863D01*
X204363Y-897730D02*
Y-884730D01*
X247862Y-891230D02*
X260862D01*
X254362Y-897730D02*
Y-884730D01*
X57863Y-891230D02*
X70862D01*
X64363Y-897730D02*
Y-884730D01*
X107862Y-891230D02*
X120862D01*
X114362Y-897730D02*
Y-884730D01*
X190067Y-495480D02*
X203067D01*
X196567Y-501980D02*
Y-488980D01*
X240067Y-495480D02*
X253067D01*
X246567Y-501980D02*
Y-488980D01*
X969470Y-327500D02*
X979630D01*
X974550Y-332580D02*
Y-322420D01*
X944070Y-327500D02*
X954230D01*
X949150Y-332580D02*
Y-322420D01*
X918670Y-327500D02*
X928830D01*
X923750Y-332580D02*
Y-322420D01*
X893270Y-327500D02*
X903430D01*
X898350Y-332580D02*
Y-322420D01*
X91000Y-380000D02*
X114000D01*
X102500Y-391500D02*
Y-368500D01*
X986000Y-380000D02*
X1009000D01*
X997500Y-391500D02*
Y-368500D01*
X741000Y-80000D02*
X764000D01*
X752500Y-91500D02*
Y-68500D01*
X611444Y-245000D02*
X618556D01*
X615000Y-248556D02*
Y-241444D01*
X643945Y-762500D02*
X651055D01*
X647500Y-766055D02*
Y-758945D01*
X1030195Y-745000D02*
X1037305D01*
X1033750Y-748555D02*
Y-741445D01*
X523944Y-420000D02*
X531056D01*
X527500Y-423556D02*
Y-416444D01*
X458945Y-462500D02*
X466055D01*
X462500Y-466055D02*
Y-458945D01*
X693945Y-775000D02*
X701055D01*
X697500Y-778555D02*
Y-771445D01*
X345195Y-330000D02*
X352305D01*
X348750Y-333555D02*
Y-326445D01*
X405195Y-330000D02*
X412305D01*
X408750Y-333555D02*
Y-326445D01*
X375195Y-330000D02*
X382305D01*
X378750Y-333555D02*
Y-326445D01*
X93945Y-262500D02*
X101055D01*
X97500Y-266055D02*
Y-258945D01*
X126445Y-262500D02*
X133555D01*
X130000Y-266055D02*
Y-258945D01*
X345195Y-400000D02*
X352305D01*
X348750Y-403555D02*
Y-396445D01*
X405195Y-400000D02*
X412305D01*
X408750Y-403555D02*
Y-396445D01*
X375195Y-400000D02*
X382305D01*
X378750Y-403555D02*
Y-396445D01*
X325195Y-582500D02*
X332305D01*
X328750Y-586055D02*
Y-578945D01*
X270195Y-727500D02*
X277305D01*
X273750Y-731055D02*
Y-723945D01*
X182695Y-727500D02*
X189805D01*
X186250Y-731055D02*
Y-723945D01*
X92695Y-727500D02*
X99805D01*
X96250Y-731055D02*
Y-723945D01*
X613528Y-871129D02*
X620638D01*
X617083Y-874684D02*
Y-867574D01*
X631028Y-871129D02*
X638138D01*
X634583Y-874684D02*
Y-867574D01*
X631028Y-888629D02*
X638138D01*
X634583Y-892184D02*
Y-885074D01*
X613528Y-888629D02*
X620638D01*
X617083Y-892184D02*
Y-885074D01*
X613528Y-906129D02*
X620638D01*
X617083Y-909684D02*
Y-902574D01*
X631028Y-906129D02*
X638138D01*
X634583Y-909684D02*
Y-902574D01*
X599865Y-481315D02*
X606975D01*
X603420Y-484870D02*
Y-477761D01*
X582365Y-481315D02*
X589475D01*
X585920Y-484870D02*
Y-477761D01*
X582365Y-463815D02*
X589475D01*
X585920Y-467370D02*
Y-460261D01*
X599865Y-463815D02*
X606975D01*
X603420Y-467370D02*
Y-460261D01*
X599865Y-446315D02*
X606975D01*
X603420Y-449870D02*
Y-442761D01*
X582365Y-446315D02*
X589475D01*
X585920Y-449870D02*
Y-442761D01*
X915195Y-230000D02*
X922305D01*
X918750Y-233555D02*
Y-226445D01*
X1020195Y-452500D02*
X1027305D01*
X1023750Y-456055D02*
Y-448945D01*
X229048Y-599514D02*
X236160D01*
X232604Y-603070D02*
Y-595958D01*
X885194Y-785000D02*
X892306D01*
X888750Y-788556D02*
Y-781444D01*
X615195Y-590000D02*
X622305D01*
X618750Y-593555D02*
Y-586445D01*
X632695Y-590000D02*
X639805D01*
X636250Y-593555D02*
Y-586445D01*
X632695Y-572500D02*
X639805D01*
X636250Y-576055D02*
Y-568945D01*
X615195Y-572500D02*
X622305D01*
X618750Y-576055D02*
Y-568945D01*
X670530Y-637500D02*
X677640D01*
X674085Y-641055D02*
Y-633945D01*
X662695Y-807500D02*
X669805D01*
X666250Y-811055D02*
Y-803945D01*
X1044644Y-897030D02*
X1051757D01*
X1048201Y-900586D02*
Y-893474D01*
X1012695Y-727500D02*
X1019805D01*
X1016250Y-731055D02*
Y-723945D01*
X1030195Y-727500D02*
X1037305D01*
X1033750Y-731055D02*
Y-723945D01*
X1012695Y-745000D02*
X1019805D01*
X1016250Y-748555D02*
Y-741445D01*
X995195Y-727500D02*
X1002305D01*
X998750Y-731055D02*
Y-723945D01*
X995195Y-745000D02*
X1002305D01*
X998750Y-748555D02*
Y-741445D01*
X847695Y-810000D02*
X854805D01*
X851250Y-813555D02*
Y-806445D01*
X865195Y-810000D02*
X872305D01*
X868750Y-813555D02*
Y-806445D01*
X865195Y-827500D02*
X872305D01*
X868750Y-831055D02*
Y-823945D01*
X847695Y-827500D02*
X854805D01*
X851250Y-831055D02*
Y-823945D01*
X847695Y-845000D02*
X854805D01*
X851250Y-848555D02*
Y-841445D01*
X865195Y-845000D02*
X872305D01*
X868750Y-848555D02*
Y-841445D01*
X907695Y-652500D02*
X914805D01*
X911250Y-656055D02*
Y-648945D01*
X890195Y-652500D02*
X897305D01*
X893750Y-656055D02*
Y-648945D01*
X890195Y-670000D02*
X897305D01*
X893750Y-673555D02*
Y-666445D01*
X907695Y-670000D02*
X914805D01*
X911250Y-673555D02*
Y-666445D01*
X925195Y-670000D02*
X932305D01*
X928750Y-673555D02*
Y-666445D01*
X960195Y-670000D02*
X967305D01*
X963750Y-673555D02*
Y-666445D01*
X87694Y-167500D02*
X94806D01*
X91250Y-171056D02*
Y-163944D01*
X232694Y-135000D02*
X239806D01*
X236250Y-138556D02*
Y-131444D01*
X130194Y-142500D02*
X137306D01*
X133750Y-146056D02*
Y-138944D01*
X865195Y-920000D02*
X872305D01*
X868750Y-923555D02*
Y-916445D01*
X847695Y-920000D02*
X854805D01*
X851250Y-923555D02*
Y-916445D01*
X847695Y-902500D02*
X854805D01*
X851250Y-906055D02*
Y-898945D01*
X865195Y-902500D02*
X872305D01*
X868750Y-906055D02*
Y-898945D01*
X865195Y-885000D02*
X872305D01*
X868750Y-888555D02*
Y-881445D01*
X847695Y-885000D02*
X854805D01*
X851250Y-888555D02*
Y-881445D01*
X865195Y-412500D02*
X872305D01*
X868750Y-416055D02*
Y-408945D01*
X420055Y-597176D02*
X427166D01*
X423610Y-600732D02*
Y-593620D01*
X535195Y-440000D02*
X542305D01*
X538750Y-443555D02*
Y-436445D01*
X952695Y-635000D02*
X959805D01*
X956250Y-638555D02*
Y-631445D01*
X925195Y-652500D02*
X932305D01*
X928750Y-656055D02*
Y-648945D01*
X977695Y-670000D02*
X984805D01*
X981250Y-673555D02*
Y-666445D01*
X917695Y-635000D02*
X924805D01*
X921250Y-638555D02*
Y-631445D01*
X935195Y-635000D02*
X942305D01*
X938750Y-638555D02*
Y-631445D01*
X295194Y-132500D02*
X302306D01*
X298750Y-136056D02*
Y-128944D01*
X355194Y-132500D02*
X362306D01*
X358750Y-136056D02*
Y-128944D01*
X625194Y-182500D02*
X632306D01*
X628750Y-186056D02*
Y-178944D01*
X915194Y-198730D02*
X922306D01*
X918750Y-202286D02*
Y-195174D01*
M02*
