G04*
G04 #@! TF.GenerationSoftware,Altium Limited,Altium Designer,21.3.2 (30)*
G04*
G04 Layer_Physical_Order=1*
G04 Layer_Color=255*
%FSLAX44Y44*%
%MOMM*%
G71*
G04*
G04 #@! TF.SameCoordinates,D31877C3-2771-4543-B1C5-E2EF0DFC8C93*
G04*
G04*
G04 #@! TF.FilePolarity,Positive*
G04*
G01*
G75*
%ADD11C,0.2000*%
G04:AMPARAMS|DCode=17|XSize=1.6587mm|YSize=0.6268mm|CornerRadius=0.3134mm|HoleSize=0mm|Usage=FLASHONLY|Rotation=270.000|XOffset=0mm|YOffset=0mm|HoleType=Round|Shape=RoundedRectangle|*
%AMROUNDEDRECTD17*
21,1,1.6587,0.0000,0,0,270.0*
21,1,1.0319,0.6268,0,0,270.0*
1,1,0.6268,0.0000,-0.5159*
1,1,0.6268,0.0000,0.5159*
1,1,0.6268,0.0000,0.5159*
1,1,0.6268,0.0000,-0.5159*
%
%ADD17ROUNDEDRECTD17*%
%ADD18R,0.6268X1.6587*%
%ADD19R,1.7000X1.1500*%
%ADD20R,1.6582X1.1055*%
%ADD21R,1.5000X1.0000*%
%ADD22R,1.7582X1.1561*%
%ADD23R,1.4000X1.5000*%
%ADD24R,1.2000X0.6500*%
%ADD25R,1.0000X2.5000*%
%ADD26R,6.8500X7.5000*%
%ADD27R,2.3500X2.2000*%
%ADD28R,2.5000X1.7000*%
%ADD29R,1.7000X1.0500*%
%ADD30R,1.8000X1.2500*%
%ADD31R,1.8000X1.0500*%
%ADD32R,4.5000X4.0000*%
%ADD33O,0.6000X1.9000*%
G04:AMPARAMS|DCode=34|XSize=0.45mm|YSize=1.35mm|CornerRadius=0.0495mm|HoleSize=0mm|Usage=FLASHONLY|Rotation=0.000|XOffset=0mm|YOffset=0mm|HoleType=Round|Shape=RoundedRectangle|*
%AMROUNDEDRECTD34*
21,1,0.4500,1.2510,0,0,0.0*
21,1,0.3510,1.3500,0,0,0.0*
1,1,0.0990,0.1755,-0.6255*
1,1,0.0990,-0.1755,-0.6255*
1,1,0.0990,-0.1755,0.6255*
1,1,0.0990,0.1755,0.6255*
%
%ADD34ROUNDEDRECTD34*%
%ADD35R,1.1000X1.3500*%
%ADD36R,2.1000X1.4000*%
%ADD37R,2.4000X4.2300*%
%ADD38C,7.2000*%
%ADD39R,1.3000X1.5000*%
%ADD40R,1.0000X1.5000*%
%ADD41R,0.8000X0.9000*%
%ADD42R,1.0500X1.7000*%
%ADD43R,1.4500X1.8500*%
%ADD44R,1.9000X1.5000*%
%ADD45R,0.9000X1.5500*%
%ADD46R,1.5500X0.9000*%
%ADD47R,1.2500X1.8000*%
%ADD48R,4.2000X2.1000*%
%ADD49R,1.3500X0.9500*%
%ADD50R,1.8200X1.1600*%
%ADD51R,0.5562X1.8062*%
%ADD52R,2.0000X6.0000*%
%ADD53R,1.1000X1.3500*%
%ADD54R,0.9500X1.7000*%
%ADD55R,1.7800X3.1500*%
%ADD56R,1.6000X3.5000*%
%ADD57R,12.2000X9.7500*%
%ADD58R,2.0000X5.3000*%
%ADD59R,2.5000X3.5000*%
%ADD108C,1.5240*%
%ADD112C,2.0000*%
%ADD113C,1.4000*%
%ADD114R,1.9500X1.9500*%
%ADD115C,1.9500*%
%ADD116C,1.9000*%
%ADD117C,1.7000*%
%ADD118R,1.7000X1.7000*%
%ADD119C,1.2700*%
G36*
X913750Y-85000D02*
Y-102500D01*
X1015000D01*
X1090000Y-177500D01*
Y-487500D01*
X936250D01*
Y-440000D01*
X885000D01*
Y-395000D01*
X532719D01*
X532234Y-393827D01*
X604560Y-321500D01*
X605118Y-320666D01*
X605313Y-319681D01*
Y-299960D01*
Y-172153D01*
X605118Y-171168D01*
X604560Y-170334D01*
X593394Y-159167D01*
Y-156337D01*
X594350Y-156081D01*
X596435Y-154877D01*
X598137Y-153174D01*
X599341Y-151089D01*
X599964Y-148764D01*
Y-146356D01*
X599341Y-144031D01*
X598137Y-141945D01*
X596435Y-140243D01*
X594350Y-139039D01*
X592024Y-138416D01*
X589616D01*
X587291Y-139039D01*
X585205Y-140243D01*
X583503Y-141945D01*
X582299Y-144031D01*
X581676Y-146356D01*
Y-148764D01*
X582299Y-151089D01*
X583503Y-153174D01*
X585205Y-154877D01*
X587291Y-156081D01*
X588247Y-156337D01*
Y-160233D01*
X588442Y-161218D01*
X589000Y-162053D01*
X600167Y-173219D01*
Y-295321D01*
X598897Y-295661D01*
X598137Y-294345D01*
X596435Y-292643D01*
X594350Y-291439D01*
X592024Y-290816D01*
X589616D01*
X587291Y-291439D01*
X585205Y-292643D01*
X583503Y-294345D01*
X582299Y-296430D01*
X581676Y-298756D01*
Y-301164D01*
X582299Y-303489D01*
X583503Y-305574D01*
X585205Y-307277D01*
X587291Y-308481D01*
X589616Y-309104D01*
X592024D01*
X594350Y-308481D01*
X596435Y-307277D01*
X598137Y-305574D01*
X598897Y-304259D01*
X600167Y-304599D01*
Y-318615D01*
X525680Y-393101D01*
X525122Y-393936D01*
X524927Y-394921D01*
Y-395000D01*
X433750D01*
Y-495951D01*
X432577Y-496437D01*
X429073Y-492934D01*
Y-304599D01*
X430344Y-304259D01*
X431103Y-305574D01*
X432805Y-307277D01*
X434891Y-308481D01*
X437216Y-309104D01*
X439624D01*
X441950Y-308481D01*
X444035Y-307277D01*
X445737Y-305574D01*
X446941Y-303489D01*
X447564Y-301164D01*
Y-298756D01*
X446941Y-296430D01*
X445737Y-294345D01*
X444035Y-292643D01*
X441950Y-291439D01*
X439624Y-290816D01*
X437216D01*
X434891Y-291439D01*
X432805Y-292643D01*
X431103Y-294345D01*
X430344Y-295661D01*
X429073Y-295321D01*
Y-176500D01*
X428878Y-175515D01*
X428320Y-174680D01*
X415593Y-161954D01*
Y-156337D01*
X416549Y-156081D01*
X418635Y-154877D01*
X420337Y-153174D01*
X421541Y-151089D01*
X422164Y-148764D01*
Y-146356D01*
X421541Y-144031D01*
X420337Y-141945D01*
X418635Y-140243D01*
X416549Y-139039D01*
X414224Y-138416D01*
X411816D01*
X410279Y-138828D01*
X409622Y-137689D01*
X410670Y-136641D01*
X510706D01*
X511642Y-137577D01*
X511361Y-138967D01*
X511091Y-139039D01*
X509006Y-140243D01*
X507303Y-141945D01*
X506099Y-144031D01*
X505476Y-146356D01*
Y-148764D01*
X506099Y-151089D01*
X507303Y-153174D01*
X509006Y-154877D01*
X511091Y-156081D01*
X513416Y-156704D01*
X515824D01*
X518149Y-156081D01*
X520235Y-154877D01*
X521937Y-153174D01*
X523141Y-151089D01*
X523764Y-148764D01*
Y-146356D01*
X523141Y-144031D01*
X521937Y-141945D01*
X520235Y-140243D01*
X518149Y-139039D01*
X517193Y-138783D01*
Y-136915D01*
X516998Y-135930D01*
X516440Y-135095D01*
X513592Y-132248D01*
X512757Y-131690D01*
X511772Y-131494D01*
X409604D01*
X408619Y-131690D01*
X407785Y-132248D01*
X397720Y-142312D01*
X397163Y-143147D01*
X397146Y-143231D01*
X395807Y-143452D01*
X394937Y-141945D01*
X393235Y-140243D01*
X391149Y-139039D01*
X388824Y-138416D01*
X386416D01*
X384091Y-139039D01*
X382006Y-140243D01*
X380303Y-141945D01*
X379099Y-144031D01*
X378476Y-146356D01*
Y-148764D01*
X379099Y-151089D01*
X380303Y-153174D01*
X382006Y-154877D01*
X384091Y-156081D01*
X386416Y-156704D01*
X388824D01*
X391149Y-156081D01*
X393235Y-154877D01*
X394937Y-153174D01*
X395697Y-151859D01*
X396967Y-152199D01*
Y-295321D01*
X395697Y-295661D01*
X394937Y-294345D01*
X393235Y-292643D01*
X391149Y-291439D01*
X388824Y-290816D01*
X386416D01*
X384091Y-291439D01*
X382006Y-292643D01*
X380303Y-294345D01*
X379099Y-296430D01*
X378476Y-298756D01*
Y-301164D01*
X379099Y-303489D01*
X380303Y-305574D01*
X382006Y-307277D01*
X384091Y-308481D01*
X386416Y-309104D01*
X388824D01*
X391149Y-308481D01*
X393235Y-307277D01*
X394454Y-306057D01*
X394496Y-306062D01*
X395676Y-306631D01*
Y-360781D01*
X395872Y-361766D01*
X396430Y-362601D01*
X406176Y-372347D01*
Y-374476D01*
X399726D01*
Y-387524D01*
X406176D01*
Y-392538D01*
X405711Y-392663D01*
X403915Y-393699D01*
X402449Y-395165D01*
X401413Y-396961D01*
X400876Y-398963D01*
Y-401037D01*
X401413Y-403039D01*
X402449Y-404835D01*
X403915Y-406301D01*
X405711Y-407337D01*
X407713Y-407874D01*
X409787D01*
X411789Y-407337D01*
X413585Y-406301D01*
X415051Y-404835D01*
X416087Y-403039D01*
X416624Y-401037D01*
Y-398963D01*
X416087Y-396961D01*
X415051Y-395165D01*
X413585Y-393699D01*
X411789Y-392663D01*
X411323Y-392538D01*
Y-387524D01*
X417774D01*
Y-374476D01*
X411323D01*
Y-371281D01*
X411128Y-370296D01*
X410570Y-369461D01*
X400823Y-359715D01*
Y-355524D01*
X417774D01*
Y-342476D01*
X411323D01*
Y-337462D01*
X411789Y-337337D01*
X413585Y-336301D01*
X415051Y-334835D01*
X416087Y-333039D01*
X416624Y-331037D01*
Y-328963D01*
X416087Y-326961D01*
X415051Y-325165D01*
X413585Y-323699D01*
X411789Y-322663D01*
X409787Y-322126D01*
X407713D01*
X405711Y-322663D01*
X403915Y-323699D01*
X402449Y-325165D01*
X402093Y-325781D01*
X400823Y-325441D01*
Y-307253D01*
X401360Y-306717D01*
X401918Y-305882D01*
X402113Y-304897D01*
Y-145197D01*
X403149Y-144162D01*
X404288Y-144819D01*
X403876Y-146356D01*
Y-148764D01*
X404499Y-151089D01*
X405703Y-153174D01*
X407406Y-154877D01*
X409491Y-156081D01*
X410447Y-156337D01*
Y-163020D01*
X410643Y-164005D01*
X411200Y-164840D01*
X423927Y-177566D01*
Y-494000D01*
X424123Y-494985D01*
X424680Y-495820D01*
X433750Y-504889D01*
Y-557500D01*
X311323D01*
Y-466066D01*
X369320Y-408070D01*
X369878Y-407235D01*
X370074Y-406250D01*
Y-402948D01*
X371343Y-402781D01*
X371413Y-403039D01*
X372449Y-404835D01*
X373915Y-406301D01*
X375711Y-407337D01*
X377713Y-407874D01*
X379787D01*
X381789Y-407337D01*
X383585Y-406301D01*
X385051Y-404835D01*
X386087Y-403039D01*
X386624Y-401037D01*
Y-398963D01*
X386087Y-396961D01*
X385051Y-395165D01*
X383585Y-393699D01*
X381789Y-392663D01*
X381323Y-392538D01*
Y-387524D01*
X387774D01*
Y-374476D01*
X370074D01*
Y-355524D01*
X387774D01*
Y-342476D01*
X381323D01*
Y-337462D01*
X381789Y-337337D01*
X383585Y-336301D01*
X385051Y-334835D01*
X386087Y-333039D01*
X386624Y-331037D01*
Y-328963D01*
X386087Y-326961D01*
X385051Y-325165D01*
X383585Y-323699D01*
X381789Y-322663D01*
X379787Y-322126D01*
X377713D01*
X375711Y-322663D01*
X373915Y-323699D01*
X372449Y-325165D01*
X371413Y-326961D01*
X371343Y-327219D01*
X370074Y-327051D01*
Y-155000D01*
X369878Y-154015D01*
X369320Y-153180D01*
X361323Y-145184D01*
Y-139962D01*
X361789Y-139837D01*
X363585Y-138801D01*
X365051Y-137335D01*
X366087Y-135539D01*
X366624Y-133537D01*
Y-131463D01*
X366087Y-129461D01*
X365051Y-127665D01*
X363585Y-126199D01*
X361789Y-125163D01*
X359787Y-124626D01*
X357713D01*
X355711Y-125163D01*
X353915Y-126199D01*
X352449Y-127665D01*
X351413Y-129461D01*
X350876Y-131463D01*
Y-133537D01*
X351413Y-135539D01*
X352449Y-137335D01*
X353915Y-138801D01*
X355711Y-139837D01*
X356176Y-139962D01*
Y-146250D01*
X356372Y-147235D01*
X356930Y-148070D01*
X364926Y-156066D01*
Y-405184D01*
X325035Y-445075D01*
X323765Y-444549D01*
Y-223889D01*
X323569Y-222904D01*
X323011Y-222070D01*
X300073Y-199132D01*
Y-149962D01*
X300539Y-149837D01*
X302335Y-148801D01*
X303801Y-147335D01*
X304837Y-145539D01*
X305374Y-143537D01*
Y-141463D01*
X304837Y-139461D01*
X303801Y-137665D01*
X302335Y-136199D01*
X300539Y-135163D01*
X298537Y-134626D01*
X296463D01*
X294461Y-135163D01*
X292665Y-136199D01*
X291199Y-137665D01*
X290163Y-139461D01*
X289626Y-141463D01*
Y-143537D01*
X290163Y-145539D01*
X291199Y-147335D01*
X292665Y-148801D01*
X294461Y-149837D01*
X294926Y-149962D01*
Y-200198D01*
X295122Y-201183D01*
X295680Y-202017D01*
X318618Y-224955D01*
Y-444176D01*
X301899Y-460896D01*
X301341Y-461730D01*
X301145Y-462715D01*
Y-557500D01*
X38657D01*
Y-237483D01*
X93070Y-183070D01*
X93628Y-182235D01*
X93823Y-181250D01*
Y-174962D01*
X94289Y-174837D01*
X96085Y-173801D01*
X97551Y-172335D01*
X98587Y-170539D01*
X99124Y-168537D01*
Y-166463D01*
X98587Y-164461D01*
X97551Y-162665D01*
X96085Y-161199D01*
X94289Y-160163D01*
X92287Y-159626D01*
X90213D01*
X88211Y-160163D01*
X86415Y-161199D01*
X84949Y-162665D01*
X83913Y-164461D01*
X83376Y-166463D01*
Y-168537D01*
X83913Y-170539D01*
X84949Y-172335D01*
X86415Y-173801D01*
X88211Y-174837D01*
X88677Y-174962D01*
Y-180184D01*
X34264Y-234597D01*
X33706Y-235432D01*
X33510Y-236417D01*
Y-557500D01*
X8750D01*
Y-178750D01*
X85000Y-102500D01*
X186250D01*
Y-85000D01*
X261250Y-10000D01*
X838750D01*
X913750Y-85000D01*
D02*
G37*
G36*
X878750Y-419826D02*
X877480Y-419993D01*
X877337Y-419461D01*
X876301Y-417665D01*
X874835Y-416199D01*
X873039Y-415163D01*
X871037Y-414626D01*
X868963D01*
X866961Y-415163D01*
X865165Y-416199D01*
X863699Y-417665D01*
X862663Y-419461D01*
X862538Y-419926D01*
X859991D01*
X859489Y-418052D01*
X857971Y-415424D01*
X855826Y-413279D01*
X853198Y-411761D01*
X850267Y-410976D01*
X847233D01*
X844302Y-411761D01*
X841674Y-413279D01*
X839529Y-415424D01*
X838011Y-418052D01*
X837226Y-420983D01*
Y-424017D01*
X838011Y-426948D01*
X839529Y-429576D01*
X841674Y-431721D01*
X844302Y-433239D01*
X847233Y-434024D01*
X850267D01*
X853198Y-433239D01*
X855826Y-431721D01*
X857971Y-429576D01*
X859489Y-426948D01*
X859991Y-425073D01*
X862538D01*
X862663Y-425539D01*
X863699Y-427335D01*
X865165Y-428801D01*
X866961Y-429837D01*
X868963Y-430374D01*
X871037D01*
X873039Y-429837D01*
X874835Y-428801D01*
X876301Y-427335D01*
X877337Y-425539D01*
X877480Y-425007D01*
X878750Y-425174D01*
Y-564738D01*
X679082D01*
X678750Y-564600D01*
X666250D01*
Y-492500D01*
X601250D01*
Y-604710D01*
X600020D01*
Y-612500D01*
X598750D01*
Y-613770D01*
X587710D01*
Y-620000D01*
X573750D01*
Y-400000D01*
X878750D01*
Y-419826D01*
D02*
G37*
G36*
X570000Y-851250D02*
X601250D01*
Y-860960D01*
X598250D01*
Y-890000D01*
Y-919040D01*
X601250D01*
Y-932500D01*
X8750D01*
Y-562500D01*
X33510D01*
Y-593583D01*
X33706Y-594568D01*
X34264Y-595403D01*
X119671Y-680811D01*
X119671Y-692476D01*
X115471D01*
Y-712524D01*
X119671D01*
Y-737055D01*
X117175Y-739551D01*
X116617Y-740386D01*
X116421Y-741371D01*
Y-746476D01*
X113471D01*
Y-758524D01*
X124519D01*
Y-746476D01*
X121568D01*
Y-742437D01*
X124065Y-739941D01*
X124622Y-739106D01*
X124818Y-738121D01*
Y-712524D01*
X129019D01*
Y-692476D01*
X124818D01*
X124818Y-679745D01*
X124818Y-679745D01*
X124622Y-678760D01*
X124065Y-677925D01*
X38657Y-592517D01*
Y-562500D01*
X216176D01*
Y-641072D01*
X216372Y-642057D01*
X216930Y-642892D01*
X221058Y-647020D01*
X221893Y-647578D01*
X222878Y-647774D01*
X224726D01*
Y-654224D01*
X238069D01*
X238555Y-655397D01*
X210509Y-683444D01*
X209951Y-684279D01*
X209755Y-685263D01*
Y-692476D01*
X205554D01*
Y-712524D01*
X209755D01*
Y-736998D01*
X207259Y-739494D01*
X206701Y-740329D01*
X206505Y-741314D01*
Y-746476D01*
X203554D01*
Y-758524D01*
X214602D01*
Y-746476D01*
X211652D01*
Y-742380D01*
X214148Y-739884D01*
X214706Y-739049D01*
X214902Y-738064D01*
Y-712524D01*
X219102D01*
Y-692476D01*
X214902D01*
Y-686329D01*
X304907Y-596325D01*
X306176Y-596851D01*
Y-611434D01*
X296930Y-620680D01*
X296372Y-621515D01*
X296176Y-622500D01*
Y-692476D01*
X291976D01*
Y-712524D01*
X296176D01*
Y-737795D01*
X293680Y-740291D01*
X293122Y-741126D01*
X292927Y-742111D01*
Y-746476D01*
X289976D01*
Y-758524D01*
X301024D01*
Y-746476D01*
X298073D01*
Y-743176D01*
X300570Y-740680D01*
X301128Y-739845D01*
X301324Y-738861D01*
Y-712524D01*
X305524D01*
Y-692476D01*
X301324D01*
Y-623566D01*
X310570Y-614320D01*
X311127Y-613485D01*
X311323Y-612500D01*
Y-562500D01*
X438750D01*
Y-511549D01*
X439923Y-511063D01*
X445680Y-516820D01*
X446515Y-517378D01*
X447500Y-517574D01*
X456959D01*
Y-522849D01*
X464910D01*
Y-533172D01*
X457459D01*
Y-546720D01*
X477507D01*
Y-533172D01*
X470057D01*
Y-522849D01*
X478007D01*
Y-507301D01*
X456959D01*
Y-512427D01*
X448566D01*
X438750Y-502611D01*
Y-400000D01*
X501176D01*
Y-415986D01*
X501372Y-416971D01*
X501930Y-417806D01*
X523259Y-439134D01*
Y-456940D01*
X521989Y-457466D01*
X519627Y-455105D01*
X518793Y-454547D01*
X517808Y-454351D01*
X512898D01*
Y-447443D01*
X503582D01*
Y-467078D01*
X512898D01*
Y-459498D01*
X516742D01*
X518551Y-461307D01*
Y-478449D01*
X518747Y-479434D01*
X519305Y-480269D01*
X524836Y-485800D01*
X525671Y-486357D01*
X526656Y-486553D01*
X528226D01*
Y-490754D01*
X548177D01*
Y-498543D01*
X536930Y-509789D01*
X536372Y-510624D01*
X536177Y-511609D01*
Y-531206D01*
X524726D01*
Y-551254D01*
X536177D01*
Y-581542D01*
X534881Y-581889D01*
X532595Y-583209D01*
X530729Y-585075D01*
X529409Y-587361D01*
X528726Y-589910D01*
Y-592550D01*
X529409Y-595099D01*
X530729Y-597385D01*
X532595Y-599251D01*
X534881Y-600571D01*
X537430Y-601254D01*
X540070D01*
X542619Y-600571D01*
X544905Y-599251D01*
X546771Y-597385D01*
X548091Y-595099D01*
X548774Y-592550D01*
Y-589910D01*
X548091Y-587361D01*
X546771Y-585075D01*
X544905Y-583209D01*
X542619Y-581889D01*
X541324Y-581542D01*
Y-551254D01*
X552774D01*
Y-531206D01*
X541324D01*
Y-512675D01*
X552570Y-501428D01*
X553128Y-500593D01*
X553324Y-499609D01*
Y-474500D01*
X553128Y-473515D01*
X552570Y-472680D01*
X546806Y-466917D01*
X546218Y-466524D01*
X546431Y-465254D01*
X549274D01*
Y-451706D01*
X541324D01*
Y-447462D01*
X541789Y-447337D01*
X543585Y-446301D01*
X545051Y-444835D01*
X546087Y-443039D01*
X546624Y-441037D01*
Y-438963D01*
X546087Y-436961D01*
X545051Y-435165D01*
X543585Y-433699D01*
X541789Y-432663D01*
X539787Y-432126D01*
X537713D01*
X535711Y-432663D01*
X533915Y-433699D01*
X532449Y-435165D01*
X531413Y-436961D01*
X530876Y-438963D01*
Y-441037D01*
X531413Y-443039D01*
X532449Y-444835D01*
X533915Y-446301D01*
X535711Y-447337D01*
X536177Y-447462D01*
Y-451706D01*
X528405D01*
Y-438068D01*
X528210Y-437084D01*
X527652Y-436249D01*
X506323Y-414920D01*
Y-400000D01*
X524927D01*
Y-412538D01*
X524461Y-412663D01*
X522665Y-413699D01*
X521199Y-415165D01*
X520163Y-416961D01*
X519626Y-418963D01*
Y-421037D01*
X520163Y-423039D01*
X521199Y-424835D01*
X522665Y-426301D01*
X524461Y-427337D01*
X526463Y-427874D01*
X528537D01*
X530539Y-427337D01*
X532335Y-426301D01*
X533801Y-424835D01*
X534837Y-423039D01*
X535374Y-421037D01*
Y-418963D01*
X534837Y-416961D01*
X533801Y-415165D01*
X532335Y-413699D01*
X530539Y-412663D01*
X530074Y-412538D01*
Y-400000D01*
X570000D01*
Y-851250D01*
D02*
G37*
G36*
X663750Y-566250D02*
X678750D01*
Y-577072D01*
X667536D01*
Y-586620D01*
X672486D01*
Y-589772D01*
X667536D01*
Y-599320D01*
X672486D01*
Y-602472D01*
X667536D01*
Y-604673D01*
X665425D01*
X664440Y-604868D01*
X663605Y-605426D01*
X660424Y-608608D01*
X659866Y-609442D01*
X659670Y-610427D01*
Y-651134D01*
X659866Y-652119D01*
X660424Y-652954D01*
X670075Y-662605D01*
Y-679462D01*
X662124D01*
Y-693010D01*
X683172D01*
Y-688809D01*
X683680D01*
X684665Y-688614D01*
X685500Y-688056D01*
X687456Y-686099D01*
X688726Y-686625D01*
Y-689774D01*
X708774D01*
Y-675226D01*
X688726D01*
Y-679927D01*
X687416D01*
X686431Y-680122D01*
X685596Y-680680D01*
X684345Y-681931D01*
X683172Y-681445D01*
Y-679462D01*
X675221D01*
Y-661539D01*
X675026Y-660554D01*
X674468Y-659719D01*
X664817Y-650069D01*
Y-611493D01*
X666266Y-610044D01*
X667536Y-610362D01*
Y-612020D01*
X678750D01*
Y-615172D01*
X667536D01*
Y-624720D01*
X672427D01*
Y-630038D01*
X671961Y-630163D01*
X670165Y-631199D01*
X668699Y-632665D01*
X667663Y-634461D01*
X667126Y-636463D01*
Y-638537D01*
X667663Y-640539D01*
X668699Y-642335D01*
X670165Y-643801D01*
X671961Y-644837D01*
X673963Y-645374D01*
X676037D01*
X678039Y-644837D01*
X679835Y-643801D01*
X681301Y-642335D01*
X682337Y-640539D01*
X682874Y-638537D01*
Y-636463D01*
X682337Y-634461D01*
X681301Y-632665D01*
X679835Y-631199D01*
X678039Y-630163D01*
X677573Y-630038D01*
Y-626647D01*
X678750Y-626422D01*
Y-626422D01*
X721250D01*
Y-870000D01*
X878750D01*
Y-932500D01*
X673750D01*
Y-847500D01*
X573750D01*
Y-622500D01*
X598315D01*
X598841Y-623770D01*
X596930Y-625680D01*
X596372Y-626515D01*
X596176Y-627500D01*
Y-634226D01*
X588726D01*
Y-647774D01*
X596176D01*
Y-665818D01*
X596372Y-666803D01*
X596930Y-667637D01*
X602427Y-673134D01*
Y-706250D01*
X602622Y-707235D01*
X603180Y-708070D01*
X613111Y-718000D01*
Y-729065D01*
X611841Y-729760D01*
X610939Y-729581D01*
X610454D01*
Y-738931D01*
Y-748280D01*
X610939D01*
X612123Y-748044D01*
X613127Y-747374D01*
X613298Y-747119D01*
X613929Y-747244D01*
X617439D01*
X618227Y-747087D01*
X618934Y-746665D01*
X619641Y-747087D01*
X620429Y-747244D01*
X623939D01*
X624727Y-747087D01*
X625434Y-746665D01*
X626141Y-747087D01*
X626929Y-747244D01*
X630439D01*
X631227Y-747087D01*
X631895Y-746641D01*
X632341Y-745973D01*
X632498Y-745185D01*
Y-741504D01*
X659346D01*
X660331Y-741308D01*
X661165Y-740750D01*
X663951Y-737965D01*
X665124Y-738451D01*
Y-739869D01*
X681672D01*
Y-727321D01*
X675972D01*
Y-718510D01*
X683172D01*
Y-704962D01*
X662124D01*
Y-718510D01*
X670825D01*
Y-727321D01*
X665124D01*
Y-731022D01*
X664681D01*
X663696Y-731218D01*
X662861Y-731776D01*
X658280Y-736357D01*
X632498D01*
Y-732675D01*
X632341Y-731888D01*
X631895Y-731220D01*
X631227Y-730774D01*
X630439Y-730617D01*
X626929D01*
X626141Y-730774D01*
X625712Y-731031D01*
X624669Y-730472D01*
X624590Y-730399D01*
Y-724046D01*
X626154D01*
Y-716795D01*
X627424Y-716367D01*
X630377Y-719320D01*
X631212Y-719878D01*
X632196Y-720073D01*
X633126D01*
Y-724574D01*
X654374D01*
Y-709926D01*
X633126D01*
Y-713131D01*
X631953Y-713617D01*
X630008Y-711672D01*
X629173Y-711114D01*
X628188Y-710918D01*
X626154D01*
Y-703182D01*
X626154Y-702936D01*
X626746Y-701912D01*
X629826D01*
Y-691642D01*
X621036D01*
X612246D01*
Y-701912D01*
X616952D01*
X617544Y-702936D01*
X617544Y-703182D01*
Y-713359D01*
X616274Y-713885D01*
X607574Y-705184D01*
Y-672068D01*
X607378Y-671083D01*
X606820Y-670248D01*
X601323Y-664752D01*
Y-647774D01*
X608774D01*
Y-634226D01*
X601323D01*
Y-628566D01*
X602316Y-627573D01*
X621250D01*
X622235Y-627378D01*
X623070Y-626820D01*
X626488Y-623401D01*
X627046Y-622566D01*
X627242Y-621581D01*
Y-618777D01*
X634022D01*
Y-606729D01*
X615474D01*
Y-618777D01*
X622095D01*
Y-620515D01*
X620184Y-622426D01*
X603750D01*
Y-619274D01*
X608774D01*
Y-605726D01*
X603750D01*
Y-495000D01*
X608710D01*
Y-502500D01*
X632250D01*
X655790D01*
Y-495000D01*
X663750D01*
Y-566250D01*
D02*
G37*
G36*
X933750Y-490000D02*
X1018750D01*
Y-577500D01*
X885000D01*
Y-442500D01*
X933750D01*
Y-490000D01*
D02*
G37*
G36*
X988390Y-616970D02*
X1077047D01*
Y-624306D01*
X1066773D01*
Y-633846D01*
X1065503D01*
Y-635116D01*
X1052463D01*
Y-642500D01*
X1043981D01*
Y-637032D01*
X1016250D01*
Y-639483D01*
X1015238Y-639854D01*
X1014980Y-639904D01*
X1013190Y-638708D01*
X1012299Y-638531D01*
Y-650426D01*
Y-662322D01*
X1013190Y-662145D01*
X1014980Y-660949D01*
X1015238Y-660999D01*
X1016250Y-661370D01*
Y-669962D01*
X1015290Y-670710D01*
X1008520D01*
Y-680000D01*
X1007250D01*
Y-681270D01*
X999210D01*
Y-686251D01*
X975531D01*
X975531Y-770000D01*
X883750D01*
Y-595000D01*
X988390D01*
X988390Y-616970D01*
D02*
G37*
G36*
X301145Y-592807D02*
X241947Y-652005D01*
X240774Y-651519D01*
Y-636176D01*
X224726D01*
Y-641613D01*
X223456Y-642139D01*
X221323Y-640006D01*
Y-562500D01*
X301145D01*
Y-592807D01*
D02*
G37*
G36*
X1024999Y-662322D02*
X1025890Y-662145D01*
X1027723Y-660921D01*
X1028947Y-659088D01*
X1029318Y-657225D01*
X1030588Y-657350D01*
Y-662500D01*
X1052310D01*
Y-687500D01*
X1090000D01*
Y-757500D01*
X978750D01*
Y-688991D01*
X1018750D01*
Y-661559D01*
X1020020Y-661111D01*
X1021567Y-662145D01*
X1022459Y-662322D01*
Y-650426D01*
X1024999D01*
Y-662322D01*
D02*
G37*
G36*
X1090000Y-685000D02*
X1078543D01*
Y-679116D01*
X1065503D01*
Y-677846D01*
X1064233D01*
Y-668306D01*
X1053960D01*
Y-662500D01*
X1053750Y-661994D01*
Y-660980D01*
X1052622D01*
X1052310Y-660850D01*
X1041817D01*
X1041218Y-659730D01*
X1041647Y-659088D01*
X1042077Y-656926D01*
Y-651696D01*
X1036429D01*
Y-649156D01*
X1042077D01*
Y-645000D01*
X1079915D01*
Y-614283D01*
X1050020D01*
Y-560040D01*
X1057790D01*
Y-528770D01*
X1045250D01*
X1032710D01*
Y-557500D01*
X1023750D01*
Y-490000D01*
X1090000D01*
Y-685000D01*
D02*
G37*
G36*
X878750Y-747500D02*
X726250D01*
Y-626752D01*
X729980D01*
Y-624396D01*
X687560D01*
Y-577500D01*
X687500D01*
Y-567500D01*
X878750D01*
Y-747500D01*
D02*
G37*
G36*
X878750Y-775000D02*
X943750D01*
Y-932500D01*
X883750D01*
Y-865000D01*
X726250D01*
Y-752500D01*
X773710D01*
Y-767500D01*
X798750D01*
X823790D01*
Y-752500D01*
X878750D01*
Y-775000D01*
D02*
G37*
G36*
X1090000Y-932500D02*
X946250D01*
Y-775000D01*
X978750D01*
Y-762500D01*
X1024927D01*
Y-771050D01*
X1017556D01*
Y-785153D01*
X1037187D01*
Y-780573D01*
X1040726D01*
Y-792274D01*
Y-801774D01*
X1045676D01*
Y-818184D01*
X1042457Y-821404D01*
X1040021D01*
Y-817453D01*
X1021973D01*
Y-830501D01*
X1028424D01*
Y-834747D01*
X1028620Y-835732D01*
X1029177Y-836567D01*
X1048627Y-856017D01*
X1049462Y-856575D01*
X1050447Y-856770D01*
X1059685D01*
Y-861565D01*
X1067427D01*
Y-868934D01*
X1060184Y-876177D01*
X1046139D01*
X1045155Y-876372D01*
X1044320Y-876930D01*
X1034430Y-886820D01*
X1033872Y-887655D01*
X1033677Y-888639D01*
Y-892509D01*
X1031802Y-893011D01*
X1029174Y-894529D01*
X1027029Y-896674D01*
X1025511Y-899302D01*
X1024726Y-902233D01*
Y-905267D01*
X1025511Y-908198D01*
X1027029Y-910826D01*
X1029174Y-912971D01*
X1031802Y-914489D01*
X1034733Y-915274D01*
X1037767D01*
X1040698Y-914489D01*
X1043326Y-912971D01*
X1045471Y-910826D01*
X1046989Y-908198D01*
X1047774Y-905267D01*
Y-902233D01*
X1046989Y-899302D01*
X1045471Y-896674D01*
X1043326Y-894529D01*
X1040698Y-893011D01*
X1038823Y-892509D01*
Y-889705D01*
X1047205Y-881323D01*
X1061250D01*
X1062235Y-881128D01*
X1063070Y-880570D01*
X1071820Y-871820D01*
X1072378Y-870985D01*
X1072573Y-870000D01*
Y-861565D01*
X1080315D01*
Y-846956D01*
X1059685D01*
Y-851624D01*
X1051513D01*
X1033571Y-833681D01*
Y-830501D01*
X1040021D01*
Y-826551D01*
X1043523D01*
X1044508Y-826355D01*
X1045342Y-825797D01*
X1050070Y-821070D01*
X1050628Y-820235D01*
X1050824Y-819250D01*
Y-801774D01*
X1055774D01*
Y-792274D01*
Y-782774D01*
Y-773226D01*
X1040726D01*
Y-775426D01*
X1037187D01*
Y-771050D01*
X1030073D01*
Y-762500D01*
X1090000D01*
Y-932500D01*
D02*
G37*
G36*
X670000Y-860960D02*
X664250D01*
Y-890000D01*
Y-919040D01*
X670000D01*
Y-932500D01*
X607258D01*
Y-851250D01*
X670000D01*
Y-860960D01*
D02*
G37*
%LPC*%
G36*
X754215Y-66976D02*
X750785D01*
X747473Y-67863D01*
X744503Y-69578D01*
X742078Y-72003D01*
X740363Y-74973D01*
X739476Y-78285D01*
Y-81715D01*
X740363Y-85027D01*
X742078Y-87997D01*
X744503Y-90422D01*
X747473Y-92136D01*
X750785Y-93024D01*
X754215D01*
X757527Y-92136D01*
X760497Y-90422D01*
X762922Y-87997D01*
X764636Y-85027D01*
X765524Y-81715D01*
Y-78285D01*
X764636Y-74973D01*
X762922Y-72003D01*
X760497Y-69578D01*
X757527Y-67863D01*
X754215Y-66976D01*
D02*
G37*
G36*
X349215D02*
X345785D01*
X342473Y-67863D01*
X339503Y-69578D01*
X337078Y-72003D01*
X335364Y-74973D01*
X334476Y-78285D01*
Y-81715D01*
X335364Y-85027D01*
X337078Y-87997D01*
X339503Y-90422D01*
X342473Y-92136D01*
X345785Y-93024D01*
X349215D01*
X352527Y-92136D01*
X355497Y-90422D01*
X357922Y-87997D01*
X359636Y-85027D01*
X360524Y-81715D01*
Y-78285D01*
X359636Y-74973D01*
X357922Y-72003D01*
X355497Y-69578D01*
X352527Y-67863D01*
X349215Y-66976D01*
D02*
G37*
G36*
X744424Y-138416D02*
X742016D01*
X739691Y-139039D01*
X737606Y-140243D01*
X735903Y-141945D01*
X734699Y-144031D01*
X734076Y-146356D01*
Y-148764D01*
X734699Y-151089D01*
X735903Y-153174D01*
X737606Y-154877D01*
X739691Y-156081D01*
X742016Y-156704D01*
X744424D01*
X746749Y-156081D01*
X748835Y-154877D01*
X750537Y-153174D01*
X751741Y-151089D01*
X752364Y-148764D01*
Y-146356D01*
X751741Y-144031D01*
X750537Y-141945D01*
X748835Y-140243D01*
X746749Y-139039D01*
X744424Y-138416D01*
D02*
G37*
G36*
X719024D02*
X716616D01*
X714291Y-139039D01*
X712206Y-140243D01*
X710503Y-141945D01*
X709299Y-144031D01*
X708676Y-146356D01*
Y-148764D01*
X709299Y-151089D01*
X710503Y-153174D01*
X712206Y-154877D01*
X714291Y-156081D01*
X716616Y-156704D01*
X719024D01*
X721349Y-156081D01*
X723435Y-154877D01*
X725137Y-153174D01*
X726341Y-151089D01*
X726964Y-148764D01*
Y-146356D01*
X726341Y-144031D01*
X725137Y-141945D01*
X723435Y-140243D01*
X721349Y-139039D01*
X719024Y-138416D01*
D02*
G37*
G36*
X693624D02*
X691216D01*
X688891Y-139039D01*
X686805Y-140243D01*
X685103Y-141945D01*
X683899Y-144031D01*
X683276Y-146356D01*
Y-148764D01*
X683899Y-151089D01*
X685103Y-153174D01*
X686805Y-154877D01*
X688891Y-156081D01*
X691216Y-156704D01*
X693624D01*
X695949Y-156081D01*
X698035Y-154877D01*
X699737Y-153174D01*
X700941Y-151089D01*
X701564Y-148764D01*
Y-146356D01*
X700941Y-144031D01*
X699737Y-141945D01*
X698035Y-140243D01*
X695949Y-139039D01*
X693624Y-138416D01*
D02*
G37*
G36*
X668224D02*
X665816D01*
X663491Y-139039D01*
X661405Y-140243D01*
X659703Y-141945D01*
X658499Y-144031D01*
X657876Y-146356D01*
Y-148764D01*
X658499Y-151089D01*
X659703Y-153174D01*
X661405Y-154877D01*
X663491Y-156081D01*
X665816Y-156704D01*
X668224D01*
X670549Y-156081D01*
X672635Y-154877D01*
X674337Y-153174D01*
X675541Y-151089D01*
X676164Y-148764D01*
Y-146356D01*
X675541Y-144031D01*
X674337Y-141945D01*
X672635Y-140243D01*
X670549Y-139039D01*
X668224Y-138416D01*
D02*
G37*
G36*
X642824D02*
X640416D01*
X638091Y-139039D01*
X636006Y-140243D01*
X634303Y-141945D01*
X633099Y-144031D01*
X632476Y-146356D01*
Y-148764D01*
X633099Y-151089D01*
X634303Y-153174D01*
X636006Y-154877D01*
X638091Y-156081D01*
X640416Y-156704D01*
X642824D01*
X645150Y-156081D01*
X647235Y-154877D01*
X648937Y-153174D01*
X650141Y-151089D01*
X650764Y-148764D01*
Y-146356D01*
X650141Y-144031D01*
X648937Y-141945D01*
X647235Y-140243D01*
X645150Y-139039D01*
X642824Y-138416D01*
D02*
G37*
G36*
X566624D02*
X564216D01*
X561891Y-139039D01*
X559805Y-140243D01*
X558103Y-141945D01*
X556899Y-144031D01*
X556276Y-146356D01*
Y-148764D01*
X556899Y-151089D01*
X558103Y-153174D01*
X559805Y-154877D01*
X561891Y-156081D01*
X564216Y-156704D01*
X566624D01*
X568950Y-156081D01*
X571035Y-154877D01*
X572737Y-153174D01*
X573941Y-151089D01*
X574564Y-148764D01*
Y-146356D01*
X573941Y-144031D01*
X572737Y-141945D01*
X571035Y-140243D01*
X568950Y-139039D01*
X566624Y-138416D01*
D02*
G37*
G36*
X541224D02*
X538816D01*
X536491Y-139039D01*
X534406Y-140243D01*
X532703Y-141945D01*
X531499Y-144031D01*
X530876Y-146356D01*
Y-148764D01*
X531499Y-151089D01*
X532703Y-153174D01*
X534406Y-154877D01*
X536491Y-156081D01*
X538816Y-156704D01*
X541224D01*
X543549Y-156081D01*
X545635Y-154877D01*
X547337Y-153174D01*
X548541Y-151089D01*
X549164Y-148764D01*
Y-146356D01*
X548541Y-144031D01*
X547337Y-141945D01*
X545635Y-140243D01*
X543549Y-139039D01*
X541224Y-138416D01*
D02*
G37*
G36*
X490424D02*
X488016D01*
X485691Y-139039D01*
X483605Y-140243D01*
X481903Y-141945D01*
X480699Y-144031D01*
X480076Y-146356D01*
Y-148764D01*
X480699Y-151089D01*
X481903Y-153174D01*
X483605Y-154877D01*
X485691Y-156081D01*
X488016Y-156704D01*
X490424D01*
X492749Y-156081D01*
X494835Y-154877D01*
X496537Y-153174D01*
X497741Y-151089D01*
X498364Y-148764D01*
Y-146356D01*
X497741Y-144031D01*
X496537Y-141945D01*
X494835Y-140243D01*
X492749Y-139039D01*
X490424Y-138416D01*
D02*
G37*
G36*
X465024D02*
X462616D01*
X460291Y-139039D01*
X458205Y-140243D01*
X456503Y-141945D01*
X455299Y-144031D01*
X454676Y-146356D01*
Y-148764D01*
X455299Y-151089D01*
X456503Y-153174D01*
X458205Y-154877D01*
X460291Y-156081D01*
X462616Y-156704D01*
X465024D01*
X467350Y-156081D01*
X469435Y-154877D01*
X471137Y-153174D01*
X472341Y-151089D01*
X472964Y-148764D01*
Y-146356D01*
X472341Y-144031D01*
X471137Y-141945D01*
X469435Y-140243D01*
X467350Y-139039D01*
X465024Y-138416D01*
D02*
G37*
G36*
X439624D02*
X437216D01*
X434891Y-139039D01*
X432805Y-140243D01*
X431103Y-141945D01*
X429899Y-144031D01*
X429276Y-146356D01*
Y-148764D01*
X429899Y-151089D01*
X431103Y-153174D01*
X432805Y-154877D01*
X434891Y-156081D01*
X437216Y-156704D01*
X439624D01*
X441950Y-156081D01*
X444035Y-154877D01*
X445737Y-153174D01*
X446941Y-151089D01*
X447564Y-148764D01*
Y-146356D01*
X446941Y-144031D01*
X445737Y-141945D01*
X444035Y-140243D01*
X441950Y-139039D01*
X439624Y-138416D01*
D02*
G37*
G36*
X902524Y-189226D02*
X884976D01*
Y-210774D01*
X902524D01*
Y-201304D01*
X911288D01*
X911413Y-201769D01*
X912449Y-203565D01*
X913915Y-205031D01*
X915711Y-206067D01*
X917713Y-206604D01*
X919787D01*
X921789Y-206067D01*
X923585Y-205031D01*
X925051Y-203565D01*
X926087Y-201769D01*
X926212Y-201304D01*
X935268D01*
Y-208845D01*
X957316D01*
Y-190797D01*
X935268D01*
Y-196157D01*
X926212D01*
X926087Y-195691D01*
X925051Y-193895D01*
X923585Y-192429D01*
X921789Y-191393D01*
X919787Y-190856D01*
X917713D01*
X915711Y-191393D01*
X913915Y-192429D01*
X912449Y-193895D01*
X911413Y-195691D01*
X911288Y-196157D01*
X902524D01*
Y-189226D01*
D02*
G37*
G36*
X957316Y-220797D02*
X935268D01*
Y-227426D01*
X926212D01*
X926087Y-226961D01*
X925051Y-225165D01*
X923585Y-223699D01*
X921789Y-222663D01*
X919787Y-222126D01*
X917713D01*
X915711Y-222663D01*
X913915Y-223699D01*
X912449Y-225165D01*
X911413Y-226961D01*
X910876Y-228963D01*
Y-231037D01*
X911413Y-233039D01*
X912449Y-234835D01*
X913915Y-236301D01*
X915711Y-237337D01*
X917713Y-237874D01*
X919787D01*
X921789Y-237337D01*
X923585Y-236301D01*
X925051Y-234835D01*
X926087Y-233039D01*
X926212Y-232573D01*
X935268D01*
Y-238845D01*
X957316D01*
Y-220797D01*
D02*
G37*
G36*
X617424Y-138416D02*
X615016D01*
X612691Y-139039D01*
X610606Y-140243D01*
X608903Y-141945D01*
X607699Y-144031D01*
X607076Y-146356D01*
Y-148764D01*
X607699Y-151089D01*
X608903Y-153174D01*
X610606Y-154877D01*
X612691Y-156081D01*
X613647Y-156337D01*
Y-172714D01*
X613180Y-173180D01*
X612622Y-174015D01*
X612426Y-175000D01*
Y-237538D01*
X611961Y-237663D01*
X610165Y-238699D01*
X608699Y-240165D01*
X607663Y-241961D01*
X607126Y-243963D01*
Y-246037D01*
X607663Y-248039D01*
X608699Y-249835D01*
X610165Y-251301D01*
X611961Y-252337D01*
X613963Y-252874D01*
X616037D01*
X618039Y-252337D01*
X619835Y-251301D01*
X621301Y-249835D01*
X622337Y-248039D01*
X622874Y-246037D01*
Y-243963D01*
X622337Y-241961D01*
X621301Y-240165D01*
X619835Y-238699D01*
X618039Y-237663D01*
X617573Y-237538D01*
Y-176066D01*
X618040Y-175600D01*
X618598Y-174765D01*
X618793Y-173780D01*
Y-156337D01*
X619749Y-156081D01*
X621835Y-154877D01*
X623537Y-153174D01*
X624741Y-151089D01*
X625364Y-148764D01*
Y-146356D01*
X624741Y-144031D01*
X623537Y-141945D01*
X621835Y-140243D01*
X619749Y-139039D01*
X617424Y-138416D01*
D02*
G37*
G36*
X131037Y-254626D02*
X128963D01*
X126961Y-255163D01*
X125165Y-256199D01*
X123699Y-257665D01*
X122663Y-259461D01*
X122126Y-261463D01*
Y-263537D01*
X122663Y-265539D01*
X123699Y-267335D01*
X125165Y-268801D01*
X126961Y-269837D01*
X127427Y-269962D01*
Y-272476D01*
X120976D01*
Y-285524D01*
X139024D01*
Y-272476D01*
X132573D01*
Y-269962D01*
X133039Y-269837D01*
X134835Y-268801D01*
X136301Y-267335D01*
X137337Y-265539D01*
X137874Y-263537D01*
Y-261463D01*
X137337Y-259461D01*
X136301Y-257665D01*
X134835Y-256199D01*
X133039Y-255163D01*
X131037Y-254626D01*
D02*
G37*
G36*
X98537D02*
X96463D01*
X94461Y-255163D01*
X92665Y-256199D01*
X91199Y-257665D01*
X90163Y-259461D01*
X89626Y-261463D01*
Y-263537D01*
X90163Y-265539D01*
X91199Y-267335D01*
X92665Y-268801D01*
X94461Y-269837D01*
X94927Y-269962D01*
Y-272476D01*
X88476D01*
Y-285524D01*
X106524D01*
Y-272476D01*
X100073D01*
Y-269962D01*
X100539Y-269837D01*
X102335Y-268801D01*
X103801Y-267335D01*
X104837Y-265539D01*
X105374Y-263537D01*
Y-261463D01*
X104837Y-259461D01*
X103801Y-257665D01*
X102335Y-256199D01*
X100539Y-255163D01*
X98537Y-254626D01*
D02*
G37*
G36*
X629787Y-174626D02*
X627713D01*
X625711Y-175163D01*
X623915Y-176199D01*
X622449Y-177665D01*
X621413Y-179461D01*
X620876Y-181463D01*
Y-183537D01*
X621413Y-185539D01*
X622449Y-187335D01*
X623915Y-188801D01*
X625711Y-189837D01*
X626176Y-189962D01*
Y-296882D01*
X624907Y-297049D01*
X624741Y-296430D01*
X623537Y-294345D01*
X621835Y-292643D01*
X619749Y-291439D01*
X617424Y-290816D01*
X615016D01*
X612691Y-291439D01*
X610606Y-292643D01*
X608903Y-294345D01*
X607699Y-296430D01*
X607076Y-298756D01*
Y-301164D01*
X607699Y-303489D01*
X608903Y-305574D01*
X610606Y-307277D01*
X612691Y-308481D01*
X615016Y-309104D01*
X617424D01*
X619749Y-308481D01*
X621835Y-307277D01*
X623537Y-305574D01*
X624741Y-303489D01*
X624907Y-302871D01*
X626176Y-303038D01*
Y-354871D01*
X626372Y-355856D01*
X626930Y-356691D01*
X633289Y-363050D01*
X634124Y-363608D01*
X635109Y-363803D01*
X636226D01*
Y-370254D01*
X649274D01*
Y-352206D01*
X636226D01*
Y-356912D01*
X634956Y-357438D01*
X631324Y-353805D01*
Y-301769D01*
X632593Y-301602D01*
X633099Y-303489D01*
X634303Y-305574D01*
X636006Y-307277D01*
X638091Y-308481D01*
X640416Y-309104D01*
X642824D01*
X645150Y-308481D01*
X647235Y-307277D01*
X648937Y-305574D01*
X650141Y-303489D01*
X650764Y-301164D01*
Y-298756D01*
X650141Y-296430D01*
X648937Y-294345D01*
X647235Y-292643D01*
X645150Y-291439D01*
X642824Y-290816D01*
X640416D01*
X638091Y-291439D01*
X636006Y-292643D01*
X634303Y-294345D01*
X633099Y-296430D01*
X632593Y-298318D01*
X631324Y-298151D01*
Y-189962D01*
X631789Y-189837D01*
X633585Y-188801D01*
X635051Y-187335D01*
X636087Y-185539D01*
X636624Y-183537D01*
Y-181463D01*
X636087Y-179461D01*
X635051Y-177665D01*
X633585Y-176199D01*
X631789Y-175163D01*
X629787Y-174626D01*
D02*
G37*
G36*
X744558Y-289800D02*
X744490D01*
Y-298690D01*
X753380D01*
Y-298622D01*
X752688Y-296038D01*
X751350Y-293722D01*
X749458Y-291830D01*
X747142Y-290492D01*
X744558Y-289800D01*
D02*
G37*
G36*
X741950D02*
X741882D01*
X739298Y-290492D01*
X736982Y-291830D01*
X735090Y-293722D01*
X733752Y-296038D01*
X733060Y-298622D01*
Y-298690D01*
X741950D01*
Y-289800D01*
D02*
G37*
G36*
X719024Y-290816D02*
X716616D01*
X714291Y-291439D01*
X712206Y-292643D01*
X710503Y-294345D01*
X709299Y-296430D01*
X708676Y-298756D01*
Y-301164D01*
X709299Y-303489D01*
X710503Y-305574D01*
X712206Y-307277D01*
X714291Y-308481D01*
X716616Y-309104D01*
X719024D01*
X721349Y-308481D01*
X723435Y-307277D01*
X725137Y-305574D01*
X726341Y-303489D01*
X726964Y-301164D01*
Y-298756D01*
X726341Y-296430D01*
X725137Y-294345D01*
X723435Y-292643D01*
X721349Y-291439D01*
X719024Y-290816D01*
D02*
G37*
G36*
X693624D02*
X691216D01*
X688891Y-291439D01*
X686805Y-292643D01*
X685103Y-294345D01*
X683899Y-296430D01*
X683276Y-298756D01*
Y-301164D01*
X683899Y-303489D01*
X685103Y-305574D01*
X686805Y-307277D01*
X688891Y-308481D01*
X691216Y-309104D01*
X693624D01*
X695949Y-308481D01*
X698035Y-307277D01*
X699737Y-305574D01*
X700941Y-303489D01*
X701564Y-301164D01*
Y-298756D01*
X700941Y-296430D01*
X699737Y-294345D01*
X698035Y-292643D01*
X695949Y-291439D01*
X693624Y-290816D01*
D02*
G37*
G36*
X668224D02*
X665816D01*
X663491Y-291439D01*
X661405Y-292643D01*
X659703Y-294345D01*
X658499Y-296430D01*
X657876Y-298756D01*
Y-301164D01*
X658499Y-303489D01*
X659703Y-305574D01*
X661405Y-307277D01*
X663491Y-308481D01*
X665816Y-309104D01*
X668224D01*
X670549Y-308481D01*
X672635Y-307277D01*
X674337Y-305574D01*
X675541Y-303489D01*
X676164Y-301164D01*
Y-298756D01*
X675541Y-296430D01*
X674337Y-294345D01*
X672635Y-292643D01*
X670549Y-291439D01*
X668224Y-290816D01*
D02*
G37*
G36*
X566624D02*
X564216D01*
X561891Y-291439D01*
X559805Y-292643D01*
X558103Y-294345D01*
X556899Y-296430D01*
X556276Y-298756D01*
Y-301164D01*
X556899Y-303489D01*
X558103Y-305574D01*
X559805Y-307277D01*
X561891Y-308481D01*
X564216Y-309104D01*
X566624D01*
X568950Y-308481D01*
X571035Y-307277D01*
X572737Y-305574D01*
X573941Y-303489D01*
X574564Y-301164D01*
Y-298756D01*
X573941Y-296430D01*
X572737Y-294345D01*
X571035Y-292643D01*
X568950Y-291439D01*
X566624Y-290816D01*
D02*
G37*
G36*
X541224D02*
X538816D01*
X536491Y-291439D01*
X534406Y-292643D01*
X532703Y-294345D01*
X531499Y-296430D01*
X530876Y-298756D01*
Y-301164D01*
X531499Y-303489D01*
X532703Y-305574D01*
X534406Y-307277D01*
X536491Y-308481D01*
X538816Y-309104D01*
X541224D01*
X543549Y-308481D01*
X545635Y-307277D01*
X547337Y-305574D01*
X548541Y-303489D01*
X549164Y-301164D01*
Y-298756D01*
X548541Y-296430D01*
X547337Y-294345D01*
X545635Y-292643D01*
X543549Y-291439D01*
X541224Y-290816D01*
D02*
G37*
G36*
X515824D02*
X513416D01*
X511091Y-291439D01*
X509006Y-292643D01*
X507303Y-294345D01*
X506099Y-296430D01*
X505476Y-298756D01*
Y-301164D01*
X506099Y-303489D01*
X507303Y-305574D01*
X509006Y-307277D01*
X511091Y-308481D01*
X513416Y-309104D01*
X515824D01*
X518149Y-308481D01*
X520235Y-307277D01*
X521937Y-305574D01*
X523141Y-303489D01*
X523764Y-301164D01*
Y-298756D01*
X523141Y-296430D01*
X521937Y-294345D01*
X520235Y-292643D01*
X518149Y-291439D01*
X515824Y-290816D01*
D02*
G37*
G36*
X490424D02*
X488016D01*
X485691Y-291439D01*
X483605Y-292643D01*
X481903Y-294345D01*
X480699Y-296430D01*
X480076Y-298756D01*
Y-301164D01*
X480699Y-303489D01*
X481903Y-305574D01*
X483605Y-307277D01*
X485691Y-308481D01*
X488016Y-309104D01*
X490424D01*
X492749Y-308481D01*
X494835Y-307277D01*
X496537Y-305574D01*
X497741Y-303489D01*
X498364Y-301164D01*
Y-298756D01*
X497741Y-296430D01*
X496537Y-294345D01*
X494835Y-292643D01*
X492749Y-291439D01*
X490424Y-290816D01*
D02*
G37*
G36*
X465024D02*
X462616D01*
X460291Y-291439D01*
X458205Y-292643D01*
X456503Y-294345D01*
X455299Y-296430D01*
X454676Y-298756D01*
Y-301164D01*
X455299Y-303489D01*
X456503Y-305574D01*
X458205Y-307277D01*
X460291Y-308481D01*
X462616Y-309104D01*
X465024D01*
X467350Y-308481D01*
X469435Y-307277D01*
X471137Y-305574D01*
X472341Y-303489D01*
X472964Y-301164D01*
Y-298756D01*
X472341Y-296430D01*
X471137Y-294345D01*
X469435Y-292643D01*
X467350Y-291439D01*
X465024Y-290816D01*
D02*
G37*
G36*
X414224D02*
X411816D01*
X409491Y-291439D01*
X407406Y-292643D01*
X405703Y-294345D01*
X404499Y-296430D01*
X403876Y-298756D01*
Y-301164D01*
X404499Y-303489D01*
X405703Y-305574D01*
X407406Y-307277D01*
X409491Y-308481D01*
X411816Y-309104D01*
X414224D01*
X416549Y-308481D01*
X418635Y-307277D01*
X420337Y-305574D01*
X421541Y-303489D01*
X422164Y-301164D01*
Y-298756D01*
X421541Y-296430D01*
X420337Y-294345D01*
X418635Y-292643D01*
X416549Y-291439D01*
X414224Y-290816D01*
D02*
G37*
G36*
X140040Y-303460D02*
X131270D01*
Y-309730D01*
X140040D01*
Y-303460D01*
D02*
G37*
G36*
X107540D02*
X98770D01*
Y-309730D01*
X107540D01*
Y-303460D01*
D02*
G37*
G36*
X128730D02*
X119960D01*
Y-309730D01*
X128730D01*
Y-303460D01*
D02*
G37*
G36*
X96230D02*
X87460D01*
Y-309730D01*
X96230D01*
Y-303460D01*
D02*
G37*
G36*
X753380Y-301230D02*
X744490D01*
Y-310120D01*
X744558D01*
X747142Y-309428D01*
X749458Y-308090D01*
X751350Y-306198D01*
X752688Y-303882D01*
X753380Y-301298D01*
Y-301230D01*
D02*
G37*
G36*
X741950D02*
X733060D01*
Y-301298D01*
X733752Y-303882D01*
X735090Y-306198D01*
X736982Y-308090D01*
X739298Y-309428D01*
X741882Y-310120D01*
X741950D01*
Y-301230D01*
D02*
G37*
G36*
X140040Y-312270D02*
X131270D01*
Y-318540D01*
X140040D01*
Y-312270D01*
D02*
G37*
G36*
X128730D02*
X119960D01*
Y-318540D01*
X128730D01*
Y-312270D01*
D02*
G37*
G36*
X107540D02*
X98770D01*
Y-318540D01*
X107540D01*
Y-312270D01*
D02*
G37*
G36*
X96230D02*
X87460D01*
Y-318540D01*
X96230D01*
Y-312270D01*
D02*
G37*
G36*
X975888Y-317340D02*
X975820D01*
Y-326230D01*
X984710D01*
Y-326162D01*
X984018Y-323578D01*
X982680Y-321262D01*
X980788Y-319370D01*
X978472Y-318032D01*
X975888Y-317340D01*
D02*
G37*
G36*
X973280D02*
X973212D01*
X970628Y-318032D01*
X968312Y-319370D01*
X966420Y-321262D01*
X965082Y-323578D01*
X964390Y-326162D01*
Y-326230D01*
X973280D01*
Y-317340D01*
D02*
G37*
G36*
X950354Y-318356D02*
X947946D01*
X945620Y-318979D01*
X943536Y-320183D01*
X941833Y-321885D01*
X940629Y-323970D01*
X940006Y-326296D01*
Y-328704D01*
X940629Y-331030D01*
X941833Y-333115D01*
X943536Y-334817D01*
X945620Y-336021D01*
X947946Y-336644D01*
X950354D01*
X952680Y-336021D01*
X954764Y-334817D01*
X956467Y-333115D01*
X957671Y-331030D01*
X958294Y-328704D01*
Y-326296D01*
X957671Y-323970D01*
X956467Y-321885D01*
X954764Y-320183D01*
X952680Y-318979D01*
X950354Y-318356D01*
D02*
G37*
G36*
X924954D02*
X922546D01*
X920220Y-318979D01*
X918136Y-320183D01*
X916433Y-321885D01*
X915229Y-323970D01*
X914606Y-326296D01*
Y-328704D01*
X915229Y-331030D01*
X916433Y-333115D01*
X918136Y-334817D01*
X920220Y-336021D01*
X922546Y-336644D01*
X924954D01*
X927280Y-336021D01*
X929364Y-334817D01*
X931067Y-333115D01*
X932271Y-331030D01*
X932894Y-328704D01*
Y-326296D01*
X932271Y-323970D01*
X931067Y-321885D01*
X929364Y-320183D01*
X927280Y-318979D01*
X924954Y-318356D01*
D02*
G37*
G36*
X872524Y-189226D02*
X854976D01*
Y-210774D01*
X861177D01*
Y-221250D01*
X861372Y-222235D01*
X861930Y-223070D01*
X895777Y-256916D01*
Y-318723D01*
X894820Y-318979D01*
X892736Y-320183D01*
X891033Y-321885D01*
X889829Y-323970D01*
X889206Y-326296D01*
Y-328704D01*
X889829Y-331030D01*
X891033Y-333115D01*
X892736Y-334817D01*
X894820Y-336021D01*
X897146Y-336644D01*
X899554D01*
X901880Y-336021D01*
X903964Y-334817D01*
X905667Y-333115D01*
X906871Y-331030D01*
X907494Y-328704D01*
Y-326296D01*
X906871Y-323970D01*
X905667Y-321885D01*
X903964Y-320183D01*
X901880Y-318979D01*
X900923Y-318723D01*
Y-255850D01*
X900728Y-254865D01*
X900170Y-254030D01*
X866323Y-220184D01*
Y-210774D01*
X872524D01*
Y-189226D01*
D02*
G37*
G36*
X984710Y-328770D02*
X975820D01*
Y-337660D01*
X975888D01*
X978472Y-336968D01*
X980788Y-335630D01*
X982680Y-333738D01*
X984018Y-331422D01*
X984710Y-328838D01*
Y-328770D01*
D02*
G37*
G36*
X973280D02*
X964390D01*
Y-328838D01*
X965082Y-331422D01*
X966420Y-333738D01*
X968312Y-335630D01*
X970628Y-336968D01*
X973212Y-337660D01*
X973280D01*
Y-328770D01*
D02*
G37*
G36*
X282701Y-319276D02*
X279799D01*
X276995Y-320027D01*
X274481Y-321479D01*
X272429Y-323531D01*
X270977Y-326045D01*
X270226Y-328849D01*
Y-331751D01*
X270977Y-334555D01*
X272429Y-337069D01*
X274481Y-339121D01*
X276995Y-340573D01*
X279799Y-341324D01*
X282701D01*
X285505Y-340573D01*
X288019Y-339121D01*
X290071Y-337069D01*
X291523Y-334555D01*
X292274Y-331751D01*
Y-328849D01*
X291523Y-326045D01*
X290071Y-323531D01*
X288019Y-321479D01*
X285505Y-320027D01*
X282701Y-319276D01*
D02*
G37*
G36*
X232701D02*
X229799D01*
X226995Y-320027D01*
X224481Y-321479D01*
X222429Y-323531D01*
X220977Y-326045D01*
X220226Y-328849D01*
Y-331751D01*
X220977Y-334555D01*
X222429Y-337069D01*
X224481Y-339121D01*
X226995Y-340573D01*
X229799Y-341324D01*
X232701D01*
X235505Y-340573D01*
X238019Y-339121D01*
X240071Y-337069D01*
X241523Y-334555D01*
X242274Y-331751D01*
Y-328849D01*
X241523Y-326045D01*
X240071Y-323531D01*
X238019Y-321479D01*
X235505Y-320027D01*
X232701Y-319276D01*
D02*
G37*
G36*
X182701D02*
X179799D01*
X176995Y-320027D01*
X174481Y-321479D01*
X172429Y-323531D01*
X170977Y-326045D01*
X170226Y-328849D01*
Y-331751D01*
X170977Y-334555D01*
X172429Y-337069D01*
X174481Y-339121D01*
X176995Y-340573D01*
X179799Y-341324D01*
X182701D01*
X185505Y-340573D01*
X188019Y-339121D01*
X190071Y-337069D01*
X191523Y-334555D01*
X192274Y-331751D01*
Y-328849D01*
X191523Y-326045D01*
X190071Y-323531D01*
X188019Y-321479D01*
X185505Y-320027D01*
X182701Y-319276D01*
D02*
G37*
G36*
X349787Y-322126D02*
X347713D01*
X345711Y-322663D01*
X343915Y-323699D01*
X342449Y-325165D01*
X341413Y-326961D01*
X340876Y-328963D01*
Y-331037D01*
X341413Y-333039D01*
X342449Y-334835D01*
X343915Y-336301D01*
X345711Y-337337D01*
X346176Y-337462D01*
Y-342476D01*
X339726D01*
Y-355524D01*
X357774D01*
Y-342476D01*
X351323D01*
Y-337462D01*
X351789Y-337337D01*
X353585Y-336301D01*
X355051Y-334835D01*
X356087Y-333039D01*
X356624Y-331037D01*
Y-328963D01*
X356087Y-326961D01*
X355051Y-325165D01*
X353585Y-323699D01*
X351789Y-322663D01*
X349787Y-322126D01*
D02*
G37*
G36*
X719668Y-351195D02*
X702620D01*
Y-358657D01*
X681274D01*
Y-352206D01*
X668226D01*
Y-370254D01*
X681274D01*
Y-363803D01*
X702620D01*
Y-369243D01*
X719668D01*
Y-351195D01*
D02*
G37*
G36*
X742038Y-331492D02*
X739964D01*
X737962Y-332028D01*
X736166Y-333065D01*
X734700Y-334531D01*
X733663Y-336326D01*
X733127Y-338329D01*
Y-340402D01*
X733663Y-342405D01*
X734700Y-344200D01*
X736166Y-345667D01*
X737962Y-346703D01*
X738427Y-346828D01*
Y-351195D01*
X732620D01*
Y-369243D01*
X749668D01*
Y-351195D01*
X743574D01*
Y-346828D01*
X744040Y-346703D01*
X745836Y-345667D01*
X747302Y-344200D01*
X748338Y-342405D01*
X748875Y-340402D01*
Y-338329D01*
X748338Y-336326D01*
X747302Y-334531D01*
X745836Y-333065D01*
X744040Y-332028D01*
X742038Y-331492D01*
D02*
G37*
G36*
X999215Y-366976D02*
X995785D01*
X992473Y-367864D01*
X989503Y-369578D01*
X987078Y-372003D01*
X985364Y-374973D01*
X984476Y-378285D01*
Y-381715D01*
X985364Y-385027D01*
X987078Y-387997D01*
X989503Y-390422D01*
X992473Y-392136D01*
X995785Y-393024D01*
X999215D01*
X1002527Y-392136D01*
X1005497Y-390422D01*
X1007922Y-387997D01*
X1009637Y-385027D01*
X1010524Y-381715D01*
Y-378285D01*
X1009637Y-374973D01*
X1007922Y-372003D01*
X1005497Y-369578D01*
X1002527Y-367864D01*
X999215Y-366976D01*
D02*
G37*
G36*
X104215D02*
X100785D01*
X97473Y-367864D01*
X94503Y-369578D01*
X92078Y-372003D01*
X90364Y-374973D01*
X89476Y-378285D01*
Y-381715D01*
X90364Y-385027D01*
X92078Y-387997D01*
X94503Y-390422D01*
X97473Y-392136D01*
X100785Y-393024D01*
X104215D01*
X107527Y-392136D01*
X110497Y-390422D01*
X112922Y-387997D01*
X114636Y-385027D01*
X115524Y-381715D01*
Y-378285D01*
X114636Y-374973D01*
X112922Y-372003D01*
X110497Y-369578D01*
X107527Y-367864D01*
X104215Y-366976D01*
D02*
G37*
G36*
X357774Y-374476D02*
X339726D01*
Y-387524D01*
X346176D01*
Y-392538D01*
X345711Y-392663D01*
X343915Y-393699D01*
X342449Y-395165D01*
X341413Y-396961D01*
X340876Y-398963D01*
Y-401037D01*
X341413Y-403039D01*
X342449Y-404835D01*
X343915Y-406301D01*
X345711Y-407337D01*
X347713Y-407874D01*
X349787D01*
X351789Y-407337D01*
X353585Y-406301D01*
X355051Y-404835D01*
X356087Y-403039D01*
X356624Y-401037D01*
Y-398963D01*
X356087Y-396961D01*
X355051Y-395165D01*
X353585Y-393699D01*
X351789Y-392663D01*
X351323Y-392538D01*
Y-387524D01*
X357774D01*
Y-374476D01*
D02*
G37*
G36*
X1047767Y-438476D02*
X1044733D01*
X1041802Y-439261D01*
X1039174Y-440779D01*
X1037029Y-442924D01*
X1035511Y-445552D01*
X1035009Y-447426D01*
X1027462D01*
X1027337Y-446961D01*
X1026301Y-445165D01*
X1024835Y-443699D01*
X1023039Y-442663D01*
X1021037Y-442126D01*
X1018963D01*
X1016961Y-442663D01*
X1015165Y-443699D01*
X1013699Y-445165D01*
X1012663Y-446961D01*
X1012126Y-448963D01*
Y-451037D01*
X1012663Y-453039D01*
X1013699Y-454835D01*
X1015165Y-456301D01*
X1016961Y-457337D01*
X1018963Y-457874D01*
X1021037D01*
X1023039Y-457337D01*
X1024835Y-456301D01*
X1026301Y-454835D01*
X1027337Y-453039D01*
X1027462Y-452573D01*
X1035009D01*
X1035511Y-454448D01*
X1037029Y-457076D01*
X1039174Y-459221D01*
X1041802Y-460739D01*
X1044733Y-461524D01*
X1047767D01*
X1050698Y-460739D01*
X1053326Y-459221D01*
X1055471Y-457076D01*
X1056989Y-454448D01*
X1057774Y-451517D01*
Y-448483D01*
X1056989Y-445552D01*
X1055471Y-442924D01*
X1053326Y-440779D01*
X1050698Y-439261D01*
X1047767Y-438476D01*
D02*
G37*
G36*
X1075401Y-437460D02*
X1075020D01*
Y-448730D01*
X1086290D01*
Y-448349D01*
X1085435Y-445160D01*
X1083784Y-442300D01*
X1081450Y-439966D01*
X1078590Y-438315D01*
X1075401Y-437460D01*
D02*
G37*
G36*
X1072480D02*
X1072099D01*
X1068910Y-438315D01*
X1066050Y-439966D01*
X1063716Y-442300D01*
X1062065Y-445160D01*
X1061210Y-448349D01*
Y-448730D01*
X1072480D01*
Y-437460D01*
D02*
G37*
G36*
X1086290Y-451270D02*
X1075020D01*
Y-462540D01*
X1075401D01*
X1078590Y-461685D01*
X1081450Y-460034D01*
X1083784Y-457700D01*
X1085435Y-454840D01*
X1086290Y-451651D01*
Y-451270D01*
D02*
G37*
G36*
X1072480D02*
X1061210D01*
Y-451651D01*
X1062065Y-454840D01*
X1063716Y-457700D01*
X1066050Y-460034D01*
X1068910Y-461685D01*
X1072099Y-462540D01*
X1072480D01*
Y-451270D01*
D02*
G37*
G36*
X979990Y-446710D02*
X969820D01*
Y-463730D01*
X979990D01*
Y-446710D01*
D02*
G37*
G36*
X967280D02*
X957110D01*
Y-463730D01*
X967280D01*
Y-446710D01*
D02*
G37*
G36*
X979990Y-466270D02*
X969820D01*
Y-483290D01*
X979990D01*
Y-466270D01*
D02*
G37*
G36*
X967280D02*
X957110D01*
Y-483290D01*
X967280D01*
Y-466270D01*
D02*
G37*
G36*
X348857Y-483190D02*
X337837D01*
Y-494210D01*
X348857D01*
Y-483190D01*
D02*
G37*
G36*
X335297D02*
X324277D01*
Y-494210D01*
X335297D01*
Y-483190D01*
D02*
G37*
G36*
X208857D02*
X197837D01*
Y-494210D01*
X208857D01*
Y-483190D01*
D02*
G37*
G36*
X195297D02*
X184277D01*
Y-494210D01*
X195297D01*
Y-483190D01*
D02*
G37*
G36*
X68857D02*
X57837D01*
Y-494210D01*
X68857D01*
Y-483190D01*
D02*
G37*
G36*
X55297D02*
X44277D01*
Y-494210D01*
X55297D01*
Y-483190D01*
D02*
G37*
G36*
X388051Y-484206D02*
X385083D01*
X382215Y-484975D01*
X379645Y-486459D01*
X377545Y-488558D01*
X376061Y-491129D01*
X375293Y-493996D01*
Y-496964D01*
X376061Y-499832D01*
X377545Y-502403D01*
X379645Y-504502D01*
X382215Y-505986D01*
X385083Y-506754D01*
X388051D01*
X390918Y-505986D01*
X393489Y-504502D01*
X395588Y-502403D01*
X397072Y-499832D01*
X397841Y-496964D01*
Y-493996D01*
X397072Y-491129D01*
X395588Y-488558D01*
X393489Y-486459D01*
X390918Y-484975D01*
X388051Y-484206D01*
D02*
G37*
G36*
X237287Y-127126D02*
X235213D01*
X233211Y-127663D01*
X231415Y-128699D01*
X229949Y-130165D01*
X228913Y-131961D01*
X228376Y-133963D01*
Y-136037D01*
X228913Y-138039D01*
X229949Y-139835D01*
X231415Y-141301D01*
X233211Y-142337D01*
X233676Y-142462D01*
Y-151250D01*
X233872Y-152235D01*
X234430Y-153070D01*
X259927Y-178566D01*
Y-363657D01*
X244747Y-378836D01*
X244189Y-379671D01*
X243993Y-380656D01*
Y-484498D01*
X242215Y-484975D01*
X239645Y-486459D01*
X237545Y-488558D01*
X236061Y-491129D01*
X235293Y-493996D01*
Y-496964D01*
X236061Y-499832D01*
X237545Y-502403D01*
X239645Y-504502D01*
X242215Y-505986D01*
X245083Y-506754D01*
X248051D01*
X250918Y-505986D01*
X253489Y-504502D01*
X255588Y-502403D01*
X257073Y-499832D01*
X257841Y-496964D01*
Y-493996D01*
X257073Y-491129D01*
X255588Y-488558D01*
X253489Y-486459D01*
X250918Y-484975D01*
X249140Y-484498D01*
Y-381722D01*
X264320Y-366542D01*
X264878Y-365708D01*
X265074Y-364723D01*
Y-177500D01*
X264878Y-176515D01*
X264320Y-175680D01*
X238823Y-150184D01*
Y-142462D01*
X239289Y-142337D01*
X241085Y-141301D01*
X242551Y-139835D01*
X243587Y-138039D01*
X244124Y-136037D01*
Y-133963D01*
X243587Y-131961D01*
X242551Y-130165D01*
X241085Y-128699D01*
X239289Y-127663D01*
X237287Y-127126D01*
D02*
G37*
G36*
X134787Y-134626D02*
X132713D01*
X130711Y-135163D01*
X128915Y-136199D01*
X127449Y-137665D01*
X126413Y-139461D01*
X125876Y-141463D01*
Y-143537D01*
X126413Y-145539D01*
X127449Y-147335D01*
X128915Y-148801D01*
X130711Y-149837D01*
X131177Y-149962D01*
Y-152684D01*
X68180Y-215680D01*
X67622Y-216515D01*
X67427Y-217500D01*
Y-377500D01*
X67622Y-378485D01*
X68180Y-379320D01*
X103993Y-415133D01*
Y-484498D01*
X102215Y-484975D01*
X99644Y-486459D01*
X97545Y-488558D01*
X96061Y-491129D01*
X95293Y-493996D01*
Y-496964D01*
X96061Y-499832D01*
X97545Y-502403D01*
X99644Y-504502D01*
X102215Y-505986D01*
X105083Y-506754D01*
X108051D01*
X110918Y-505986D01*
X113489Y-504502D01*
X115588Y-502403D01*
X117072Y-499832D01*
X117841Y-496964D01*
Y-493996D01*
X117072Y-491129D01*
X115588Y-488558D01*
X113489Y-486459D01*
X110918Y-484975D01*
X109140Y-484498D01*
Y-414067D01*
X108944Y-413082D01*
X108386Y-412247D01*
X72573Y-376434D01*
Y-218566D01*
X135570Y-155570D01*
X136128Y-154735D01*
X136323Y-153750D01*
Y-149962D01*
X136789Y-149837D01*
X138585Y-148801D01*
X140051Y-147335D01*
X141087Y-145539D01*
X141624Y-143537D01*
Y-141463D01*
X141087Y-139461D01*
X140051Y-137665D01*
X138585Y-136199D01*
X136789Y-135163D01*
X134787Y-134626D01*
D02*
G37*
G36*
X348857Y-496750D02*
X337837D01*
Y-507770D01*
X348857D01*
Y-496750D01*
D02*
G37*
G36*
X335297D02*
X324277D01*
Y-507770D01*
X335297D01*
Y-496750D01*
D02*
G37*
G36*
X208857D02*
X197837D01*
Y-507770D01*
X208857D01*
Y-496750D01*
D02*
G37*
G36*
X195297D02*
X184277D01*
Y-507770D01*
X195297D01*
Y-496750D01*
D02*
G37*
G36*
X68857D02*
X57837D01*
Y-507770D01*
X68857D01*
Y-496750D01*
D02*
G37*
G36*
X55297D02*
X44277D01*
Y-507770D01*
X55297D01*
Y-496750D01*
D02*
G37*
G36*
X820401Y-409960D02*
X820020D01*
Y-421230D01*
X831290D01*
Y-420849D01*
X830435Y-417660D01*
X828784Y-414800D01*
X826450Y-412466D01*
X823590Y-410815D01*
X820401Y-409960D01*
D02*
G37*
G36*
X817480D02*
X817099D01*
X813910Y-410815D01*
X811050Y-412466D01*
X808716Y-414800D01*
X807065Y-417660D01*
X806210Y-420849D01*
Y-421230D01*
X817480D01*
Y-409960D01*
D02*
G37*
G36*
X831290Y-423770D02*
X820020D01*
Y-435040D01*
X820401D01*
X823590Y-434185D01*
X826450Y-432534D01*
X828784Y-430200D01*
X830435Y-427340D01*
X831290Y-424151D01*
Y-423770D01*
D02*
G37*
G36*
X817480D02*
X806210D01*
Y-424151D01*
X807065Y-427340D01*
X808716Y-430200D01*
X811050Y-432534D01*
X813910Y-434185D01*
X817099Y-435040D01*
X817480D01*
Y-423770D01*
D02*
G37*
G36*
X867290Y-455460D02*
X808750D01*
Y-501750D01*
X867290D01*
Y-455460D01*
D02*
G37*
G36*
X798750D02*
X740210D01*
Y-501750D01*
X798750D01*
Y-455460D01*
D02*
G37*
G36*
X729790Y-494460D02*
X711250D01*
Y-502500D01*
X729790D01*
Y-494460D01*
D02*
G37*
G36*
X701250D02*
X682710D01*
Y-502500D01*
X701250D01*
Y-494460D01*
D02*
G37*
G36*
X729790Y-512500D02*
X711250D01*
Y-520540D01*
X729790D01*
Y-512500D01*
D02*
G37*
G36*
X701250D02*
X682710D01*
Y-520540D01*
X701250D01*
Y-512500D01*
D02*
G37*
G36*
X867290Y-511750D02*
X808750D01*
Y-558040D01*
X867290D01*
Y-511750D01*
D02*
G37*
G36*
X798750D02*
X740210D01*
Y-558040D01*
X798750D01*
Y-511750D01*
D02*
G37*
G36*
X597480Y-604710D02*
X587710D01*
Y-611230D01*
X597480D01*
Y-604710D01*
D02*
G37*
G36*
X489940Y-447352D02*
X488122Y-447713D01*
X486581Y-448743D01*
X485552Y-450284D01*
X485190Y-452101D01*
Y-454829D01*
X479243D01*
X478258Y-455025D01*
X477423Y-455583D01*
X473079Y-459926D01*
X469962D01*
X469837Y-459461D01*
X468801Y-457665D01*
X467335Y-456199D01*
X465539Y-455163D01*
X463537Y-454626D01*
X461463D01*
X459461Y-455163D01*
X457665Y-456199D01*
X456199Y-457665D01*
X455163Y-459461D01*
X454626Y-461463D01*
Y-463537D01*
X455163Y-465539D01*
X456199Y-467335D01*
X457665Y-468801D01*
X459461Y-469837D01*
X459926Y-469962D01*
Y-471487D01*
X460122Y-472472D01*
X460680Y-473307D01*
X464910Y-477536D01*
Y-479801D01*
X456959D01*
Y-495349D01*
X478007D01*
Y-479801D01*
X470057D01*
Y-476470D01*
X469861Y-475485D01*
X469303Y-474650D01*
X465749Y-471096D01*
X465703Y-470822D01*
X466013Y-469564D01*
X467335Y-468801D01*
X468801Y-467335D01*
X469837Y-465539D01*
X469962Y-465073D01*
X474145D01*
X475130Y-464878D01*
X475965Y-464320D01*
X480309Y-459976D01*
X485190D01*
Y-462420D01*
X485552Y-464237D01*
X486581Y-465778D01*
X488122Y-466808D01*
X489940Y-467169D01*
X491757Y-466808D01*
X493298Y-465778D01*
X494328Y-464237D01*
X494689Y-462420D01*
Y-452101D01*
X494328Y-450284D01*
X493298Y-448743D01*
X491757Y-447713D01*
X489940Y-447352D01*
D02*
G37*
G36*
X499090Y-466886D02*
X497272Y-467247D01*
X495731Y-468277D01*
X494702Y-469818D01*
X494340Y-471635D01*
Y-481954D01*
X494702Y-483772D01*
X495731Y-485312D01*
X496516Y-485837D01*
Y-500050D01*
X496372Y-500265D01*
X496176Y-501250D01*
Y-531206D01*
X484726D01*
Y-551254D01*
X496176D01*
Y-563578D01*
X490663Y-569092D01*
X490105Y-569927D01*
X489909Y-570911D01*
Y-581206D01*
X481726D01*
Y-601254D01*
X501774D01*
Y-581206D01*
X495056D01*
Y-571977D01*
X500570Y-566464D01*
X501128Y-565629D01*
X501323Y-564644D01*
Y-551254D01*
X512774D01*
Y-531206D01*
X501323D01*
Y-502110D01*
X501467Y-501895D01*
X501663Y-500910D01*
Y-485837D01*
X502448Y-485312D01*
X503478Y-483772D01*
X503839Y-481954D01*
Y-471635D01*
X503478Y-469818D01*
X502448Y-468277D01*
X500907Y-467247D01*
X499090Y-466886D01*
D02*
G37*
G36*
X413753Y-588420D02*
X400705D01*
Y-606468D01*
X413753D01*
Y-599749D01*
X416148D01*
X416273Y-600215D01*
X417310Y-602011D01*
X418776Y-603477D01*
X420571Y-604513D01*
X422574Y-605050D01*
X424647D01*
X426650Y-604513D01*
X428445Y-603477D01*
X429911Y-602011D01*
X430948Y-600215D01*
X431484Y-598213D01*
Y-596139D01*
X430948Y-594137D01*
X429911Y-592341D01*
X428445Y-590875D01*
X426650Y-589838D01*
X424647Y-589302D01*
X422574D01*
X420571Y-589838D01*
X418776Y-590875D01*
X417310Y-592341D01*
X416273Y-594137D01*
X416148Y-594602D01*
X413753D01*
Y-588420D01*
D02*
G37*
G36*
X381753D02*
X368705D01*
Y-594870D01*
X353806D01*
X352821Y-595066D01*
X351987Y-595624D01*
X338861Y-608749D01*
X338303Y-609584D01*
X338108Y-610569D01*
Y-639503D01*
X334984Y-642627D01*
X332774D01*
Y-636176D01*
X316726D01*
Y-654224D01*
X332774D01*
Y-647774D01*
X336050D01*
X337035Y-647578D01*
X337870Y-647020D01*
X342501Y-642389D01*
X343059Y-641554D01*
X343255Y-640569D01*
Y-611635D01*
X354872Y-600017D01*
X368705D01*
Y-606468D01*
X381753D01*
Y-588420D01*
D02*
G37*
G36*
X477507Y-558672D02*
X457459D01*
Y-572220D01*
X464910D01*
Y-615188D01*
X463854Y-615893D01*
X463750Y-615850D01*
X353750D01*
X352584Y-616334D01*
X352100Y-617500D01*
Y-657700D01*
X352584Y-658866D01*
X353750Y-659350D01*
X367100D01*
Y-722700D01*
X367584Y-723866D01*
X368750Y-724350D01*
X448750D01*
X449916Y-723866D01*
X450400Y-722700D01*
Y-659350D01*
X463750D01*
X463854Y-659307D01*
X464910Y-660012D01*
Y-764983D01*
X465106Y-765968D01*
X465663Y-766803D01*
X475852Y-776991D01*
X476687Y-777549D01*
X477672Y-777745D01*
X481778D01*
X482409Y-780099D01*
X483153Y-781386D01*
Y-804250D01*
X483445Y-806475D01*
X484304Y-808549D01*
X485671Y-810329D01*
X520153Y-844811D01*
Y-883884D01*
X519729Y-884308D01*
X518244Y-886878D01*
X517476Y-889746D01*
Y-892714D01*
X518244Y-895582D01*
X519729Y-898152D01*
X521828Y-900251D01*
X524398Y-901736D01*
X527266Y-902504D01*
X530234D01*
X533102Y-901736D01*
X535672Y-900251D01*
X537771Y-898152D01*
X539256Y-895582D01*
X540024Y-892714D01*
Y-889746D01*
X539256Y-886878D01*
X537771Y-884308D01*
X537348Y-883884D01*
Y-841250D01*
X537055Y-839025D01*
X536196Y-836951D01*
X534829Y-835171D01*
X500348Y-800689D01*
Y-781386D01*
X501091Y-780099D01*
X501774Y-777550D01*
Y-774910D01*
X501091Y-772361D01*
X499771Y-770075D01*
X497905Y-768209D01*
X495619Y-766889D01*
X493070Y-766206D01*
X490430D01*
X487881Y-766889D01*
X485595Y-768209D01*
X483729Y-770075D01*
X482409Y-772361D01*
X482346Y-772598D01*
X478737D01*
X470057Y-763917D01*
Y-572220D01*
X477507D01*
Y-558672D01*
D02*
G37*
G36*
X329787Y-574626D02*
X327713D01*
X325711Y-575163D01*
X323915Y-576199D01*
X322449Y-577665D01*
X321413Y-579461D01*
X320876Y-581463D01*
Y-583537D01*
X321413Y-585539D01*
X322449Y-587335D01*
X323915Y-588801D01*
X325711Y-589837D01*
X326176Y-589962D01*
Y-591415D01*
X322930Y-594661D01*
X322372Y-595496D01*
X322177Y-596481D01*
Y-610776D01*
X316726D01*
Y-628824D01*
X332774D01*
Y-610776D01*
X327323D01*
Y-597547D01*
X330570Y-594301D01*
X331128Y-593466D01*
X331323Y-592481D01*
Y-589962D01*
X331789Y-589837D01*
X333585Y-588801D01*
X335051Y-587335D01*
X336087Y-585539D01*
X336624Y-583537D01*
Y-581463D01*
X336087Y-579461D01*
X335051Y-577665D01*
X333585Y-576199D01*
X331789Y-575163D01*
X329787Y-574626D01*
D02*
G37*
G36*
X154215Y-646976D02*
X150785D01*
X147473Y-647864D01*
X144503Y-649578D01*
X142078Y-652003D01*
X140364Y-654973D01*
X139476Y-658285D01*
Y-661715D01*
X140364Y-665027D01*
X142078Y-667997D01*
X144503Y-670422D01*
X147473Y-672137D01*
X150785Y-673024D01*
X154215D01*
X157527Y-672137D01*
X160497Y-670422D01*
X162922Y-667997D01*
X164636Y-665027D01*
X165524Y-661715D01*
Y-658285D01*
X164636Y-654973D01*
X162922Y-652003D01*
X160497Y-649578D01*
X157527Y-647864D01*
X154215Y-646976D01*
D02*
G37*
G36*
X493070Y-696206D02*
X490430D01*
X487881Y-696889D01*
X485595Y-698209D01*
X483729Y-700075D01*
X482409Y-702361D01*
X481726Y-704910D01*
Y-707550D01*
X482409Y-710099D01*
X483729Y-712385D01*
X485595Y-714251D01*
X487881Y-715571D01*
X490430Y-716254D01*
X493070D01*
X495619Y-715571D01*
X497905Y-714251D01*
X499771Y-712385D01*
X501091Y-710099D01*
X501774Y-707550D01*
Y-704910D01*
X501091Y-702361D01*
X499771Y-700075D01*
X497905Y-698209D01*
X495619Y-696889D01*
X493070Y-696206D01*
D02*
G37*
G36*
X280024Y-692476D02*
X266476D01*
Y-712524D01*
X271176D01*
Y-720038D01*
X270711Y-720163D01*
X268915Y-721199D01*
X267449Y-722665D01*
X266413Y-724461D01*
X265876Y-726463D01*
Y-728537D01*
X266413Y-730539D01*
X267449Y-732335D01*
X268915Y-733801D01*
X270676Y-734818D01*
Y-739290D01*
X270872Y-740274D01*
X271430Y-741109D01*
X273927Y-743605D01*
Y-746476D01*
X270976D01*
Y-758524D01*
X282024D01*
Y-746476D01*
X279073D01*
Y-742540D01*
X278878Y-741555D01*
X278320Y-740720D01*
X275823Y-738224D01*
Y-735096D01*
X276789Y-734837D01*
X278585Y-733801D01*
X280051Y-732335D01*
X281087Y-730539D01*
X281624Y-728537D01*
Y-726463D01*
X281087Y-724461D01*
X280051Y-722665D01*
X278585Y-721199D01*
X276789Y-720163D01*
X276324Y-720038D01*
Y-712524D01*
X280024D01*
Y-692476D01*
D02*
G37*
G36*
X193602D02*
X180054D01*
Y-712524D01*
X183676D01*
Y-720038D01*
X183211Y-720163D01*
X181415Y-721199D01*
X179949Y-722665D01*
X178913Y-724461D01*
X178376Y-726463D01*
Y-728537D01*
X178913Y-730539D01*
X179949Y-732335D01*
X181415Y-733801D01*
X183211Y-734837D01*
X184255Y-735117D01*
Y-737264D01*
X184451Y-738249D01*
X185009Y-739083D01*
X187505Y-741580D01*
Y-746476D01*
X184554D01*
Y-758524D01*
X195602D01*
Y-746476D01*
X192652D01*
Y-740514D01*
X192456Y-739529D01*
X191898Y-738694D01*
X189402Y-736198D01*
Y-734772D01*
X191085Y-733801D01*
X192551Y-732335D01*
X193587Y-730539D01*
X194124Y-728537D01*
Y-726463D01*
X193587Y-724461D01*
X192551Y-722665D01*
X191085Y-721199D01*
X189289Y-720163D01*
X188823Y-720038D01*
Y-712524D01*
X193602D01*
Y-692476D01*
D02*
G37*
G36*
X103519D02*
X89971D01*
Y-712524D01*
X93677D01*
Y-720038D01*
X93211Y-720163D01*
X91415Y-721199D01*
X89949Y-722665D01*
X88913Y-724461D01*
X88376Y-726463D01*
Y-728537D01*
X88913Y-730539D01*
X89949Y-732335D01*
X91415Y-733801D01*
X93211Y-734837D01*
X94299Y-735129D01*
Y-739302D01*
X94495Y-740287D01*
X95053Y-741122D01*
X97422Y-743491D01*
Y-746476D01*
X94471D01*
Y-758524D01*
X105519D01*
Y-746476D01*
X102568D01*
Y-742425D01*
X102373Y-741440D01*
X101815Y-740605D01*
X99446Y-738236D01*
Y-734747D01*
X101085Y-733801D01*
X102551Y-732335D01*
X103587Y-730539D01*
X104124Y-728537D01*
Y-726463D01*
X103587Y-724461D01*
X102551Y-722665D01*
X101085Y-721199D01*
X99289Y-720163D01*
X98823Y-720038D01*
Y-712524D01*
X103519D01*
Y-692476D01*
D02*
G37*
G36*
X448690Y-742660D02*
X439150D01*
Y-761350D01*
X448690D01*
Y-742660D01*
D02*
G37*
G36*
X429150D02*
X419610D01*
Y-761350D01*
X429150D01*
Y-742660D01*
D02*
G37*
G36*
X448690Y-771350D02*
X439150D01*
Y-790040D01*
X448690D01*
Y-771350D01*
D02*
G37*
G36*
X429150D02*
X419610D01*
Y-790040D01*
X429150D01*
Y-771350D01*
D02*
G37*
G36*
X588250Y-860960D02*
X580710D01*
Y-885000D01*
X588250D01*
Y-860960D01*
D02*
G37*
G36*
X357923Y-877670D02*
X346903D01*
Y-888690D01*
X357923D01*
Y-877670D01*
D02*
G37*
G36*
X344362D02*
X333343D01*
Y-888690D01*
X344362D01*
Y-877670D01*
D02*
G37*
G36*
X216653Y-878940D02*
X205632D01*
Y-889960D01*
X216653D01*
Y-878940D01*
D02*
G37*
G36*
X203092D02*
X192073D01*
Y-889960D01*
X203092D01*
Y-878940D01*
D02*
G37*
G36*
X76652D02*
X65633D01*
Y-889960D01*
X76652D01*
Y-878940D01*
D02*
G37*
G36*
X63092D02*
X52073D01*
Y-889960D01*
X63092D01*
Y-878940D01*
D02*
G37*
G36*
X357923Y-891230D02*
X346903D01*
Y-902250D01*
X357923D01*
Y-891230D01*
D02*
G37*
G36*
X344362D02*
X333343D01*
Y-902250D01*
X344362D01*
Y-891230D01*
D02*
G37*
G36*
X396874Y-743676D02*
X369826D01*
Y-789024D01*
X374752D01*
Y-827100D01*
X375045Y-829325D01*
X375904Y-831399D01*
X377271Y-833179D01*
X441400Y-897309D01*
X441401Y-897309D01*
X443181Y-898676D01*
X445255Y-899535D01*
X447480Y-899827D01*
X447480Y-899827D01*
X467476D01*
Y-902504D01*
X490024D01*
Y-879956D01*
X467476D01*
Y-882632D01*
X451041D01*
X391948Y-823539D01*
Y-789024D01*
X396874D01*
Y-743676D01*
D02*
G37*
G36*
X291524Y-766476D02*
X280476D01*
Y-778524D01*
X283426D01*
Y-779348D01*
X283622Y-780333D01*
X284180Y-781168D01*
X290828Y-787815D01*
X291663Y-788373D01*
X292647Y-788569D01*
X302413D01*
X390578Y-876734D01*
Y-880572D01*
X390011Y-880724D01*
X387440Y-882208D01*
X385341Y-884308D01*
X383857Y-886878D01*
X383088Y-889746D01*
Y-892714D01*
X383857Y-895582D01*
X385341Y-898152D01*
X387440Y-900251D01*
X390011Y-901736D01*
X392878Y-902504D01*
X395847D01*
X398714Y-901736D01*
X401285Y-900251D01*
X403384Y-898152D01*
X404868Y-895582D01*
X405636Y-892714D01*
Y-889746D01*
X404868Y-886878D01*
X403384Y-884308D01*
X401285Y-882208D01*
X398714Y-880724D01*
X395847Y-879956D01*
X395725D01*
Y-875668D01*
X395529Y-874683D01*
X394971Y-873848D01*
X305299Y-784176D01*
X304464Y-783618D01*
X303479Y-783422D01*
X293713D01*
X289988Y-779697D01*
X290474Y-778524D01*
X291524D01*
Y-766476D01*
D02*
G37*
G36*
X205102D02*
X194054D01*
Y-778524D01*
X197005D01*
Y-817854D01*
X197201Y-818839D01*
X197759Y-819674D01*
X251789Y-873704D01*
Y-880248D01*
X250011Y-880724D01*
X247440Y-882208D01*
X245341Y-884308D01*
X243857Y-886878D01*
X243088Y-889746D01*
Y-892714D01*
X243857Y-895582D01*
X245341Y-898152D01*
X247440Y-900251D01*
X250011Y-901736D01*
X252878Y-902504D01*
X255847D01*
X258714Y-901736D01*
X261285Y-900251D01*
X263384Y-898152D01*
X264868Y-895582D01*
X265636Y-892714D01*
Y-889746D01*
X264868Y-886878D01*
X263384Y-884308D01*
X261285Y-882208D01*
X258714Y-880724D01*
X256936Y-880248D01*
Y-872638D01*
X256740Y-871654D01*
X256182Y-870819D01*
X202152Y-816788D01*
Y-778524D01*
X205102D01*
Y-766476D01*
D02*
G37*
G36*
X115019D02*
X103971D01*
Y-778524D01*
X106922D01*
Y-855745D01*
X107117Y-856730D01*
X107675Y-857565D01*
X111789Y-861678D01*
Y-880248D01*
X110011Y-880724D01*
X107440Y-882208D01*
X105341Y-884308D01*
X103857Y-886878D01*
X103088Y-889746D01*
Y-892714D01*
X103857Y-895582D01*
X105341Y-898152D01*
X107440Y-900251D01*
X110011Y-901736D01*
X112878Y-902504D01*
X115847D01*
X118714Y-901736D01*
X121285Y-900251D01*
X123384Y-898152D01*
X124868Y-895582D01*
X125636Y-892714D01*
Y-889746D01*
X124868Y-886878D01*
X123384Y-884308D01*
X121285Y-882208D01*
X118714Y-880724D01*
X116936Y-880248D01*
Y-860612D01*
X116740Y-859628D01*
X116182Y-858793D01*
X112068Y-854679D01*
Y-778524D01*
X115019D01*
Y-766476D01*
D02*
G37*
G36*
X216653Y-892500D02*
X205632D01*
Y-903520D01*
X216653D01*
Y-892500D01*
D02*
G37*
G36*
X203092D02*
X192073D01*
Y-903520D01*
X203092D01*
Y-892500D01*
D02*
G37*
G36*
X76652D02*
X65633D01*
Y-903520D01*
X76652D01*
Y-892500D01*
D02*
G37*
G36*
X63092D02*
X52073D01*
Y-903520D01*
X63092D01*
Y-892500D01*
D02*
G37*
G36*
X588250Y-895000D02*
X580710D01*
Y-919040D01*
X588250D01*
Y-895000D01*
D02*
G37*
%LPD*%
G36*
X463750Y-657700D02*
X448750D01*
Y-722700D01*
X368750D01*
Y-657700D01*
X353750D01*
Y-617500D01*
X463750D01*
Y-657700D01*
D02*
G37*
%LPC*%
G36*
X655790Y-512500D02*
X637250D01*
Y-520540D01*
X655790D01*
Y-512500D01*
D02*
G37*
G36*
X627250D02*
X608710D01*
Y-520540D01*
X627250D01*
Y-512500D01*
D02*
G37*
G36*
X635038Y-632213D02*
X626018D01*
Y-637983D01*
X635038D01*
Y-632213D01*
D02*
G37*
G36*
X623478D02*
X614458D01*
Y-637983D01*
X623478D01*
Y-632213D01*
D02*
G37*
G36*
X635038Y-640523D02*
X626018D01*
Y-646293D01*
X635038D01*
Y-640523D01*
D02*
G37*
G36*
X623478D02*
X614458D01*
Y-646293D01*
X623478D01*
Y-640523D01*
D02*
G37*
G36*
X655390Y-679410D02*
X645020D01*
Y-686480D01*
X655390D01*
Y-679410D01*
D02*
G37*
G36*
X642480D02*
X632110D01*
Y-686480D01*
X642480D01*
Y-679410D01*
D02*
G37*
G36*
X629826Y-678832D02*
X622306D01*
Y-689102D01*
X629826D01*
Y-678832D01*
D02*
G37*
G36*
X619766D02*
X612246D01*
Y-689102D01*
X619766D01*
Y-678832D01*
D02*
G37*
G36*
X655390Y-689020D02*
X645020D01*
Y-696090D01*
X655390D01*
Y-689020D01*
D02*
G37*
G36*
X642480D02*
X632110D01*
Y-696090D01*
X642480D01*
Y-689020D01*
D02*
G37*
G36*
X598310Y-679848D02*
X582762D01*
Y-700896D01*
X585621D01*
X586344Y-702028D01*
X585896Y-702936D01*
X585044D01*
Y-724046D01*
X593654D01*
Y-702936D01*
X593654D01*
X593391Y-702166D01*
X594104Y-700896D01*
X598310D01*
Y-679848D01*
D02*
G37*
G36*
X709790Y-705710D02*
X700020D01*
Y-712730D01*
X709790D01*
Y-705710D01*
D02*
G37*
G36*
X697480D02*
X687710D01*
Y-712730D01*
X697480D01*
Y-705710D01*
D02*
G37*
G36*
X709790Y-715270D02*
X700020D01*
Y-722290D01*
X709790D01*
Y-715270D01*
D02*
G37*
G36*
X697480D02*
X687710D01*
Y-722290D01*
X697480D01*
Y-715270D01*
D02*
G37*
G36*
X607914Y-729581D02*
X607429D01*
X606245Y-729817D01*
X605241Y-730487D01*
X604570Y-731491D01*
X604335Y-732675D01*
Y-737661D01*
X607914D01*
Y-729581D01*
D02*
G37*
G36*
X682688Y-741305D02*
X674668D01*
Y-747325D01*
X682688D01*
Y-741305D01*
D02*
G37*
G36*
X672128D02*
X664108D01*
Y-747325D01*
X672128D01*
Y-741305D01*
D02*
G37*
G36*
X607914Y-740201D02*
X604335D01*
Y-745185D01*
X604570Y-746370D01*
X605241Y-747374D01*
X606245Y-748044D01*
X607429Y-748280D01*
X607914D01*
Y-740201D01*
D02*
G37*
G36*
X682688Y-749865D02*
X674668D01*
Y-755885D01*
X682688D01*
Y-749865D01*
D02*
G37*
G36*
X672128D02*
X664108D01*
Y-755885D01*
X672128D01*
Y-749865D01*
D02*
G37*
G36*
X648537Y-754626D02*
X646463D01*
X644461Y-755163D01*
X642665Y-756199D01*
X641199Y-757665D01*
X640163Y-759461D01*
X640038Y-759927D01*
X623910D01*
X622925Y-760122D01*
X622090Y-760680D01*
X615114Y-767656D01*
X614557Y-768491D01*
X614361Y-769476D01*
Y-774572D01*
X613341Y-774915D01*
X613091Y-774963D01*
X612123Y-774317D01*
X610939Y-774081D01*
X610454D01*
Y-783430D01*
Y-792780D01*
X610939D01*
X612123Y-792544D01*
X613127Y-791874D01*
X613298Y-791618D01*
X613929Y-791744D01*
X617439D01*
X618227Y-791587D01*
X618381Y-791495D01*
X619611Y-792182D01*
Y-794684D01*
X619807Y-795669D01*
X619926Y-795848D01*
Y-814710D01*
X617070D01*
Y-833258D01*
X629118D01*
Y-814710D01*
X625074D01*
Y-795000D01*
X624878Y-794015D01*
X624804Y-793905D01*
X624870Y-793442D01*
X625647Y-792995D01*
X626144Y-793282D01*
Y-793717D01*
X626339Y-794702D01*
X626897Y-795537D01*
X633180Y-801820D01*
X634015Y-802378D01*
X635000Y-802573D01*
X647538D01*
X647663Y-803039D01*
X648699Y-804835D01*
X650165Y-806301D01*
X651961Y-807337D01*
X653963Y-807874D01*
X656037D01*
X658039Y-807337D01*
X659835Y-806301D01*
X661301Y-804835D01*
X662337Y-803039D01*
X662874Y-801037D01*
Y-798963D01*
X662337Y-796961D01*
X661301Y-795165D01*
X659835Y-793699D01*
X658039Y-792663D01*
X656037Y-792126D01*
X653963D01*
X651961Y-792663D01*
X650165Y-793699D01*
X648699Y-795165D01*
X647663Y-796961D01*
X647538Y-797427D01*
X636066D01*
X631366Y-792726D01*
X631442Y-791444D01*
X631895Y-791141D01*
X632341Y-790473D01*
X632498Y-789686D01*
Y-786004D01*
X635294D01*
Y-792331D01*
X649341D01*
Y-775783D01*
X635294D01*
Y-780857D01*
X632498D01*
Y-777176D01*
X632341Y-776388D01*
X631895Y-775720D01*
X631227Y-775274D01*
X630439Y-775117D01*
X626929D01*
X626141Y-775274D01*
X625434Y-775696D01*
X624727Y-775274D01*
X623939Y-775117D01*
X620429D01*
X619507Y-774005D01*
Y-770542D01*
X624976Y-765073D01*
X640038D01*
X640163Y-765539D01*
X641199Y-767335D01*
X642665Y-768801D01*
X644461Y-769837D01*
X646463Y-770374D01*
X648537D01*
X650539Y-769837D01*
X652335Y-768801D01*
X653801Y-767335D01*
X654837Y-765539D01*
X655374Y-763537D01*
Y-761463D01*
X654837Y-759461D01*
X653801Y-757665D01*
X652335Y-756199D01*
X650539Y-755163D01*
X648537Y-754626D01*
D02*
G37*
G36*
X607914Y-774081D02*
X607429D01*
X606245Y-774317D01*
X605241Y-774987D01*
X604570Y-775991D01*
X604335Y-777176D01*
Y-782160D01*
X607914D01*
Y-774081D01*
D02*
G37*
G36*
X683357Y-774767D02*
X676587D01*
Y-782787D01*
X683357D01*
Y-774767D01*
D02*
G37*
G36*
X674047D02*
X667278D01*
Y-782787D01*
X674047D01*
Y-774767D01*
D02*
G37*
G36*
X607914Y-784700D02*
X604335D01*
Y-789686D01*
X604570Y-790870D01*
X605241Y-791874D01*
X606245Y-792544D01*
X607429Y-792780D01*
X607914D01*
Y-784700D01*
D02*
G37*
G36*
X683357Y-785327D02*
X676587D01*
Y-793347D01*
X683357D01*
Y-785327D01*
D02*
G37*
G36*
X674047D02*
X667278D01*
Y-793347D01*
X674047D01*
Y-785327D01*
D02*
G37*
G36*
X603634Y-813694D02*
X597864D01*
Y-822714D01*
X603634D01*
Y-813694D01*
D02*
G37*
G36*
X595324D02*
X589554D01*
Y-822714D01*
X595324D01*
Y-813694D01*
D02*
G37*
G36*
X603634Y-825254D02*
X597864D01*
Y-834274D01*
X603634D01*
Y-825254D01*
D02*
G37*
G36*
X595324D02*
X589554D01*
Y-834274D01*
X595324D01*
Y-825254D01*
D02*
G37*
G36*
X805040Y-872460D02*
X795000D01*
Y-887500D01*
X805040D01*
Y-872460D01*
D02*
G37*
G36*
X785000D02*
X774960D01*
Y-887500D01*
X785000D01*
Y-872460D01*
D02*
G37*
G36*
X707965Y-879476D02*
X704535D01*
X701223Y-880363D01*
X698253Y-882078D01*
X695828Y-884503D01*
X694113Y-887473D01*
X693226Y-890785D01*
Y-894215D01*
X694113Y-897527D01*
X695828Y-900497D01*
X698253Y-902922D01*
X701223Y-904636D01*
X704535Y-905524D01*
X707965D01*
X711277Y-904636D01*
X714247Y-902922D01*
X716672Y-900497D01*
X718386Y-897527D01*
X719274Y-894215D01*
Y-890785D01*
X718386Y-887473D01*
X716672Y-884503D01*
X714247Y-882078D01*
X711277Y-880363D01*
X707965Y-879476D01*
D02*
G37*
G36*
X805040Y-897500D02*
X795000D01*
Y-912540D01*
X805040D01*
Y-897500D01*
D02*
G37*
G36*
X785000D02*
X774960D01*
Y-912540D01*
X785000D01*
Y-897500D01*
D02*
G37*
G36*
X927690Y-446710D02*
X917520D01*
Y-463730D01*
X927690D01*
Y-446710D01*
D02*
G37*
G36*
X914980D02*
X904810D01*
Y-463730D01*
X914980D01*
Y-446710D01*
D02*
G37*
G36*
X927690Y-466270D02*
X917520D01*
Y-483290D01*
X927690D01*
Y-466270D01*
D02*
G37*
G36*
X914980D02*
X904810D01*
Y-483290D01*
X914980D01*
Y-466270D01*
D02*
G37*
G36*
X1014790Y-494960D02*
X1003520D01*
Y-526230D01*
X1014790D01*
Y-494960D01*
D02*
G37*
G36*
X1000980D02*
X989710D01*
Y-526230D01*
X1000980D01*
Y-494960D01*
D02*
G37*
G36*
X951177Y-540148D02*
X938157D01*
Y-552418D01*
X951177D01*
Y-540148D01*
D02*
G37*
G36*
X935617D02*
X922597D01*
Y-552418D01*
X935617D01*
Y-540148D01*
D02*
G37*
G36*
X909837Y-549693D02*
X899567D01*
Y-557213D01*
X909837D01*
Y-549693D01*
D02*
G37*
G36*
X897027D02*
X886757D01*
Y-557213D01*
X897027D01*
Y-549693D01*
D02*
G37*
G36*
X1014790Y-528770D02*
X1003520D01*
Y-560040D01*
X1014790D01*
Y-528770D01*
D02*
G37*
G36*
X1000980D02*
X989710D01*
Y-560040D01*
X1000980D01*
Y-528770D01*
D02*
G37*
G36*
X951177Y-554958D02*
X938157D01*
Y-567228D01*
X951177D01*
Y-554958D01*
D02*
G37*
G36*
X935617D02*
X922597D01*
Y-567228D01*
X935617D01*
Y-554958D01*
D02*
G37*
G36*
X909837Y-559753D02*
X899567D01*
Y-567273D01*
X909837D01*
Y-559753D01*
D02*
G37*
G36*
X897027D02*
X886757D01*
Y-567273D01*
X897027D01*
Y-559753D01*
D02*
G37*
G36*
X951177Y-598648D02*
X938157D01*
Y-610918D01*
X951177D01*
Y-598648D01*
D02*
G37*
G36*
X935617D02*
X922597D01*
Y-610918D01*
X935617D01*
Y-598648D01*
D02*
G37*
G36*
X985278Y-606600D02*
X976258D01*
Y-612370D01*
X985278D01*
Y-606600D01*
D02*
G37*
G36*
X973718D02*
X964698D01*
Y-612370D01*
X973718D01*
Y-606600D01*
D02*
G37*
G36*
X985278Y-614910D02*
X976258D01*
Y-620680D01*
X985278D01*
Y-614910D01*
D02*
G37*
G36*
X973718D02*
X964698D01*
Y-620680D01*
X973718D01*
Y-614910D01*
D02*
G37*
G36*
X951177Y-613458D02*
X938157D01*
Y-625728D01*
X951177D01*
Y-613458D01*
D02*
G37*
G36*
X935617D02*
X922597D01*
Y-625728D01*
X935617D01*
Y-613458D01*
D02*
G37*
G36*
X1064233Y-624306D02*
X1052463D01*
Y-632576D01*
X1064233D01*
Y-624306D01*
D02*
G37*
G36*
X1009759Y-638531D02*
X1008867Y-638708D01*
X1007035Y-639932D01*
X1005810Y-641765D01*
X1005380Y-643926D01*
Y-649156D01*
X1009759D01*
Y-638531D01*
D02*
G37*
G36*
X998329Y-639314D02*
X996563Y-639665D01*
X995067Y-640665D01*
X994067Y-642161D01*
X993716Y-643926D01*
Y-656926D01*
X994067Y-658692D01*
X995067Y-660188D01*
X996563Y-661188D01*
X998329Y-661539D01*
X1000094Y-661188D01*
X1001590Y-660188D01*
X1002590Y-658692D01*
X1002941Y-656926D01*
Y-643926D01*
X1002590Y-642161D01*
X1001590Y-640665D01*
X1000094Y-639665D01*
X998329Y-639314D01*
D02*
G37*
G36*
X1009759Y-651696D02*
X1005380D01*
Y-656926D01*
X1005810Y-659088D01*
X1007035Y-660921D01*
X1008867Y-662145D01*
X1009759Y-662322D01*
Y-651696D01*
D02*
G37*
G36*
X1005980Y-670710D02*
X999210D01*
Y-678730D01*
X1005980D01*
Y-670710D01*
D02*
G37*
G36*
X233641Y-591640D02*
X231567D01*
X229565Y-592176D01*
X227769Y-593213D01*
X226303Y-594679D01*
X225267Y-596475D01*
X224730Y-598477D01*
Y-600550D01*
X225267Y-602553D01*
X226303Y-604349D01*
X227769Y-605815D01*
X229565Y-606851D01*
X230031Y-606976D01*
Y-610776D01*
X224726D01*
Y-628824D01*
X240774D01*
Y-610776D01*
X235177D01*
Y-606976D01*
X235643Y-606851D01*
X237439Y-605815D01*
X238905Y-604349D01*
X239941Y-602553D01*
X240478Y-600550D01*
Y-598477D01*
X239941Y-596475D01*
X238905Y-594679D01*
X237439Y-593213D01*
X235643Y-592176D01*
X233641Y-591640D01*
D02*
G37*
G36*
X1048290Y-670710D02*
X1041520D01*
Y-678730D01*
X1048290D01*
Y-670710D01*
D02*
G37*
G36*
X1038980D02*
X1032210D01*
Y-678730D01*
X1038980D01*
Y-670710D01*
D02*
G37*
G36*
X1048290Y-681270D02*
X1041520D01*
Y-689290D01*
X1048290D01*
Y-681270D01*
D02*
G37*
G36*
X1038980D02*
X1032210D01*
Y-689290D01*
X1038980D01*
Y-681270D01*
D02*
G37*
G36*
X1064151Y-728710D02*
X1063770D01*
Y-739980D01*
X1075040D01*
Y-739599D01*
X1074185Y-736410D01*
X1072534Y-733550D01*
X1070200Y-731216D01*
X1067340Y-729565D01*
X1064151Y-728710D01*
D02*
G37*
G36*
X1061230D02*
X1060849D01*
X1057660Y-729565D01*
X1054800Y-731216D01*
X1052466Y-733550D01*
X1050815Y-736410D01*
X1049960Y-739599D01*
Y-739980D01*
X1061230D01*
Y-728710D01*
D02*
G37*
G36*
X1075040Y-742520D02*
X1063770D01*
Y-753790D01*
X1064151D01*
X1067340Y-752935D01*
X1070200Y-751284D01*
X1072534Y-748950D01*
X1074185Y-746090D01*
X1075040Y-742901D01*
Y-742520D01*
D02*
G37*
G36*
X1061230D02*
X1049960D01*
Y-742901D01*
X1050815Y-746090D01*
X1052466Y-748950D01*
X1054800Y-751284D01*
X1057660Y-752935D01*
X1060849Y-753790D01*
X1061230D01*
Y-742520D01*
D02*
G37*
G36*
X1057790Y-494960D02*
X1046520D01*
Y-526230D01*
X1057790D01*
Y-494960D01*
D02*
G37*
G36*
X1043980D02*
X1032710D01*
Y-526230D01*
X1043980D01*
Y-494960D01*
D02*
G37*
G36*
X1071787Y-569461D02*
X1065767D01*
Y-579231D01*
X1071787D01*
Y-569461D01*
D02*
G37*
G36*
X1063227D02*
X1057207D01*
Y-579231D01*
X1063227D01*
Y-569461D01*
D02*
G37*
G36*
X1071787Y-581771D02*
X1065767D01*
Y-591541D01*
X1071787D01*
Y-581771D01*
D02*
G37*
G36*
X1063227D02*
X1057207D01*
Y-591541D01*
X1063227D01*
Y-581771D01*
D02*
G37*
G36*
X1078543Y-668306D02*
X1066773D01*
Y-676576D01*
X1078543D01*
Y-668306D01*
D02*
G37*
G36*
X729980Y-575040D02*
X722710D01*
Y-577396D01*
X729980D01*
Y-575040D01*
D02*
G37*
G36*
X739790D02*
X732520D01*
Y-577396D01*
X737560D01*
Y-579560D01*
X739790D01*
Y-575040D01*
D02*
G37*
G36*
Y-582100D02*
X737560D01*
Y-584396D01*
X732560D01*
Y-586620D01*
X739790D01*
Y-582100D01*
D02*
G37*
G36*
Y-588502D02*
X732560D01*
Y-590746D01*
X737560D01*
Y-593022D01*
X739790D01*
Y-588502D01*
D02*
G37*
G36*
Y-595562D02*
X737560D01*
Y-597746D01*
X732560D01*
Y-600082D01*
X739790D01*
Y-595562D01*
D02*
G37*
G36*
X839690Y-589460D02*
X834150D01*
Y-604500D01*
X839690D01*
Y-589460D01*
D02*
G37*
G36*
X824150D02*
X818610D01*
Y-604500D01*
X824150D01*
Y-589460D01*
D02*
G37*
G36*
X739790Y-601710D02*
X732560D01*
Y-604046D01*
X737560D01*
Y-606230D01*
X739790D01*
Y-601710D01*
D02*
G37*
G36*
Y-608770D02*
X737560D01*
Y-611046D01*
X732560D01*
Y-613290D01*
X739790D01*
Y-608770D01*
D02*
G37*
G36*
Y-615172D02*
X732560D01*
Y-617396D01*
X737560D01*
Y-619692D01*
X739790D01*
Y-615172D01*
D02*
G37*
G36*
Y-622232D02*
X737560D01*
Y-624396D01*
X732520D01*
Y-626752D01*
X739790D01*
Y-622232D01*
D02*
G37*
G36*
X787874Y-590476D02*
X768826D01*
Y-628524D01*
X787874D01*
Y-590476D01*
D02*
G37*
G36*
X839690Y-614500D02*
X834150D01*
Y-629540D01*
X839690D01*
Y-614500D01*
D02*
G37*
G36*
X824150D02*
X818610D01*
Y-629540D01*
X824150D01*
Y-614500D01*
D02*
G37*
G36*
X823790Y-639960D02*
X803750D01*
Y-657500D01*
X823790D01*
Y-639960D01*
D02*
G37*
G36*
X793750D02*
X773710D01*
Y-657500D01*
X793750D01*
Y-639960D01*
D02*
G37*
G36*
X823790Y-667500D02*
X803750D01*
Y-685040D01*
X823790D01*
Y-667500D01*
D02*
G37*
G36*
X793750D02*
X773710D01*
Y-685040D01*
X793750D01*
Y-667500D01*
D02*
G37*
G36*
X823790Y-777500D02*
X803750D01*
Y-795040D01*
X823790D01*
Y-777500D01*
D02*
G37*
G36*
X793750D02*
X773710D01*
Y-795040D01*
X793750D01*
Y-777500D01*
D02*
G37*
G36*
X889787Y-777126D02*
X887713D01*
X885711Y-777663D01*
X883915Y-778699D01*
X882449Y-780165D01*
X881413Y-781961D01*
X880876Y-783963D01*
Y-786037D01*
X881413Y-788039D01*
X882449Y-789835D01*
X883915Y-791301D01*
X885711Y-792337D01*
X887713Y-792874D01*
X889787D01*
X891789Y-792337D01*
X892207Y-792096D01*
X895811Y-795700D01*
X896646Y-796258D01*
X897631Y-796454D01*
X900696D01*
Y-807905D01*
X913744D01*
Y-779857D01*
X900696D01*
Y-791307D01*
X898697D01*
X895846Y-788457D01*
X896087Y-788039D01*
X896624Y-786037D01*
Y-783963D01*
X896087Y-781961D01*
X895051Y-780165D01*
X893585Y-778699D01*
X891789Y-777663D01*
X889787Y-777126D01*
D02*
G37*
G36*
X805040Y-807460D02*
X795000D01*
Y-822500D01*
X805040D01*
Y-807460D01*
D02*
G37*
G36*
X785000D02*
X774960D01*
Y-822500D01*
X785000D01*
Y-807460D01*
D02*
G37*
G36*
X805040Y-832500D02*
X795000D01*
Y-847540D01*
X805040D01*
Y-832500D01*
D02*
G37*
G36*
X785000D02*
X774960D01*
Y-847540D01*
X785000D01*
Y-832500D01*
D02*
G37*
G36*
X936040Y-884710D02*
X928750D01*
Y-892000D01*
X936040D01*
Y-884710D01*
D02*
G37*
G36*
X918750D02*
X911460D01*
Y-892000D01*
X918750D01*
Y-884710D01*
D02*
G37*
G36*
X936040Y-902000D02*
X928750D01*
Y-909290D01*
X936040D01*
Y-902000D01*
D02*
G37*
G36*
X918750D02*
X911460D01*
Y-909290D01*
X918750D01*
Y-902000D01*
D02*
G37*
G36*
X1081774Y-773226D02*
X1066726D01*
Y-781710D01*
X1065710D01*
Y-786230D01*
X1074250D01*
X1082790D01*
Y-781710D01*
X1081774D01*
Y-773226D01*
D02*
G37*
G36*
X1082790Y-788770D02*
X1074250D01*
X1065710D01*
Y-793290D01*
X1066726D01*
Y-801774D01*
X1081774D01*
Y-793290D01*
X1082790D01*
Y-788770D01*
D02*
G37*
G36*
X1038203Y-795562D02*
X1028642D01*
Y-802359D01*
X1038203D01*
Y-795562D01*
D02*
G37*
G36*
X1026102D02*
X1016540D01*
Y-802359D01*
X1026102D01*
Y-795562D01*
D02*
G37*
G36*
X1038203Y-804899D02*
X1028642D01*
Y-811697D01*
X1038203D01*
Y-804899D01*
D02*
G37*
G36*
X1026102D02*
X1016540D01*
Y-811697D01*
X1026102D01*
Y-804899D01*
D02*
G37*
G36*
X1081331Y-817419D02*
X1071270D01*
Y-824469D01*
X1081331D01*
Y-817419D01*
D02*
G37*
G36*
X1068730D02*
X1058669D01*
Y-824469D01*
X1068730D01*
Y-817419D01*
D02*
G37*
G36*
X1081331Y-827009D02*
X1071270D01*
Y-834059D01*
X1081331D01*
Y-827009D01*
D02*
G37*
G36*
X1068730D02*
X1058669D01*
Y-834059D01*
X1068730D01*
Y-827009D01*
D02*
G37*
G36*
X1014534Y-848353D02*
X1012461D01*
X1010458Y-848890D01*
X1008662Y-849927D01*
X1007196Y-851393D01*
X1006160Y-853188D01*
X1005623Y-855191D01*
Y-857264D01*
X1006160Y-859267D01*
X1007196Y-861062D01*
X1008662Y-862528D01*
X1010458Y-863565D01*
X1012461Y-864101D01*
X1014534D01*
X1016536Y-863565D01*
X1018332Y-862528D01*
X1019798Y-861062D01*
X1020703Y-859494D01*
X1021631Y-859577D01*
X1021973Y-859710D01*
Y-862501D01*
X1040021D01*
Y-849453D01*
X1021973D01*
Y-852744D01*
X1021631Y-852878D01*
X1020703Y-852960D01*
X1019798Y-851393D01*
X1018332Y-849927D01*
X1016536Y-848890D01*
X1014534Y-848353D01*
D02*
G37*
G36*
X978750Y-885696D02*
Y-892000D01*
X985054D01*
X983584Y-889454D01*
X981296Y-887166D01*
X978750Y-885696D01*
D02*
G37*
G36*
X968750D02*
X966204Y-887166D01*
X963915Y-889454D01*
X962445Y-892000D01*
X968750D01*
Y-885696D01*
D02*
G37*
G36*
X1070401Y-891210D02*
X1070020D01*
Y-902480D01*
X1081290D01*
Y-902099D01*
X1080435Y-898910D01*
X1078784Y-896050D01*
X1076450Y-893716D01*
X1073590Y-892065D01*
X1070401Y-891210D01*
D02*
G37*
G36*
X1067480D02*
X1067099D01*
X1063910Y-892065D01*
X1061050Y-893716D01*
X1058716Y-896050D01*
X1057065Y-898910D01*
X1056210Y-902099D01*
Y-902480D01*
X1067480D01*
Y-891210D01*
D02*
G37*
G36*
X985054Y-902000D02*
X978750D01*
Y-908305D01*
X981296Y-906835D01*
X983584Y-904547D01*
X985054Y-902000D01*
D02*
G37*
G36*
X968750D02*
X962445D01*
X963915Y-904547D01*
X966204Y-906835D01*
X968750Y-908305D01*
Y-902000D01*
D02*
G37*
G36*
X1081290Y-905020D02*
X1070020D01*
Y-916290D01*
X1070401D01*
X1073590Y-915435D01*
X1076450Y-913784D01*
X1078784Y-911450D01*
X1080435Y-908590D01*
X1081290Y-905401D01*
Y-905020D01*
D02*
G37*
G36*
X1067480D02*
X1056210D01*
Y-905401D01*
X1057065Y-908590D01*
X1058716Y-911450D01*
X1061050Y-913784D01*
X1063910Y-915435D01*
X1067099Y-916290D01*
X1067480D01*
Y-905020D01*
D02*
G37*
G36*
X654250Y-860960D02*
X646710D01*
Y-885000D01*
X654250D01*
Y-860960D01*
D02*
G37*
G36*
Y-895000D02*
X646710D01*
Y-919040D01*
X654250D01*
Y-895000D01*
D02*
G37*
%LPD*%
D11*
X36083Y-593583D02*
Y-236417D01*
X122245Y-679745D02*
X122245Y-702500D01*
X36083Y-593583D02*
X122245Y-679745D01*
X605000Y-706250D02*
X615684Y-716934D01*
X598750Y-665818D02*
X605000Y-672068D01*
Y-706250D02*
Y-672068D01*
X615684Y-738931D02*
Y-716934D01*
X590748Y-701155D02*
Y-692530D01*
X635000Y-800000D02*
X655000D01*
X628717Y-793717D02*
X635000Y-800000D01*
X641320Y-783430D02*
X642250Y-782500D01*
X628684Y-783430D02*
X641320D01*
X628717Y-793717D02*
Y-783464D01*
X1027372Y-778102D02*
X1027473Y-778000D01*
X1048250D01*
X1027500Y-751250D02*
X1033750Y-745000D01*
X1019659Y-800068D02*
X1020235Y-799492D01*
X1027500Y-774736D02*
Y-751250D01*
Y-774736D02*
X1027764Y-775000D01*
X1036250Y-888639D02*
X1046139Y-878750D01*
X1036250Y-903750D02*
Y-888639D01*
X1046139Y-878750D02*
X1061250D01*
X1070000Y-870000D02*
Y-854261D01*
X1061250Y-878750D02*
X1070000Y-870000D01*
Y-854197D02*
X1074927D01*
X1050447D02*
X1070000D01*
X1030997Y-834747D02*
Y-823977D01*
Y-834747D02*
X1050447Y-854197D01*
X1048250Y-819250D02*
Y-797000D01*
X1043523Y-823977D02*
X1048250Y-819250D01*
X1030997Y-823977D02*
X1043523D01*
X1013497Y-856227D02*
X1030747D01*
X1030997Y-855977D01*
X303719Y-593873D02*
Y-462715D01*
X212328Y-702500D02*
Y-685263D01*
X303719Y-593873D01*
X1036429Y-603427D02*
Y-580570D01*
X1036497Y-580501D01*
X888750Y-785000D02*
X897631Y-793881D01*
X907220D01*
X675000Y-637500D02*
Y-620006D01*
X675060Y-619946D01*
X615610Y-148170D02*
X616220Y-147560D01*
X298750Y-738861D02*
Y-702500D01*
X295500Y-742111D02*
X298750Y-738861D01*
X295500Y-752500D02*
Y-742111D01*
X297500Y-200198D02*
X321192Y-223889D01*
X297500Y-200198D02*
Y-142500D01*
X409604Y-134067D02*
X511772D01*
X514620Y-147560D02*
Y-136915D01*
X511772Y-134067D02*
X514620Y-136915D01*
X399540Y-144131D02*
X409604Y-134067D01*
X869375Y-423125D02*
X870000Y-423750D01*
X848750Y-422500D02*
X870000D01*
X848750D02*
X849375Y-423125D01*
X1020000Y-450000D02*
X1046250D01*
X1043750Y-452500D02*
X1046250Y-450000D01*
X526656Y-483980D02*
X538750D01*
X521125Y-478449D02*
X526656Y-483980D01*
X498750Y-541230D02*
Y-501250D01*
X499090Y-500910D01*
X498750Y-564644D02*
Y-541230D01*
X499090Y-500910D02*
Y-476936D01*
X212328Y-738064D02*
Y-702500D01*
X467483Y-764983D02*
Y-565446D01*
Y-764983D02*
X477672Y-775172D01*
X490692D01*
X491750Y-776230D01*
X615000Y-175000D02*
X616220Y-173780D01*
Y-147560D01*
X615000Y-245000D02*
Y-175000D01*
X602740Y-299960D02*
Y-172153D01*
X590820Y-160233D02*
Y-147560D01*
Y-160233D02*
X602740Y-172153D01*
X91250Y-181250D02*
Y-167500D01*
X36083Y-236417D02*
X91250Y-181250D01*
X133750Y-153750D02*
Y-142500D01*
X70000Y-377500D02*
Y-217500D01*
X133750Y-153750D01*
X236250Y-151250D02*
Y-135000D01*
X262500Y-364723D02*
Y-177500D01*
X236250Y-151250D02*
X262500Y-177500D01*
X367500Y-406250D02*
Y-155000D01*
X358750Y-146250D02*
X367500Y-155000D01*
X358750Y-146250D02*
Y-132500D01*
X413020Y-163020D02*
Y-147560D01*
X426500Y-494000D02*
Y-176500D01*
X413020Y-163020D02*
X426500Y-176500D01*
X622500Y-823390D02*
Y-795000D01*
X622184Y-794684D02*
Y-783430D01*
X622500Y-823390D02*
X623094Y-823984D01*
X622184Y-794684D02*
X622500Y-795000D01*
X336050Y-645200D02*
X340681Y-640569D01*
X324750Y-645200D02*
X336050D01*
X321192Y-445242D02*
Y-223889D01*
X303719Y-462715D02*
X321192Y-445242D01*
X447500Y-515000D02*
X467408D01*
X426500Y-494000D02*
X447500Y-515000D01*
X467408D02*
X467483Y-515075D01*
X408750Y-381000D02*
Y-371281D01*
X398250Y-360781D02*
Y-306187D01*
Y-360781D02*
X408750Y-371281D01*
Y-400000D02*
Y-381000D01*
X741001Y-360076D02*
X741144Y-360219D01*
X741001Y-360076D02*
Y-339366D01*
X898350Y-327500D02*
Y-255850D01*
X863750Y-221250D02*
X898350Y-255850D01*
X863750Y-221250D02*
Y-200000D01*
X324750Y-619800D02*
Y-596481D01*
X328750Y-592481D02*
Y-582500D01*
X324750Y-596481D02*
X328750Y-592481D01*
X467483Y-487575D02*
Y-476470D01*
X462500Y-471487D02*
Y-462500D01*
Y-471487D02*
X467483Y-476470D01*
X662243Y-651134D02*
Y-610427D01*
X665425Y-607246D02*
X675060D01*
X662243Y-610427D02*
X665425Y-607246D01*
X662243Y-651134D02*
X672648Y-661539D01*
X525832Y-464055D02*
X530514Y-468736D01*
X503750Y-415986D02*
X525832Y-438068D01*
Y-464055D02*
Y-438068D01*
X615000Y-245000D02*
X615610Y-244390D01*
X623910Y-762500D02*
X647500D01*
X616934Y-769476D02*
X623910Y-762500D01*
X616934Y-782181D02*
Y-769476D01*
X615684Y-783430D02*
X616934Y-782181D01*
X1030855Y-745000D02*
X1033750D01*
X1027814Y-748041D02*
X1030855Y-745000D01*
X1027568Y-748041D02*
X1027814D01*
X527500Y-420000D02*
Y-394921D01*
X602740Y-319681D01*
X474145Y-462500D02*
X479243Y-457402D01*
X462500Y-462500D02*
X474145D01*
X711144Y-358949D02*
X712414Y-357679D01*
X122245Y-738121D02*
Y-702500D01*
X399540Y-304897D02*
Y-144131D01*
X398250Y-306187D02*
X399540Y-304897D01*
X408750Y-349000D02*
Y-330000D01*
X348750Y-349000D02*
Y-330000D01*
X378750Y-349000D02*
Y-330000D01*
X246567Y-380656D02*
X262500Y-364723D01*
X246567Y-495480D02*
Y-380656D01*
X70000Y-377500D02*
X106567Y-414067D01*
Y-495480D02*
Y-414067D01*
X97500Y-279000D02*
Y-262500D01*
X130000Y-279000D02*
Y-262500D01*
X308750Y-465000D02*
X367500Y-406250D01*
X348750Y-400000D02*
Y-381000D01*
X96250Y-727500D02*
Y-702995D01*
X96745Y-702500D01*
X96250Y-727500D02*
X96873Y-728122D01*
Y-739302D02*
Y-728122D01*
X273250Y-702500D02*
X273750Y-703000D01*
X272920Y-702170D02*
X273250Y-702500D01*
X273750Y-727500D02*
Y-703000D01*
X273250Y-739290D02*
Y-728000D01*
X273750Y-727500D01*
X186828Y-737264D02*
Y-728078D01*
X186250Y-727500D02*
X186828Y-728078D01*
X186250Y-703078D02*
X186828Y-702500D01*
X186250Y-727500D02*
Y-703078D01*
X479243Y-457402D02*
X489940D01*
X946113Y-230000D02*
X946292Y-229821D01*
X918750Y-230000D02*
X946113D01*
X946292Y-229821D02*
X949150Y-232679D01*
X918750Y-198730D02*
X945201D01*
X946292Y-199821D01*
X893750Y-200000D02*
X895020Y-198730D01*
X918750D01*
X232604Y-619654D02*
Y-599514D01*
Y-619654D02*
X232750Y-619800D01*
X683680Y-686236D02*
X687416Y-682500D01*
X698750D01*
X672648Y-686236D02*
X683680D01*
X672648D02*
Y-661539D01*
X303479Y-785996D02*
X393152Y-875668D01*
X292647Y-785996D02*
X303479D01*
X286000Y-779348D02*
X292647Y-785996D01*
X114362Y-891230D02*
Y-860612D01*
X109495Y-855745D02*
X114362Y-860612D01*
X109495Y-855745D02*
Y-772500D01*
X628684Y-783430D02*
X628717Y-783464D01*
X675060Y-607246D02*
Y-594546D01*
Y-581846D01*
X538750Y-458480D02*
X538750Y-458480D01*
X538750Y-458480D02*
Y-440000D01*
X407229Y-597444D02*
X407497Y-597176D01*
X423610D01*
X503750Y-415986D02*
Y-390000D01*
X530514Y-468736D02*
X544986D01*
X508718Y-456924D02*
X517808D01*
X521125Y-460241D01*
Y-478449D02*
Y-460241D01*
X538750Y-511609D02*
X550750Y-499609D01*
Y-474500D01*
X538750Y-541230D02*
Y-511609D01*
X544986Y-468736D02*
X550750Y-474500D01*
X508240Y-457402D02*
X508718Y-456924D01*
X602740Y-319681D02*
Y-299960D01*
X659346Y-738931D02*
X664681Y-733595D01*
X628684Y-738931D02*
X659346D01*
X664681Y-733595D02*
X673398D01*
Y-712486D01*
X672648Y-711736D02*
X673398Y-712486D01*
X589349Y-702554D02*
X590748Y-701155D01*
Y-692530D02*
X592951Y-690326D01*
X589349Y-713492D02*
Y-702554D01*
X598750Y-641000D02*
Y-627500D01*
X601250Y-625000D02*
X621250D01*
X598750Y-627500D02*
X601250Y-625000D01*
X598750Y-665818D02*
Y-641000D01*
X624669Y-621581D02*
Y-612832D01*
X621250Y-625000D02*
X624669Y-621581D01*
Y-612832D02*
X624748Y-612753D01*
X643500Y-717500D02*
X643750Y-717250D01*
X632196Y-717500D02*
X643500D01*
X628188Y-713492D02*
X632196Y-717500D01*
X621849Y-713492D02*
X628188D01*
X622017Y-738763D02*
X622184Y-738931D01*
X622017Y-738763D02*
Y-713659D01*
X621849Y-713492D02*
X622017Y-713659D01*
X995051Y-587140D02*
X998329Y-590418D01*
X974988Y-587140D02*
X995051D01*
X998329Y-603427D02*
Y-590418D01*
X899454Y-587140D02*
X974988D01*
X308750Y-612500D02*
Y-465000D01*
X298750Y-622500D02*
X308750Y-612500D01*
X298750Y-702500D02*
Y-622500D01*
X378750Y-400000D02*
Y-381000D01*
X898297Y-585983D02*
X899454Y-587140D01*
X96873Y-739302D02*
X99995Y-742425D01*
Y-752500D02*
Y-742425D01*
X276500Y-752500D02*
Y-742540D01*
X273250Y-739290D02*
X276500Y-742540D01*
X209078Y-752500D02*
Y-741314D01*
X212328Y-738064D01*
X190078Y-752500D02*
Y-740514D01*
X186828Y-737264D02*
X190078Y-740514D01*
X393152Y-890019D02*
Y-875668D01*
Y-890019D02*
X394362Y-891230D01*
X286000Y-779348D02*
Y-772500D01*
X254362Y-891230D02*
Y-872638D01*
X199578Y-817854D02*
Y-772500D01*
Y-817854D02*
X254362Y-872638D01*
X118995Y-741371D02*
X122245Y-738121D01*
X118995Y-752500D02*
Y-741371D01*
X222878Y-645200D02*
X232750D01*
X218750Y-641072D02*
Y-542500D01*
Y-641072D02*
X222878Y-645200D01*
X340681Y-640569D02*
Y-610569D01*
X353806Y-597444D01*
X375229D01*
X467483Y-539946D02*
Y-515075D01*
X1074250Y-787500D02*
X1074433Y-787317D01*
X628750Y-354871D02*
X635109Y-361230D01*
X628750Y-354871D02*
Y-182500D01*
X635109Y-361230D02*
X642750D01*
X492482Y-590498D02*
Y-570911D01*
X498750Y-564644D01*
X491750Y-591230D02*
X492482Y-590498D01*
X674750Y-361230D02*
X713750D01*
X538750Y-591230D02*
Y-541230D01*
D17*
X499090Y-476795D02*
D03*
X489940Y-457261D02*
D03*
D18*
X508240D02*
D03*
D19*
X698750Y-714000D02*
D03*
Y-682500D02*
D03*
D20*
X1027372Y-778102D02*
D03*
Y-803629D02*
D03*
D21*
X1030997Y-823977D02*
D03*
Y-855977D02*
D03*
X408750Y-349000D02*
D03*
Y-381000D02*
D03*
X378750Y-349000D02*
D03*
Y-381000D02*
D03*
X348750Y-349000D02*
D03*
Y-381000D02*
D03*
X97500Y-311000D02*
D03*
Y-279000D02*
D03*
X130000Y-311000D02*
D03*
Y-279000D02*
D03*
D22*
X1070000Y-854261D02*
D03*
Y-825739D02*
D03*
D23*
X711144Y-360219D02*
D03*
X741144D02*
D03*
D24*
X1048250Y-778000D02*
D03*
Y-787500D02*
D03*
Y-797000D02*
D03*
X1074250D02*
D03*
Y-787500D02*
D03*
Y-778000D02*
D03*
X675060Y-581846D02*
D03*
Y-594546D02*
D03*
Y-607246D02*
D03*
Y-619946D02*
D03*
X731250Y-620962D02*
D03*
Y-607500D02*
D03*
Y-594292D02*
D03*
Y-580830D02*
D03*
D25*
X907220Y-793881D02*
D03*
X952820D02*
D03*
D26*
X930020Y-728881D02*
D03*
D27*
X936887Y-553688D02*
D03*
Y-612188D02*
D03*
D28*
X498750Y-541230D02*
D03*
X538750D02*
D03*
D29*
X467483Y-565446D02*
D03*
Y-539946D02*
D03*
X598750Y-641000D02*
D03*
Y-612500D02*
D03*
D30*
X467483Y-487575D02*
D03*
Y-515075D02*
D03*
X898297Y-558483D02*
D03*
Y-585983D02*
D03*
D31*
X538750Y-483980D02*
D03*
Y-458480D02*
D03*
X672648Y-686236D02*
D03*
Y-711736D02*
D03*
D32*
X798750Y-772500D02*
D03*
Y-662500D02*
D03*
D33*
X1036429Y-603427D02*
D03*
X1023729D02*
D03*
X1011029D02*
D03*
X998329D02*
D03*
X1036429Y-650426D02*
D03*
X1023729D02*
D03*
X1011029D02*
D03*
X998329D02*
D03*
D34*
X628684Y-783430D02*
D03*
Y-738931D02*
D03*
X622184D02*
D03*
X615684D02*
D03*
X609184D02*
D03*
X622184Y-783430D02*
D03*
X615684D02*
D03*
X609184D02*
D03*
D35*
X642318Y-784057D02*
D03*
X675317D02*
D03*
D36*
X1065503Y-633846D02*
D03*
Y-677846D02*
D03*
D37*
X383350Y-766350D02*
D03*
X434150D02*
D03*
D38*
X408750Y-666027D02*
D03*
D39*
X232750Y-645200D02*
D03*
Y-619800D02*
D03*
X324750D02*
D03*
Y-645200D02*
D03*
D40*
X407229Y-597444D02*
D03*
X375229D02*
D03*
X642750Y-361230D02*
D03*
X674750D02*
D03*
D41*
X295500Y-752500D02*
D03*
X276500D02*
D03*
X286000Y-772500D02*
D03*
X209078Y-752500D02*
D03*
X190078D02*
D03*
X199578Y-772500D02*
D03*
X118995Y-752500D02*
D03*
X99995D02*
D03*
X109495Y-772500D02*
D03*
D42*
X298750Y-702500D02*
D03*
X273250D02*
D03*
X212328D02*
D03*
X186828D02*
D03*
X122245D02*
D03*
X96745D02*
D03*
D43*
X893750Y-200000D02*
D03*
X863750D02*
D03*
D44*
X946292Y-229821D02*
D03*
Y-199821D02*
D03*
D45*
X596594Y-823984D02*
D03*
X623094D02*
D03*
D46*
X624748Y-639253D02*
D03*
Y-612753D02*
D03*
X974988Y-613640D02*
D03*
Y-587140D02*
D03*
D47*
X621036Y-690372D02*
D03*
X590536D02*
D03*
D48*
X632250Y-507500D02*
D03*
X706250D02*
D03*
D49*
X673398Y-748595D02*
D03*
Y-733595D02*
D03*
D50*
X643750Y-687750D02*
D03*
Y-717250D02*
D03*
D51*
X589349Y-713492D02*
D03*
X621849D02*
D03*
D52*
X1002250Y-527500D02*
D03*
X1045250D02*
D03*
D53*
X1007250Y-680000D02*
D03*
X1040250D02*
D03*
D54*
X1064497Y-580501D02*
D03*
X1036497D02*
D03*
D55*
X916250Y-465000D02*
D03*
X968550D02*
D03*
D56*
X829150Y-609500D02*
D03*
X778350D02*
D03*
D57*
X803750Y-506750D02*
D03*
D58*
X659250Y-890000D02*
D03*
X593250D02*
D03*
D59*
X790000Y-892500D02*
D03*
Y-827500D02*
D03*
D108*
X387620Y-299960D02*
D03*
X413020D02*
D03*
X438420D02*
D03*
X463820D02*
D03*
X489220D02*
D03*
X514620D02*
D03*
X540020D02*
D03*
X565420D02*
D03*
X590820D02*
D03*
X616220D02*
D03*
X641620D02*
D03*
X667020D02*
D03*
X692420D02*
D03*
X717820D02*
D03*
X743220D02*
D03*
X387620Y-147560D02*
D03*
X413020D02*
D03*
X438420D02*
D03*
X463820D02*
D03*
X489220D02*
D03*
X514620D02*
D03*
X540020D02*
D03*
X565420D02*
D03*
X590820D02*
D03*
X616220D02*
D03*
X641620D02*
D03*
X667020D02*
D03*
X692420D02*
D03*
X717820D02*
D03*
X743220D02*
D03*
X347500Y-80000D02*
D03*
X706250Y-892500D02*
D03*
X152500Y-660000D02*
D03*
X974550Y-327500D02*
D03*
X949150D02*
D03*
X923750D02*
D03*
X898350D02*
D03*
X102500Y-380000D02*
D03*
X997500D02*
D03*
X752500Y-80000D02*
D03*
D112*
X1036250Y-903750D02*
D03*
X848750Y-422500D02*
D03*
X1068750Y-903750D02*
D03*
X1062500Y-741250D02*
D03*
X1046250Y-450000D02*
D03*
X1073750D02*
D03*
X818750Y-422500D02*
D03*
D113*
X491750Y-804250D02*
Y-776230D01*
X528750Y-891230D02*
Y-841250D01*
X491750Y-804250D02*
X528750Y-841250D01*
X383350Y-827100D02*
X447480Y-891230D01*
X478750D01*
X383350Y-827100D02*
Y-766350D01*
D114*
X923750Y-897000D02*
D03*
X336567Y-495480D02*
D03*
X478750Y-891230D02*
D03*
X345633Y-889960D02*
D03*
X56567Y-495480D02*
D03*
X204363Y-891230D02*
D03*
X64363D02*
D03*
X196567Y-495480D02*
D03*
D115*
X973750Y-897000D02*
D03*
X386567Y-495480D02*
D03*
X528750Y-891230D02*
D03*
X394362D02*
D03*
X106567Y-495480D02*
D03*
X254362Y-891230D02*
D03*
X114362D02*
D03*
X246567Y-495480D02*
D03*
D116*
X281250Y-330300D02*
D03*
X231250D02*
D03*
X181250D02*
D03*
D117*
X491750Y-776230D02*
D03*
Y-706230D02*
D03*
X538750Y-591230D02*
D03*
D118*
X491750D02*
D03*
D119*
X655000Y-800000D02*
D03*
X1033750Y-745000D02*
D03*
X1013497Y-856227D02*
D03*
X675000Y-637500D02*
D03*
X297500Y-142500D02*
D03*
X741001Y-339366D02*
D03*
X870000Y-422500D02*
D03*
X615000Y-245000D02*
D03*
X647500Y-762500D02*
D03*
X527500Y-420000D02*
D03*
X462500Y-462500D02*
D03*
X675000Y-765000D02*
D03*
X348750Y-330000D02*
D03*
X408750D02*
D03*
X378750D02*
D03*
X97500Y-262500D02*
D03*
X130000D02*
D03*
X348750Y-400000D02*
D03*
X408750D02*
D03*
X378750D02*
D03*
X328750Y-582500D02*
D03*
X273750Y-727500D02*
D03*
X186250D02*
D03*
X96250D02*
D03*
X617083Y-871129D02*
D03*
X634583D02*
D03*
Y-888629D02*
D03*
X617083D02*
D03*
Y-906129D02*
D03*
X634583D02*
D03*
X603420Y-481315D02*
D03*
X585920D02*
D03*
Y-463815D02*
D03*
X603420D02*
D03*
Y-446315D02*
D03*
X585920D02*
D03*
X918750Y-230000D02*
D03*
X1020000Y-450000D02*
D03*
X232604Y-599514D02*
D03*
X888750Y-785000D02*
D03*
X627500Y-590000D02*
D03*
X645000D02*
D03*
Y-572500D02*
D03*
X627500D02*
D03*
X1016250Y-727500D02*
D03*
X1033750D02*
D03*
X1016250Y-745000D02*
D03*
X998750Y-727500D02*
D03*
Y-745000D02*
D03*
X851250Y-810000D02*
D03*
X868750D02*
D03*
Y-827500D02*
D03*
X851250D02*
D03*
Y-845000D02*
D03*
X868750D02*
D03*
X911250Y-652500D02*
D03*
X893750D02*
D03*
Y-670000D02*
D03*
X911250D02*
D03*
X928750D02*
D03*
X963750D02*
D03*
X91250Y-167500D02*
D03*
X236250Y-135000D02*
D03*
X133750Y-142500D02*
D03*
X868750Y-920000D02*
D03*
X851250D02*
D03*
Y-902500D02*
D03*
X868750D02*
D03*
Y-885000D02*
D03*
X851250D02*
D03*
X423610Y-597176D02*
D03*
X538750Y-440000D02*
D03*
X956250Y-635000D02*
D03*
X928750Y-652500D02*
D03*
X981250Y-670000D02*
D03*
X921250Y-635000D02*
D03*
X938750D02*
D03*
X358750Y-132500D02*
D03*
X628750Y-182500D02*
D03*
X918750Y-198730D02*
D03*
M02*
